<?plantuml 1.2026.2?><svg xmlns="http://www.w3.org/2000/svg" xmlns:xlink="http://www.w3.org/1999/xlink" contentStyleType="text/css" data-diagram-type="DESCRIPTION" height="927px" preserveAspectRatio="none" style="width:3359px;height:927px;background:#FFFFFF;" version="1.1" viewBox="0 0 3359 927" width="3359px" zoomAndPan="magnify"><title>Canonical Proof Spine</title><defs/><g><g class="title" data-source-line="1"><text fill="#000000" font-family="sans-serif" font-size="14" font-weight="bold" lengthAdjust="spacing" textLength="151.6474" x="1595.6414" y="24.9659">Canonical Proof Spine</text></g><!--entity RealStack--><g class="entity" data-qualified-name="RealStack" data-source-line="27" id="ent0002"><rect fill="#DBEAFE" height="77.2038" rx="9" ry="9" style="stroke:#334155;stroke-width:0.5;" width="164.0734" x="7" y="369.0679"/><text fill="#0F172A" font-family="sans-serif" font-size="14" lengthAdjust="spacing" textLength="113.3856" x="32.3439" y="394.0339">Real stack source</text><text fill="#0F172A" font-family="sans-serif" font-size="14" lengthAdjust="spacing" textLength="144.0734" x="17" y="413.1018">ConcreteClosureStack</text><text fill="#0F172A" font-family="sans-serif" font-size="14" lengthAdjust="spacing" textLength="100.7016" x="38.6859" y="432.1697">[formal source]</text></g><!--entity StrongCQ--><g class="entity" data-qualified-name="StrongCQ" data-source-line="28" id="ent0003"><rect fill="#DCFCE7" height="96.2717" rx="9" ry="9" style="stroke:#334155;stroke-width:0.5;" width="249.3332" x="356.98" y="359.5379"/><text fill="#0F172A" font-family="sans-serif" font-size="14" lengthAdjust="spacing" textLength="160.9434" x="401.1749" y="384.5039">Strong quadratic forcing</text><text fill="#0F172A" font-family="sans-serif" font-size="14" lengthAdjust="spacing" textLength="229.3332" x="366.98" y="403.5718">ContractionForcesQuadraticStrong</text><text fill="#0F172A" font-family="sans-serif" font-size="14" lengthAdjust="spacing" textLength="55.6918" x="453.8007" y="422.6397">[proved]</text><text fill="#0F172A" font-family="sans-serif" font-size="14" lengthAdjust="spacing" textLength="189.0973" x="387.098" y="441.7076">Active seam/bottleneck layer</text></g><!--entity SigBridge--><g class="entity" data-qualified-name="SigBridge" data-source-line="29" id="ent0004"><rect fill="#DCFCE7" height="77.2038" rx="9" ry="9" style="stroke:#334155;stroke-width:0.5;" width="345.4708" x="812.22" y="312.0679"/><text fill="#0F172A" font-family="sans-serif" font-size="14" lengthAdjust="spacing" textLength="171.8353" x="899.0377" y="337.0339">Lorentz / signature bridge</text><text fill="#0F172A" font-family="sans-serif" font-size="14" lengthAdjust="spacing" textLength="325.4708" x="822.22" y="356.1018">ContractionQuadraticToSignatureBridgeTheorem</text><text fill="#0F172A" font-family="sans-serif" font-size="14" lengthAdjust="spacing" textLength="114.0996" x="927.9056" y="375.1697">[proved + bridge]</text></g><!--entity CliffBridge--><g class="entity" data-qualified-name="CliffBridge" data-source-line="30" id="ent0005"><rect fill="#DCFCE7" height="77.2038" rx="9" ry="9" style="stroke:#334155;stroke-width:0.5;" width="253.0711" x="858.42" y="424.0679"/><text fill="#0F172A" font-family="sans-serif" font-size="14" lengthAdjust="spacing" textLength="95.3256" x="937.2927" y="449.0339">Clifford bridge</text><text fill="#0F172A" font-family="sans-serif" font-size="14" lengthAdjust="spacing" textLength="233.0711" x="868.42" y="468.1018">QuadraticToCliffordBridgeTheorem</text><text fill="#0F172A" font-family="sans-serif" font-size="14" lengthAdjust="spacing" textLength="114.0996" x="927.9058" y="487.1697">[proved + bridge]</text></g><!--entity CliffBundle--><g class="entity" data-qualified-name="CliffBundle" data-source-line="31" id="ent0006"><rect fill="#FEF3C7" height="77.2038" rx="9" ry="9" style="stroke:#334155;stroke-width:0.5;" width="329.4408" x="1365.69" y="369.0679"/><text fill="#0F172A" font-family="sans-serif" font-size="14" lengthAdjust="spacing" textLength="260.987" x="1399.9169" y="394.0339">Canonical contraction -&gt; Clifford bundle</text><text fill="#0F172A" font-family="sans-serif" font-size="14" lengthAdjust="spacing" textLength="309.4408" x="1375.69" y="413.1018">CanonicalContractionToCliffordBridgeTheorem</text><text fill="#0F172A" font-family="sans-serif" font-size="14" lengthAdjust="spacing" textLength="136.6115" x="1462.1047" y="432.1697">[canonical assembly]</text></g><!--entity FullClosure--><g class="entity" data-qualified-name="FullClosure" data-source-line="32" id="ent0007"><rect fill="#FEF3C7" height="77.2038" rx="9" ry="9" style="stroke:#334155;stroke-width:0.5;" width="253.6731" x="1875.13" y="369.0679"/><text fill="#0F172A" font-family="sans-serif" font-size="14" lengthAdjust="spacing" textLength="133.4055" x="1935.2638" y="394.0339">Full closure instance</text><text fill="#0F172A" font-family="sans-serif" font-size="14" lengthAdjust="spacing" textLength="177.3933" x="1913.2699" y="413.1018">PhysicsClosureFullInstance</text><text fill="#0F172A" font-family="sans-serif" font-size="14" lengthAdjust="spacing" textLength="233.6731" x="1885.13" y="432.1697">[current canonical closure package]</text></g><!--entity UnifiedOwner--><g class="entity" data-qualified-name="UnifiedOwner" data-source-line="33" id="ent0008"><rect fill="#FEF3C7" height="77.2038" rx="9" ry="9" style="stroke:#334155;stroke-width:0.5;" width="175.0074" x="2450.26" y="239.0679"/><text fill="#0F172A" font-family="sans-serif" font-size="14" lengthAdjust="spacing" textLength="153.3554" x="2461.086" y="264.0339">Unified theorem owner</text><text fill="#0F172A" font-family="sans-serif" font-size="14" lengthAdjust="spacing" textLength="155.0074" x="2460.26" y="283.1018">UnifiedPhysicsTheorem</text><text fill="#0F172A" font-family="sans-serif" font-size="14" lengthAdjust="spacing" textLength="136.4575" x="2469.5349" y="302.1697">[strong claim owner]</text></g><!--entity AdapterOwner--><g class="entity" data-qualified-name="AdapterOwner" data-source-line="34" id="ent0009"><rect fill="#FEF3C7" height="77.2038" rx="9" ry="9" style="stroke:#334155;stroke-width:0.5;" width="322.5388" x="3008.05" y="302.0679"/><text fill="#0F172A" font-family="sans-serif" font-size="14" lengthAdjust="spacing" textLength="206.7092" x="3065.9648" y="327.0339">Abstract/canonical seam owner</text><text fill="#0F172A" font-family="sans-serif" font-size="14" lengthAdjust="spacing" textLength="302.5388" x="3018.05" y="346.1018">PhysicsUnificationToCanonicalClosureAdapter</text><text fill="#0F172A" font-family="sans-serif" font-size="14" lengthAdjust="spacing" textLength="166.7954" x="3085.9217" y="365.1697">[adapter theorem owner]</text></g><!--entity AtomOwner--><g class="entity" data-qualified-name="AtomOwner" data-source-line="35" id="ent0010"><rect fill="#FEF3C7" height="77.2038" rx="9" ry="9" style="stroke:#334155;stroke-width:0.5;" width="251.9651" x="3043.34" y="110.0679"/><text fill="#0F172A" font-family="sans-serif" font-size="14" lengthAdjust="spacing" textLength="212.9252" x="3062.86" y="135.0339">Atom/chemistry recovery carrier</text><text fill="#0F172A" font-family="sans-serif" font-size="14" lengthAdjust="spacing" textLength="231.9651" x="3053.34" y="154.1018">AtomicChemistryRecoveryTheorem</text><text fill="#0F172A" font-family="sans-serif" font-size="14" lengthAdjust="spacing" textLength="181.0613" x="3078.7919" y="173.1697">[packaging + bridge owner]</text></g><!--entity MinimalCredible--><g class="entity" data-qualified-name="MinimalCredible" data-source-line="36" id="ent0011"><rect fill="#FEF3C7" height="77.2038" rx="9" ry="9" style="stroke:#334155;stroke-width:0.5;" width="312.0669" x="2381.73" y="47.0679"/><text fill="#0F172A" font-family="sans-serif" font-size="14" lengthAdjust="spacing" textLength="160.9854" x="2457.2707" y="72.0339">Minimal credible closure</text><text fill="#0F172A" font-family="sans-serif" font-size="14" lengthAdjust="spacing" textLength="292.0669" x="2391.73" y="91.1018">MinimalCrediblePhysicsClosureShiftInstance</text><text fill="#0F172A" font-family="sans-serif" font-size="14" lengthAdjust="spacing" textLength="126.3775" x="2474.5747" y="110.1697">[current milestone]</text></g><!--entity GRBridge--><g class="entity" data-qualified-name="GRBridge" data-source-line="37" id="ent0012"><rect fill="#FEE2E2" height="77.2038" rx="9" ry="9" style="stroke:#334155;stroke-width:0.5;" width="226.9332" x="2424.29" y="431.0679"/><text fill="#0F172A" font-family="sans-serif" font-size="14" lengthAdjust="spacing" textLength="154.9374" x="2460.2879" y="456.0339">Known-limits GR bridge</text><text fill="#0F172A" font-family="sans-serif" font-size="14" lengthAdjust="spacing" textLength="206.9332" x="2434.29" y="475.1018">KnownLimitsGRBridgeTheorem</text><text fill="#0F172A" font-family="sans-serif" font-size="14" lengthAdjust="spacing" textLength="166.6694" x="2454.4219" y="494.1697">[bridge, not full recovery]</text></g><!--entity QFTBridge--><g class="entity" data-qualified-name="QFTBridge" data-source-line="38" id="ent0013"><rect fill="#FEE2E2" height="77.2038" rx="9" ry="9" style="stroke:#334155;stroke-width:0.5;" width="234.0172" x="2420.75" y="623.0679"/><text fill="#0F172A" font-family="sans-serif" font-size="14" lengthAdjust="spacing" textLength="162.0214" x="2456.7479" y="648.0339">Known-limits QFT bridge</text><text fill="#0F172A" font-family="sans-serif" font-size="14" lengthAdjust="spacing" textLength="214.0172" x="2430.75" y="667.1018">KnownLimitsQFTBridgeTheorem</text><text fill="#0F172A" font-family="sans-serif" font-size="14" lengthAdjust="spacing" textLength="166.6694" x="2454.4239" y="686.1697">[bridge, not full recovery]</text></g><g class="entity" data-qualified-name="GMN26" data-source-line="54" id="ent0027"><path d="M308.07,270.1079 L308.07,315.226 A9,9 0 0 0 317.07,324.226 L477.65,324.226 L481.65,359.1579 L485.65,324.226 L646.2142,324.226 A9,9 0 0 0 655.2142,315.226 L655.2142,271.1079 L645.2142,261.1079 L317.07,261.1079 A9,9 0 0 0 308.07,270.1079" fill="#FFF7ED" style="stroke:#C2410C;stroke-width:0.5;"/><path d="M645.2142,261.1079 L645.2142,266.6079 A4.5,4.5 0 0 0 649.7142,271.1079 L655.2142,271.1079 L645.2142,261.1079" fill="#FFF7ED" style="stroke:#C2410C;stroke-width:0.5;"/><text fill="#7C2D12" font-family="sans-serif" font-size="13" lengthAdjust="spacing" textLength="326.1442" x="314.07" y="280.0049">If a reader wants the current formal center of gravity,</text><text fill="#7C2D12" font-family="sans-serif" font-size="13" lengthAdjust="spacing" textLength="225.1342" x="364.575" y="297.7109">start here after the real stack source.</text><text fill="#7C2D12" font-family="sans-serif" font-size="13" lengthAdjust="spacing" textLength="273.8972" x="340.1935" y="315.417">This is where seam quality still matters most.</text></g><g class="entity" data-qualified-name="GMN29" data-source-line="60" id="ent0030"><path d="M2396.76,167.9679 L2396.76,195.3799 A9,9 0 0 0 2405.76,204.3799 L2669.7613,204.3799 A9,9 0 0 0 2678.7613,195.3799 L2678.7613,168.9679 L2668.7613,158.9679 L2541.76,158.9679 L2537.76,124.5179 L2533.76,158.9679 L2405.76,158.9679 A9,9 0 0 0 2396.76,167.9679" fill="#FFF7ED" style="stroke:#C2410C;stroke-width:0.5;"/><path d="M2668.7613,158.9679 L2668.7613,164.4679 A4.5,4.5 0 0 0 2673.2613,168.9679 L2678.7613,168.9679 L2668.7613,158.9679" fill="#FFF7ED" style="stroke:#C2410C;stroke-width:0.5;"/><text fill="#7C2D12" font-family="sans-serif" font-size="13" lengthAdjust="spacing" textLength="261.0013" x="2402.76" y="177.8649">This is the best current milestone package,</text><text fill="#7C2D12" font-family="sans-serif" font-size="13" lengthAdjust="spacing" textLength="176.1892" x="2445.166" y="195.5709">not a finished unified theory.</text></g><g class="entity" data-qualified-name="GMN32" data-source-line="65" id="ent0033"><path d="M2367.8,359.9679 L2367.8,387.3799 A9,9 0 0 0 2376.8,396.3799 L2698.7163,396.3799 A9,9 0 0 0 2707.7163,387.3799 L2707.7163,360.9679 L2697.7163,350.9679 L2541.76,350.9679 L2537.76,316.5179 L2533.76,350.9679 L2376.8,350.9679 A9,9 0 0 0 2367.8,359.9679" fill="#FFF7ED" style="stroke:#C2410C;stroke-width:0.5;"/><path d="M2697.7163,350.9679 L2697.7163,356.4679 A4.5,4.5 0 0 0 2702.2163,360.9679 L2707.7163,360.9679 L2697.7163,350.9679" fill="#FFF7ED" style="stroke:#C2410C;stroke-width:0.5;"/><text fill="#7C2D12" font-family="sans-serif" font-size="13" lengthAdjust="spacing" textLength="318.9163" x="2373.8" y="369.8649">This is where the strong repo-native claim lives now.</text><text fill="#7C2D12" font-family="sans-serif" font-size="13" lengthAdjust="spacing" textLength="269.8932" x="2398.3115" y="387.5709">It does not erase the remaining proof gates.</text></g><g class="entity" data-qualified-name="GMN35" data-source-line="70" id="ent0036"><path d="M2988.72,230.9679 L2988.72,258.3799 A9,9 0 0 0 2997.72,267.3799 L3340.9303,267.3799 A9,9 0 0 0 3349.9303,258.3799 L3349.9303,231.9679 L3339.9303,221.9679 L3173.32,221.9679 L3169.32,187.5179 L3165.32,221.9679 L2997.72,221.9679 A9,9 0 0 0 2988.72,230.9679" fill="#FFF7ED" style="stroke:#C2410C;stroke-width:0.5;"/><path d="M3339.9303,221.9679 L3339.9303,227.4679 A4.5,4.5 0 0 0 3344.4303,231.9679 L3349.9303,231.9679 L3339.9303,221.9679" fill="#FFF7ED" style="stroke:#C2410C;stroke-width:0.5;"/><text fill="#7C2D12" font-family="sans-serif" font-size="13" lengthAdjust="spacing" textLength="340.2103" x="2994.72" y="240.8649">This carries the strongest current atom/chemistry layer.</text><text fill="#7C2D12" font-family="sans-serif" font-size="13" lengthAdjust="spacing" textLength="250.3802" x="3039.6351" y="258.5709">It still keeps explicit recovery gates open.</text></g><g class="entity" data-qualified-name="GMN38" data-source-line="75" id="ent0039"><path d="M2409.63,551.9679 L2409.63,579.3799 A9,9 0 0 0 2418.63,588.3799 L2656.8912,588.3799 A9,9 0 0 0 2665.8912,579.3799 L2665.8912,552.9679 L2655.8912,542.9679 L2541.76,542.9679 L2537.76,508.5179 L2533.76,542.9679 L2418.63,542.9679 A9,9 0 0 0 2409.63,551.9679" fill="#FFF7ED" style="stroke:#C2410C;stroke-width:0.5;"/><path d="M2655.8912,542.9679 L2655.8912,548.4679 A4.5,4.5 0 0 0 2660.3912,552.9679 L2665.8912,552.9679 L2655.8912,542.9679" fill="#FFF7ED" style="stroke:#C2410C;stroke-width:0.5;"/><text fill="#7C2D12" font-family="sans-serif" font-size="13" lengthAdjust="spacing" textLength="235.2612" x="2415.63" y="561.8649">Read as "known-limits bridge surface".</text><text fill="#7C2D12" font-family="sans-serif" font-size="13" lengthAdjust="spacing" textLength="215.7872" x="2425.367" y="579.5709">Do not upgrade to full GR recovery.</text></g><g class="entity" data-qualified-name="GMN41" data-source-line="80" id="ent0042"><path d="M2409.63,743.9679 L2409.63,771.3799 A9,9 0 0 0 2418.63,780.3799 L2656.8912,780.3799 A9,9 0 0 0 2665.8912,771.3799 L2665.8912,744.9679 L2655.8912,734.9679 L2541.76,734.9679 L2537.76,700.5179 L2533.76,734.9679 L2418.63,734.9679 A9,9 0 0 0 2409.63,743.9679" fill="#FFF7ED" style="stroke:#C2410C;stroke-width:0.5;"/><path d="M2655.8912,734.9679 L2655.8912,740.4679 A4.5,4.5 0 0 0 2660.3912,744.9679 L2665.8912,744.9679 L2655.8912,734.9679" fill="#FFF7ED" style="stroke:#C2410C;stroke-width:0.5;"/><text fill="#7C2D12" font-family="sans-serif" font-size="13" lengthAdjust="spacing" textLength="235.2612" x="2415.63" y="753.8649">Read as "known-limits bridge surface".</text><text fill="#7C2D12" font-family="sans-serif" font-size="13" lengthAdjust="spacing" textLength="222.3652" x="2422.078" y="771.5709">Do not upgrade to full QFT recovery.</text></g><!--link RealStack to StrongCQ--><g class="link" data-entity-1="ent0002" data-entity-2="ent0003" data-link-type="dependency" data-source-line="40" id="lnk14"><path d="M171.45,407.6679 C224.99,407.6679 290.1,407.6679 350.63,407.6679" fill="none" id="RealStack-to-StrongCQ" style="stroke:#181818;stroke-width:2;"/><polygon fill="#181818" points="356.63,407.6679,347.63,403.6679,351.63,407.6679,347.63,411.6679,356.63,407.6679" style="stroke:#181818;stroke-width:2;"/><text fill="#000000" font-family="sans-serif" font-size="13" lengthAdjust="spacing" textLength="75.8421" x="202.07" y="403.5649">source stack</text></g><!--link StrongCQ to SigBridge--><g class="link" data-entity-1="ent0003" data-entity-2="ent0004" data-link-type="dependency" data-source-line="41" id="lnk15"><path d="M606.56,393.5779 C668.47,386.5479 738.4084,378.5958 805.8584,370.9258" fill="none" id="StrongCQ-to-SigBridge" style="stroke:#181818;stroke-width:2;"/><polygon fill="#181818" points="811.82,370.2479,802.4257,367.2904,806.852,370.8128,803.3296,375.2392,811.82,370.2479" style="stroke:#181818;stroke-width:2;"/><text fill="#000000" font-family="sans-serif" font-size="13" lengthAdjust="spacing" textLength="95.0041" x="686.22" y="369.9649">signature route</text></g><!--link StrongCQ to CliffBridge--><g class="link" data-entity-1="ent0003" data-entity-2="ent0005" data-link-type="dependency" data-source-line="42" id="lnk16"><path d="M606.56,421.2679 C683.11,429.6679 775.0858,439.7536 852.0158,448.1936" fill="none" id="StrongCQ-to-CliffBridge" style="stroke:#181818;stroke-width:2;"/><polygon fill="#181818" points="857.98,448.8479,849.4699,443.8903,853.0098,448.3026,848.5975,451.8426,857.98,448.8479" style="stroke:#181818;stroke-width:2;"/><text fill="#000000" font-family="sans-serif" font-size="13" lengthAdjust="spacing" textLength="94.9391" x="686.72" y="426.1449">quadratic route</text></g><!--link SigBridge to CliffBundle--><g class="link" data-entity-1="ent0004" data-entity-2="ent0006" data-link-type="dependency" data-source-line="43" id="lnk17"><path d="M1157.91,368.7079 C1224.3,375.6679 1293.9528,382.9713 1359.5628,389.8613" fill="none" id="SigBridge-to-CliffBundle" style="stroke:#181818;stroke-width:2;"/><polygon fill="#181818" points="1365.53,390.4879,1356.997,385.5698,1360.5573,389.9657,1356.1615,393.5261,1365.53,390.4879" style="stroke:#181818;stroke-width:2;"/><text fill="#000000" font-family="sans-serif" font-size="13" lengthAdjust="spacing" textLength="146.1591" x="1188.69" y="368.2849">compatible Lorentz side</text></g><!--link CliffBridge to CliffBundle--><g class="link" data-entity-1="ent0005" data-entity-2="ent0006" data-link-type="dependency" data-source-line="44" id="lnk18"><path d="M1111.66,449.9479 C1187.06,442.3179 1277.8305,433.1323 1359.2205,424.8923" fill="none" id="CliffBridge-to-CliffBundle" style="stroke:#181818;stroke-width:2;"/><polygon fill="#181818" points="1365.19,424.2879,1355.8329,421.2148,1360.2154,424.7915,1356.6387,429.1741,1365.19,424.2879" style="stroke:#181818;stroke-width:2;"/><text fill="#000000" font-family="sans-serif" font-size="13" lengthAdjust="spacing" textLength="145.0411" x="1189.19" y="424.5249">compatible Clifford side</text></g><!--link CliffBundle to FullClosure--><g class="link" data-entity-1="ent0006" data-entity-2="ent0007" data-link-type="dependency" data-source-line="45" id="lnk19"><path d="M1695.31,407.6679 C1754.17,407.6679 1813.6,407.6679 1868.77,407.6679" fill="none" id="CliffBundle-to-FullClosure" style="stroke:#181818;stroke-width:2;"/><polygon fill="#181818" points="1874.77,407.6679,1865.77,403.6679,1869.77,407.6679,1865.77,411.6679,1874.77,407.6679" style="stroke:#181818;stroke-width:2;"/><text fill="#000000" font-family="sans-serif" font-size="13" lengthAdjust="spacing" textLength="118.3001" x="1726.13" y="403.5649">canonical assembly</text></g><!--link FullClosure to UnifiedOwner--><g class="link" data-entity-1="ent0007" data-entity-2="ent0008" data-link-type="dependency" data-source-line="46" id="lnk20"><path d="M2129.13,376.9479 C2227.93,352.8879 2356.9304,321.4676 2443.9804,300.2676" fill="none" id="FullClosure-to-UnifiedOwner" style="stroke:#181818;stroke-width:2;"/><polygon fill="#181818" points="2449.81,298.8479,2440.1191,297.0911,2444.952,300.031,2442.0121,304.8639,2449.81,298.8479" style="stroke:#181818;stroke-width:2;"/><text fill="#000000" font-family="sans-serif" font-size="13" lengthAdjust="spacing" textLength="177.7492" x="2159.8" y="323.1049">theorem-owned strong claim</text></g><!--link UnifiedOwner to AdapterOwner--><g class="link" data-entity-1="ent0008" data-entity-2="ent0009" data-link-type="dependency" data-source-line="47" id="lnk21"><path d="M2625.64,286.3679 C2723.97,296.2079 2880.2698,311.8506 3001.7998,324.0106" fill="none" id="UnifiedOwner-to-AdapterOwner" style="stroke:#181818;stroke-width:2;"/><polygon fill="#181818" points="3007.77,324.6079,2999.213,319.7317,3002.7948,324.1101,2998.4165,327.692,3007.77,324.6079" style="stroke:#181818;stroke-width:2;"/><text fill="#000000" font-family="sans-serif" font-size="13" lengthAdjust="spacing" textLength="148.7331" x="2774.22" y="293.9449">abstract/canonical seam</text></g><!--link UnifiedOwner to AtomOwner--><g class="link" data-entity-1="ent0008" data-entity-2="ent0010" data-link-type="dependency" data-source-line="48" id="lnk22"><path d="M2625.64,259.8679 C2733.83,237.6979 2913.5721,200.8723 3037.1421,175.5523" fill="none" id="UnifiedOwner-to-AtomOwner" style="stroke:#181818;stroke-width:2;"/><polygon fill="#181818" points="3043.02,174.3479,3033.4003,172.2359,3038.1218,175.3516,3035.0061,180.0731,3043.02,174.3479" style="stroke:#181818;stroke-width:2;"/><text fill="#000000" font-family="sans-serif" font-size="13" lengthAdjust="spacing" textLength="219.0242" x="2738.72" y="189.9749">atom/chemistry interpretation layer</text></g><!--link FullClosure to MinimalCredible--><g class="link" data-entity-1="ent0007" data-entity-2="ent0011" data-link-type="dependency" data-source-line="49" id="lnk23"><path d="M2046.62,368.7979 C2112.21,312.0779 2241.98,206.3779 2367.8,141.6679 C2379.76,135.5279 2386.96,132.0785 2399.92,126.8885" fill="none" id="FullClosure-to-MinimalCredible" style="stroke:#181818;stroke-width:2;"/><polygon fill="#181818" points="2405.49,124.6579,2395.648,124.2905,2400.8484,126.5167,2398.6221,131.7171,2405.49,124.6579" style="stroke:#181818;stroke-width:2;"/><text fill="#000000" font-family="sans-serif" font-size="13" lengthAdjust="spacing" textLength="173.4462" x="2161.8" y="154.9249">bounded milestone package</text></g><!--link FullClosure to GRBridge--><g class="link" data-entity-1="ent0007" data-entity-2="ent0012" data-link-type="dependency" data-source-line="50" id="lnk24"><path d="M2129.13,422.3279 C2218.68,432.7279 2331.8801,445.8756 2418.2201,455.9056" fill="none" id="FullClosure-to-GRBridge" style="stroke:#181818;stroke-width:2;"/><polygon fill="#181818" points="2424.18,456.5979,2415.7017,451.5861,2419.2134,456.021,2414.7785,459.5327,2424.18,456.5979" style="stroke:#181818;stroke-width:2;"/><text fill="#000000" font-family="sans-serif" font-size="13" lengthAdjust="spacing" textLength="120.6011" x="2188.3" y="421.8849">downstream bridge</text></g><!--link FullClosure to QFTBridge--><g class="link" data-entity-1="ent0007" data-entity-2="ent0013" data-link-type="dependency" data-source-line="51" id="lnk25"><path d="M2066.48,446.6379 C2137.94,489.4079 2258.35,558.2779 2367.8,605.6679 C2384.53,612.9179 2396.8745,617.794 2414.6545,624.094" fill="none" id="FullClosure-to-QFTBridge" style="stroke:#181818;stroke-width:2;"/><polygon fill="#181818" points="2420.31,626.0979,2413.1627,619.3217,2415.5971,624.428,2410.4909,626.8624,2420.31,626.0979" style="stroke:#181818;stroke-width:2;"/><text fill="#000000" font-family="sans-serif" font-size="13" lengthAdjust="spacing" textLength="120.6011" x="2188.3" y="500.2049">downstream bridge</text></g><g class="legend" data-source-line="84"><rect fill="#DDDDDD" height="109.3396" rx="9" ry="9" style="stroke:#000000;stroke-width:1;" width="387.5085" x="2943.4218" y="798.3799"/><text fill="#000000" font-family="sans-serif" font-size="14" font-weight="bold" lengthAdjust="spacing" textLength="36.9179" x="2952.0618" y="820.3459">Color</text><text fill="#000000" font-family="sans-serif" font-size="14" font-weight="bold" lengthAdjust="spacing" textLength="61.1798" x="2996.2596" y="820.3459">Meaning</text><rect fill="#DBEAFE" height="19.0679" style="stroke:none;stroke-width:1;" width="44.1978" x="2948.4218" y="824.4479"/><text fill="#000000" font-family="sans-serif" font-size="14" lengthAdjust="spacing" textLength="3.64" x="2948.4218" y="839.4138">&#160;</text><text fill="#000000" font-family="sans-serif" font-size="14" lengthAdjust="spacing" textLength="44.2258" x="2996.2596" y="839.4138">source</text><rect fill="#DCFCE7" height="19.0679" style="stroke:none;stroke-width:1;" width="44.1978" x="2948.4218" y="843.5158"/><text fill="#000000" font-family="sans-serif" font-size="14" lengthAdjust="spacing" textLength="3.64" x="2948.4218" y="858.4817">&#160;</text><text fill="#000000" font-family="sans-serif" font-size="14" lengthAdjust="spacing" textLength="171.3313" x="2996.2596" y="858.4817">proved / theorem-bearing</text><rect fill="#FEF3C7" height="19.0679" style="stroke:none;stroke-width:1;" width="44.1978" x="2948.4218" y="862.5837"/><text fill="#000000" font-family="sans-serif" font-size="14" lengthAdjust="spacing" textLength="3.64" x="2948.4218" y="877.5496">&#160;</text><text fill="#000000" font-family="sans-serif" font-size="14" lengthAdjust="spacing" textLength="326.0307" x="2996.2596" y="877.5496">canonical packaging / theorem owner / milestone</text><rect fill="#FEE2E2" height="19.0679" style="stroke:none;stroke-width:1;" width="44.1978" x="2948.4218" y="881.6516"/><text fill="#000000" font-family="sans-serif" font-size="14" lengthAdjust="spacing" textLength="3.64" x="2948.4218" y="896.6176">&#160;</text><text fill="#000000" font-family="sans-serif" font-size="14" lengthAdjust="spacing" textLength="252.069" x="2996.2596" y="896.6176">downstream bridge, not final recovery</text><line style="stroke:#000000;stroke-width:1;" x1="2948.4218" x2="3325.9303" y1="805.3799" y2="805.3799"/><line style="stroke:#000000;stroke-width:1;" x1="2948.4218" x2="3325.9303" y1="824.4479" y2="824.4479"/><line style="stroke:#000000;stroke-width:1;" x1="2948.4218" x2="3325.9303" y1="843.5158" y2="843.5158"/><line style="stroke:#000000;stroke-width:1;" x1="2948.4218" x2="3325.9303" y1="862.5837" y2="862.5837"/><line style="stroke:#000000;stroke-width:1;" x1="2948.4218" x2="3325.9303" y1="881.6516" y2="881.6516"/><line style="stroke:#000000;stroke-width:1;" x1="2948.4218" x2="3325.9303" y1="900.7195" y2="900.7195"/><line style="stroke:#000000;stroke-width:1;" x1="2948.4218" x2="2948.4218" y1="805.3799" y2="900.7195"/><line style="stroke:#000000;stroke-width:1;" x1="2992.6197" x2="2992.6197" y1="805.3799" y2="900.7195"/><line style="stroke:#000000;stroke-width:1;" x1="3325.9303" x2="3325.9303" y1="805.3799" y2="900.7195"/></g><?plantuml-src fLVRRXit47tVhnWuZxMjM4xWG4W2E2eS64tGs7AVx3nGt5c9y2wv9IahQjr_x_2oNAua2xq0GR0YpymPacSEQIjiZJ1bKad1MGtVj58Lp5eXiQYnic0LQB5OMYY5Hcw5aaLX7eLicMODc2KhrLh81LIiDfZDQBMI9LTQeeQpTzb4o_WZM-3CReZOfMHoKUUH9LPiLTix_64lQx6G3KeBdFv3dQ4kjLRhkwNWZnADWN6nIm5_5W2Vw7lXYvcgMcbuLRshMCNTZD8bwZXwVlxcxErR6hrIqiQnrzNPnPWLV-MfKy4X-Nz98PLzgRIgki1oEoyVlpbxpOTvB_YuF1kxl7r1HxT81sWiPGMZLfhZWvmgoJLQdDRAh3HjEaq-oFjAwSPXFUhx4J03BjXFmwjoZgp2FFFCQaLd_FkAbPfPmO4IS3frJs0ryxgueZ4qDnqcn11PgzKJbjyVv2N1dX0CicOqLvQ49v7uQhP1xMi88TCRAe5N72_o4hueJHBu0qPWI1FCqcfWhaMvm44HYVvEpJhS9m-xMoAbQ591y5EC3-idTC3j8v_Meg8bbuane-dc_X6B1n_WINt8-oN1oKVe2o2rr6x97J9R-ykry9IN6OFDlDxavVYKf3wiplcWdAjLJPK4wO2G92tfHFLjkJ62cwWf1xfES_TyfRLls7ufCK7ioi3iecA2VSo_IL49sZqRbW1gJJxo8EDmBA1Vdmdwv3KJ4HjO8lvNDxAFvd9k_EQD-cgTEZkwoEEpS1QtE6rygFwoPArru7iMleOrXpeYwEKwh6f6V8cDe7espcH8E_J1cTR29NS0mQSTuZO2ChNvpNL6t0bkm4_XBv9_5L8uDo2ZACMSHkA1FSWuCuqJmtEVBKLbznny8seqLibuq5ivzXNmYwHIJshH26lWysrgCZ_-nGz_ljsMT00TEpU5okcqsxH0smKuFXpZ-4M-cwkxVOGq_2yPKqIYB7fFFQ4UJkusYSORlBf8unwKR6YI6HrT4XQ7mDn99fapHsXAqsD3cq_8MfgMeEumEbCreiGYptWmAfbH5XPWBYplx0diEa-H0rp0e4adNVkSEFaIHTRPnG3fGWTzDG6slvttnAL-eA1XxmdtpcZfplJz7YwddPAtHJs1kRl6gTwa_ixkTcAJCYT0JoVg7-qS9uXh1zoBQX-wy4y9grfmRxQeZkAw0aRQPFI2W3MJf77QKkZQCrxzuJtbuXQQFGcxEIv8ZTh24ecQLT78N9xXc-Aqe4UN0Vgtzb3lboI_cd8GK51VDCnIk8566NjQe2pzaoTMwov-rJZYhKrCUHtjd3OHTXobszDZbueMML46iwHTN-NNnUO0Pww4hOKusgWsZQqweTPphvLmfzJqQIZb-hIufgUmyZyie6O6upurZAgXuDQ_e1VCeZbGI59Wg28OlScAo3TWIw9UaxwGiD-FYAq1_D7MWWlRtnw-1b0joWE5T79qPbKw7pjwpEqntYKao8fnF3ejVbP-vQkMT5CwyGKl9DlkU0-G9Jd_JpPdslleQbou7_uFbkBv0uJNCdryHUOFvxbuVX_Vjn-VEniEW_unHeFntJPAHaHedMB3xKMmtcBwgtSqlFlfTo_T6Eqk1ehUwULuhGZ9-dk5Oj3PgbjJyJS0?></g></svg>