<?plantuml 1.2026.2?><svg xmlns="http://www.w3.org/2000/svg" xmlns:xlink="http://www.w3.org/1999/xlink" contentStyleType="text/css" data-diagram-type="DESCRIPTION" height="767px" preserveAspectRatio="none" style="width:1442px;height:767px;background:#FFFFFF;" version="1.1" viewBox="0 0 1442 767" width="1442px" zoomAndPan="magnify"><title>Observable Signature Gauge Entry Round</title><defs/><g><g class="title" data-source-line="1"><text fill="#000000" font-family="sans-serif" font-size="14" font-weight="bold" lengthAdjust="spacing" textLength="288.9869" x="569.6681" y="24.9659">Observable Signature Gauge Entry Round</text></g><!--entity L0--><g class="entity" data-qualified-name="L0" data-source-line="5" id="ent0002"><rect fill="#F1F1F1" height="58.1358" rx="2.5" ry="2.5" style="stroke:#181818;stroke-width:0.5;" width="139.4895" x="1056.54" y="47.0679"/><text fill="#000000" font-family="sans-serif" font-size="14" lengthAdjust="spacing" textLength="119.4895" x="1066.54" y="72.0339">Arithmetic budget</text><text fill="#000000" font-family="sans-serif" font-size="14" lengthAdjust="spacing" textLength="56.3078" x="1066.54" y="91.1018">L0(state)</text></g><!--entity DQ--><g class="entity" data-qualified-name="DQ" data-source-line="6" id="ent0003"><rect fill="#F1F1F1" height="58.1358" rx="2.5" ry="2.5" style="stroke:#181818;stroke-width:0.5;" width="251.7411" x="1000.41" y="184.1979"/><text fill="#000000" font-family="sans-serif" font-size="14" lengthAdjust="spacing" textLength="134.0355" x="1010.41" y="209.1639">Delta to Q distortion</text><text fill="#000000" font-family="sans-serif" font-size="14" lengthAdjust="spacing" textLength="231.7411" x="1010.41" y="228.2318">weightedSupport + trackedSupport</text></g><!--entity Sig--><g class="entity" data-qualified-name="Sig" data-source-line="7" id="ent0004"><rect fill="#F1F1F1" height="58.1358" rx="2.5" ry="2.5" style="stroke:#181818;stroke-width:0.5;" width="253.2391" x="863.66" y="321.3379"/><text fill="#000000" font-family="sans-serif" font-size="14" lengthAdjust="spacing" textLength="106.2876" x="873.66" y="346.3039">Signature stress</text><text fill="#000000" font-family="sans-serif" font-size="14" lengthAdjust="spacing" textLength="233.2391" x="873.66" y="365.3718">forced / conditional / blocked / held</text></g><!--entity Obs--><g class="entity" data-qualified-name="Obs" data-source-line="8" id="ent0005"><rect fill="#F1F1F1" height="58.1358" rx="2.5" ry="2.5" style="stroke:#181818;stroke-width:0.5;" width="219.7372" x="210.41" y="321.3379"/><text fill="#000000" font-family="sans-serif" font-size="14" lengthAdjust="spacing" textLength="173.6694" x="220.41" y="346.3039">Observable transport gate</text><text fill="#000000" font-family="sans-serif" font-size="14" lengthAdjust="spacing" textLength="199.7372" x="220.41" y="365.3718">admissible + stable + coherent</text></g><!--entity Test--><g class="entity" data-qualified-name="Test" data-source-line="9" id="ent0006"><rect fill="#F1F1F1" height="58.1358" rx="2.5" ry="2.5" style="stroke:#181818;stroke-width:0.5;" width="165.0255" x="237.77" y="458.4779"/><text fill="#000000" font-family="sans-serif" font-size="14" lengthAdjust="spacing" textLength="145.0255" x="247.77" y="483.4439">Pressure test instance</text><text fill="#000000" font-family="sans-serif" font-size="14" lengthAdjust="spacing" textLength="127.0495" x="247.77" y="502.5118">canonical singleton</text></g><!--entity ShiftTest--><g class="entity" data-qualified-name="ShiftTest" data-source-line="10" id="ent0007"><rect fill="#F1F1F1" height="58.1358" rx="2.5" ry="2.5" style="stroke:#181818;stroke-width:0.5;" width="188.9514" x="437.8" y="458.4779"/><text fill="#000000" font-family="sans-serif" font-size="14" lengthAdjust="spacing" textLength="119.8396" x="447.8" y="483.4439">Shift pressure test</text><text fill="#000000" font-family="sans-serif" font-size="14" lengthAdjust="spacing" textLength="168.9514" x="447.8" y="502.5118">pointwise pressure status</text></g><!--entity Gauge--><g class="entity" data-qualified-name="Gauge" data-source-line="11" id="ent0008"><rect fill="#F1F1F1" height="58.1358" rx="2.5" ry="2.5" style="stroke:#181818;stroke-width:0.5;" width="129.1016" x="89.73" y="595.6079"/><text fill="#000000" font-family="sans-serif" font-size="14" lengthAdjust="spacing" textLength="81.3677" x="99.73" y="620.5739">Gauge entry</text><text fill="#000000" font-family="sans-serif" font-size="14" lengthAdjust="spacing" textLength="109.1016" x="99.73" y="639.6418">fiber/action laws</text></g><!--entity Exec--><g class="entity" data-qualified-name="Exec" data-source-line="12" id="ent0009"><rect fill="#F1F1F1" height="58.1358" rx="2.5" ry="2.5" style="stroke:#181818;stroke-width:0.5;" width="201.4813" x="661.54" y="458.4779"/><text fill="#000000" font-family="sans-serif" font-size="14" lengthAdjust="spacing" textLength="181.4813" x="671.54" y="483.4439">Canonical execution receipt</text><text fill="#000000" font-family="sans-serif" font-size="14" lengthAdjust="spacing" textLength="81.5357" x="671.54" y="502.5118">identity step</text></g><!--entity ShiftExec--><g class="entity" data-qualified-name="ShiftExec" data-source-line="13" id="ent0010"><rect fill="#F1F1F1" height="58.1358" rx="2.5" ry="2.5" style="stroke:#181818;stroke-width:0.5;" width="195.6433" x="898.46" y="458.4779"/><text fill="#000000" font-family="sans-serif" font-size="14" lengthAdjust="spacing" textLength="175.6433" x="908.46" y="483.4439">Live shift execution receipt</text><text fill="#000000" font-family="sans-serif" font-size="14" lengthAdjust="spacing" textLength="110.0396" x="908.46" y="502.5118">trajectory i0 -&gt; i1</text></g><!--entity Receipt--><g class="entity" data-qualified-name="Receipt" data-source-line="14" id="ent0011"><rect fill="#F1F1F1" height="58.1358" rx="2.5" ry="2.5" style="stroke:#181818;stroke-width:0.5;" width="272.517" x="626.02" y="595.6079"/><text fill="#000000" font-family="sans-serif" font-size="14" lengthAdjust="spacing" textLength="97.2156" x="636.02" y="620.5739">Physics receipt</text><text fill="#000000" font-family="sans-serif" font-size="14" lengthAdjust="spacing" textLength="252.517" x="636.02" y="639.6418">execution + statuses + support budget</text></g><g class="entity" data-qualified-name="GMN26" data-source-line="32" id="ent0027"><path d="M6,714.7479 L6,760.1599 A0,0 0 0 0 6,760.1599 L302.5612,760.1599 A0,0 0 0 0 302.5612,760.1599 L302.5612,724.7479 L292.5612,714.7479 L158.28,714.7479 L154.28,654.2079 L150.28,714.7479 L6,714.7479 A0,0 0 0 0 6,714.7479" fill="#FEFFDD" style="stroke:#181818;stroke-width:0.5;"/><path d="M292.5612,714.7479 L292.5612,724.7479 L302.5612,724.7479 L292.5612,714.7479" fill="#FEFFDD" style="stroke:#181818;stroke-width:0.5;"/><text fill="#000000" font-family="sans-serif" font-size="13" lengthAdjust="spacing" textLength="79.0921" x="12" y="733.6449">G is abstract.</text><text fill="#000000" font-family="sans-serif" font-size="13" lengthAdjust="spacing" textLength="275.5612" x="12" y="751.3509">No Standard Model or matter recovery claim.</text></g><!--link L0 to DQ--><g class="link" data-entity-1="ent0002" data-entity-2="ent0003" data-link-type="dependency" data-source-line="16" id="lnk12"><path d="M1126.28,105.4679 C1126.28,128.5279 1126.28,154.9279 1126.28,177.9779" fill="none" id="L0-to-DQ" style="stroke:#181818;stroke-width:1;"/><polygon fill="#181818" points="1126.28,183.9779,1130.28,174.9779,1126.28,178.9779,1122.28,174.9779,1126.28,183.9779" style="stroke:#181818;stroke-width:1;"/><text fill="#000000" font-family="sans-serif" font-size="13" lengthAdjust="spacing" textLength="78.6631" x="1127.28" y="150.0949">finite budget</text></g><!--link DQ to Sig--><g class="link" data-entity-1="ent0003" data-entity-2="ent0004" data-link-type="dependency" data-source-line="17" id="lnk13"><path d="M1097.77,242.5979 C1074.56,265.6679 1046.2055,293.8281 1023.0055,316.8881" fill="none" id="DQ-to-Sig" style="stroke:#181818;stroke-width:1;"/><polygon fill="#181818" points="1018.75,321.1179,1027.953,317.6102,1022.2962,317.5931,1022.3133,311.9363,1018.75,321.1179" style="stroke:#181818;stroke-width:1;"/><text fill="#000000" font-family="sans-serif" font-size="13" lengthAdjust="spacing" textLength="137.2021" x="1067.42" y="287.2349">controlled carrier path</text></g><!--link Sig to Test--><g class="link" data-entity-1="ent0004" data-entity-2="ent0006" data-link-type="dependency" data-source-line="18" id="lnk14"><path d="M863.28,379.3779 C791.29,394.7979 699.45,413.7379 617.28,428.4779 C530.11,444.1079 506.86,439.8079 420.28,458.4779 C414.64,459.6879 414.6744,459.5968 408.8544,461.0368" fill="none" id="Sig-to-Test" style="stroke:#181818;stroke-width:1;"/><polygon fill="#181818" points="403.03,462.4779,412.7273,464.1992,407.8836,461.277,410.8058,456.4334,403.03,462.4779" style="stroke:#181818;stroke-width:1;"/><text fill="#000000" font-family="sans-serif" font-size="13" lengthAdjust="spacing" textLength="100.9841" x="710.69" y="424.3749">signature forced</text></g><!--link Obs to Test--><g class="link" data-entity-1="ent0005" data-entity-2="ent0006" data-link-type="dependency" data-source-line="19" id="lnk15"><path d="M320.28,379.7379 C320.28,402.7979 320.28,429.1979 320.28,452.2479" fill="none" id="Obs-to-Test" style="stroke:#181818;stroke-width:1;"/><polygon fill="#181818" points="320.28,458.2479,324.28,449.2479,320.28,453.2479,316.28,449.2479,320.28,458.2479" style="stroke:#181818;stroke-width:1;"/><text fill="#000000" font-family="sans-serif" font-size="13" lengthAdjust="spacing" textLength="110.0191" x="321.28" y="424.3749">observable forced</text></g><!--link Sig to ShiftTest--><g class="link" data-entity-1="ent0004" data-entity-2="ent0007" data-link-type="dependency" data-source-line="20" id="lnk16"><path d="M942.01,379.7979 C911.73,396.4079 871.34,416.4079 833.28,428.4779 C752.2,454.1679 727.61,441.4579 644.28,458.4779 C638.68,459.6179 638.7959,459.551 633.0159,460.841" fill="none" id="Sig-to-ShiftTest" style="stroke:#181818;stroke-width:1;"/><polygon fill="#181818" points="627.16,462.1479,636.8152,464.0915,632.0399,461.0588,635.0726,456.2835,627.16,462.1479" style="stroke:#181818;stroke-width:1;"/><text fill="#000000" font-family="sans-serif" font-size="13" lengthAdjust="spacing" textLength="168.9092" x="883.49" y="424.3749">promotion-ready endpoints</text></g><!--link Obs to ShiftTest--><g class="link" data-entity-1="ent0005" data-entity-2="ent0007" data-link-type="dependency" data-source-line="21" id="lnk17"><path d="M386.64,379.9179 C404.54,388.5679 423.57,398.6679 440.28,409.4779 C462.33,423.7279 480.4938,438.6113 497.7938,454.1313" fill="none" id="Obs-to-ShiftTest" style="stroke:#181818;stroke-width:1;"/><polygon fill="#181818" points="502.26,458.1379,498.2318,449.1505,498.5382,454.799,492.8896,455.1054,502.26,458.1379" style="stroke:#181818;stroke-width:1;"/><text fill="#000000" font-family="sans-serif" font-size="13" lengthAdjust="spacing" textLength="143.8061" x="465.41" y="424.3749">held/control separation</text></g><!--link Test to Gauge--><g class="link" data-entity-1="ent0006" data-entity-2="ent0008" data-link-type="dependency" data-source-line="22" id="lnk18"><path d="M237.71,512.2479 C197.66,524.5779 156.94,538.6879 151.28,546.6079 C141.4,560.4479 140.8696,573.6472 144.0496,589.3572" fill="none" id="Test-to-Gauge" style="stroke:#181818;stroke-width:1;"/><polygon fill="#181818" points="145.24,595.2379,147.3749,585.6232,144.248,590.3373,139.534,587.2104,145.24,595.2379" style="stroke:#181818;stroke-width:1;"/><text fill="#000000" font-family="sans-serif" font-size="13" lengthAdjust="spacing" textLength="188.5912" x="152.28" y="561.5049">minimal entry, no matter claim</text></g><!--link Exec to Receipt--><g class="link" data-entity-1="ent0009" data-entity-2="ent0011" data-link-type="dependency" data-source-line="23" id="lnk19"><path d="M762.28,516.8679 C762.28,539.9379 762.28,566.3279 762.28,589.3879" fill="none" id="Exec-to-Receipt" style="stroke:#181818;stroke-width:1;"/><polygon fill="#181818" points="762.28,595.3879,766.28,586.3879,762.28,590.3879,758.28,586.3879,762.28,595.3879" style="stroke:#181818;stroke-width:1;"/><text fill="#000000" font-family="sans-serif" font-size="13" lengthAdjust="spacing" textLength="144.3781" x="763.28" y="561.5049">admissible identity step</text></g><!--link ShiftExec to Receipt--><g class="link" data-entity-1="ent0010" data-entity-2="ent0011" data-link-type="dependency" data-source-line="24" id="lnk20"><path d="M972.28,516.8079 C957.46,532.8479 937.31,552.3179 916.28,565.6079 C897.92,577.2079 882.4717,584.8468 861.9817,592.9268" fill="none" id="ShiftExec-to-Receipt" style="stroke:#181818;stroke-width:1;"/><polygon fill="#181818" points="856.4,595.1279,866.2399,595.5474,861.0514,593.2937,863.3052,588.1052,856.4,595.1279" style="stroke:#181818;stroke-width:1;"/><text fill="#000000" font-family="sans-serif" font-size="13" lengthAdjust="spacing" textLength="125.0731" x="941.63" y="561.5049">admissible shift step</text></g><!--link Test to Receipt--><g class="link" data-entity-1="ent0006" data-entity-2="ent0011" data-link-type="dependency" data-source-line="25" id="lnk21"><path d="M353.02,516.9779 C374.03,533.7079 402.64,553.8279 431.28,565.6079 C492.52,590.7979 558.5717,604.2823 619.7517,612.3623" fill="none" id="Test-to-Receipt" style="stroke:#181818;stroke-width:1;"/><polygon fill="#181818" points="625.7,613.1479,617.3012,608.004,620.743,612.4933,616.2537,615.9351,625.7,613.1479" style="stroke:#181818;stroke-width:1;"/><text fill="#000000" font-family="sans-serif" font-size="13" lengthAdjust="spacing" textLength="122.7981" x="432.28" y="561.5049">promotion evidence</text></g><!--link ShiftTest to Receipt--><g class="link" data-entity-1="ent0007" data-entity-2="ent0011" data-link-type="dependency" data-source-line="26" id="lnk22"><path d="M543.97,517.0279 C551.98,533.3479 564.11,553.0279 580.28,565.6079 C595.99,577.8279 608.7706,585.2612 627.6406,592.9212" fill="none" id="ShiftTest-to-Receipt" style="stroke:#181818;stroke-width:1;"/><polygon fill="#181818" points="633.2,595.1779,626.3654,588.0865,628.5672,593.2973,623.3564,595.499,633.2,595.1779" style="stroke:#181818;stroke-width:1;"/><text fill="#000000" font-family="sans-serif" font-size="13" lengthAdjust="spacing" textLength="172.9131" x="581.28" y="561.5049">shift-backed status evidence</text></g><!--link DQ to Receipt--><g class="link" data-entity-1="ent0003" data-entity-2="ent0011" data-link-type="dependency" data-source-line="27" id="lnk23"><path d="M1185,242.6379 C1196.14,250.6979 1206.44,260.5579 1213.28,272.3379 C1267.87,366.3579 1285.94,425.7179 1226.28,516.6079 C1190.47,571.1679 1028.3249,598.5098 904.7149,611.9398" fill="none" id="DQ-to-Receipt" style="stroke:#181818;stroke-width:1;"/><polygon fill="#181818" points="898.75,612.5879,908.1294,615.5924,903.7207,612.0479,907.2653,607.6392,898.75,612.5879" style="stroke:#181818;stroke-width:1;"/><text fill="#000000" font-family="sans-serif" font-size="13" lengthAdjust="spacing" textLength="169.9232" x="1264.4" y="424.3749">pair support decomposition</text></g><!--link Obs to Receipt--><g class="link" data-entity-1="ent0005" data-entity-2="ent0011" data-link-type="dependency" data-source-line="28" id="lnk24"><path d="M215.5,379.9579 C176.39,396.2579 136,421.1479 113.28,458.4779 C87.96,500.0779 96.43,537.6179 136.28,565.6079 C175.36,593.0479 447.5466,609.8276 619.6666,617.8776" fill="none" id="Obs-to-Receipt" style="stroke:#181818;stroke-width:1;"/><polygon fill="#181818" points="625.66,618.1579,616.8567,613.7418,620.6655,617.9243,616.483,621.7331,625.66,618.1579" style="stroke:#181818;stroke-width:1;"/><text fill="#000000" font-family="sans-serif" font-size="13" lengthAdjust="spacing" textLength="105.4431" x="114.28" y="492.9349">observableStatus</text></g><!--link Sig to Receipt--><g class="link" data-entity-1="ent0004" data-entity-2="ent0011" data-link-type="dependency" data-source-line="29" id="lnk25"><path d="M1039.91,379.9479 C1066.72,398.4679 1097.15,425.3179 1111.28,458.4779 C1130.97,504.6879 1117.83,538.9179 1075.28,565.6079 C1045.67,584.1879 974.8421,597.7564 904.7421,607.5664" fill="none" id="Sig-to-Receipt" style="stroke:#181818;stroke-width:1;"/><polygon fill="#181818" points="898.8,608.3979,908.2675,611.112,903.7517,607.705,907.1588,603.1892,898.8,608.3979" style="stroke:#181818;stroke-width:1;"/><text fill="#000000" font-family="sans-serif" font-size="13" lengthAdjust="spacing" textLength="96.4081" x="1121.23" y="492.9349">signatureStatus</text></g><?plantuml-src TLJBSjim3BppAp0vjPFcqMiEdUaqcLpSDebxz8KYOGkDH6f8oAd_lW2bI4oclT72xXB0Bit47SBF9cCwsaQEMpe4osD2kBVZ0U4kS3h1Kno3DoO_KnXiiZsus0ynOE0jduILqB4DXmwDMIfmzZKHjpqoEMX6Vq3UXStrXyoMyUCPs0oRwnf-YnrRu0YFu2bpJ4mnxC8Bqg5bzDjn6EGRd0CdwvwN3qNfzh5MMeV8d33dNTZ7vD33bJGUFAcmxUHNqqLLabEBdIzAmgsbgjN8jI6N5WuomIvOtrFEfALpkSXE1nTRJ48jOiAknHwq6MsBCJDG459mekHiY86Sj9H9jyWn5FelWRsPgwKzmr2hxC8GAV0BPLmBkk8nJ-CevRtEP2sgjR8QQZ1TMQTBWSw-JBm2gJdVbXxn3xgneCLsf45w82yOufFSZ4FXtmcefc_eA7sL_l_1bzN-bWX5YHfTmyKNeCzhz--b7jfJ9fTNzYfuFe-EMOzpOARi5RsdYMBCHcwHQsuVuGRs58XnXXdvf1M9WPGaBPnYrqb4d4s9CC5WkJLQLPGkLc1voTkKCoE-r_MuXcW6l0eizWXgIB6FEiP5GkjFueyltkP5haPhOA_c_Y2ZFalbcb9My6Jo3VGoNg-sgTsV84JeBRDCuZfBlT7j5loy6s5KmNvZh5di-3zXihYWbqvMu38Yu56b7PfrfhVG8dJHb9S-kxgIPfCgOKjfCTnZIKikxtnPtWfUxTWMtSMDwlPNHsU42L4Z4fbZ3t4_Fuzxe0osoVg7n9VcHmI11s-JX-_HOmSnlIvRmXgFAFakMxyqOYweflaB?></g></svg>