<?plantuml 1.2026.2?><svg xmlns="http://www.w3.org/2000/svg" xmlns:xlink="http://www.w3.org/1999/xlink" contentStyleType="text/css" data-diagram-type="DESCRIPTION" height="1133px" preserveAspectRatio="none" style="width:2405px;height:1133px;background:#FFFFFF;" version="1.1" viewBox="0 0 2405 1133" width="2405px" zoomAndPan="magnify"><title>Present State -&gt; Solved Unification</title><defs/><g><g class="title" data-source-line="1"><text fill="#000000" font-family="sans-serif" font-size="14" font-weight="bold" lengthAdjust="spacing" textLength="240.5611" x="1074.2006" y="24.9659">Present State -&gt; Solved Unification</text></g><!--cluster 1. Physical reality to explain--><g class="cluster" data-qualified-name="1. Physical reality to explain" data-source-line="28" id="ent0002"><rect fill="#FFFFFF" height="468" rx="9" ry="9" style="stroke:#334155;stroke-width:1;" width="227.22" x="7" y="191.4779"/><text fill="#0F172A" font-family="sans-serif" font-size="14" font-weight="bold" lengthAdjust="spacing" textLength="194.6833" x="23.2684" y="208.4439">1. Physical reality to explain</text></g><!--cluster 2. Standard successful formalisms--><g class="cluster" data-qualified-name="2. Standard successful formalisms" data-source-line="35" id="ent0007"><rect fill="#FFFFFF" height="356" rx="9" ry="9" style="stroke:#334155;stroke-width:1;" width="314.03" x="439.22" y="247.4779"/><text fill="#0F172A" font-family="sans-serif" font-size="14" font-weight="bold" lengthAdjust="spacing" textLength="236.6831" x="477.8935" y="264.4439">2. Standard successful formalisms</text></g><!--cluster 3. Current DASHI correspondences--><g class="cluster" data-qualified-name="3. Current DASHI correspondences" data-source-line="41" id="ent0011"><rect fill="#FFFFFF" height="639" rx="9" ry="9" style="stroke:#334155;stroke-width:1;" width="493.2" x="1000.25" y="142.4779"/><text fill="#0F172A" font-family="sans-serif" font-size="14" font-weight="bold" lengthAdjust="spacing" textLength="240.2951" x="1126.7025" y="159.4439">3. Current DASHI correspondences</text></g><!--cluster 4. Missing steps to a serious unification claim--><g class="cluster" data-qualified-name="4. Missing steps to a serious unification claim" data-source-line="48" id="ent0016"><rect fill="#FFFFFF" height="862" rx="9" ry="9" style="stroke:#334155;stroke-width:1;" width="480.36" x="1526.45" y="87.4779"/><text fill="#0F172A" font-family="sans-serif" font-size="14" font-weight="bold" lengthAdjust="spacing" textLength="315.5868" x="1608.8366" y="104.4439">4. Missing steps to a serious unification claim</text></g><!--cluster 5. Solved unification--><g class="cluster" data-qualified-name="5. Solved unification" data-source-line="58" id="ent0024"><rect fill="#FFFFFF" height="150" rx="9" ry="9" style="stroke:#334155;stroke-width:1;" width="301.37" x="2074.2" y="331.4779"/><text fill="#0F172A" font-family="sans-serif" font-size="14" font-weight="bold" lengthAdjust="spacing" textLength="140.7695" x="2154.5003" y="348.4439">5. Solved unification</text></g><!--entity RealityLight--><g class="entity" data-qualified-name="1. Physical reality to explain.RealityLight" data-source-line="29" id="ent0003"><rect fill="#DBEAFE" height="77.2038" rx="9" ry="9" style="stroke:#334155;stroke-width:0.5;" width="166.4114" x="37.41" y="341.8779"/><text fill="#0F172A" font-family="sans-serif" font-size="14" lengthAdjust="spacing" textLength="125.1595" x="58.0359" y="366.8439">Light and radiation</text><text fill="#0F172A" font-family="sans-serif" font-size="14" lengthAdjust="spacing" textLength="146.4114" x="47.41" y="385.9118">photons, interference,</text><text fill="#0F172A" font-family="sans-serif" font-size="14" lengthAdjust="spacing" textLength="115.3316" x="62.9499" y="404.9797">scattering signals</text></g><!--entity RealityAtoms--><g class="entity" data-qualified-name="1. Physical reality to explain.RealityAtoms" data-source-line="30" id="ent0004"><rect fill="#DBEAFE" height="77.2038" rx="9" ry="9" style="stroke:#334155;stroke-width:0.5;" width="188.9934" x="26.11" y="229.8779"/><text fill="#0F172A" font-family="sans-serif" font-size="14" lengthAdjust="spacing" textLength="139.3135" x="50.9499" y="254.8439">Atoms and chemistry</text><text fill="#0F172A" font-family="sans-serif" font-size="14" lengthAdjust="spacing" textLength="168.9934" x="36.11" y="273.9118">electrons, atomic spectra,</text><text fill="#0F172A" font-family="sans-serif" font-size="14" lengthAdjust="spacing" textLength="124.0675" x="58.5729" y="292.9797">bonding, materials</text></g><!--entity RealityNuclear--><g class="entity" data-qualified-name="1. Physical reality to explain.RealityNuclear" data-source-line="31" id="ent0005"><rect fill="#DBEAFE" height="77.2038" rx="9" ry="9" style="stroke:#334155;stroke-width:0.5;" width="195.2233" x="23" y="453.8779"/><text fill="#0F172A" font-family="sans-serif" font-size="14" lengthAdjust="spacing" textLength="174.4533" x="33.385" y="478.8439">Nuclei and particle physics</text><text fill="#0F172A" font-family="sans-serif" font-size="14" lengthAdjust="spacing" textLength="175.2233" x="33" y="497.9118">protons, neutrons, quarks,</text><text fill="#0F172A" font-family="sans-serif" font-size="14" lengthAdjust="spacing" textLength="147.3634" x="46.93" y="516.9797">gluons, collider events</text></g><!--entity RealityGravity--><g class="entity" data-qualified-name="1. Physical reality to explain.RealityGravity" data-source-line="32" id="ent0006"><rect fill="#DBEAFE" height="77.2038" rx="9" ry="9" style="stroke:#334155;stroke-width:0.5;" width="171.9274" x="34.65" y="565.8779"/><text fill="#0F172A" font-family="sans-serif" font-size="14" lengthAdjust="spacing" textLength="145.9774" x="47.625" y="590.8439">Spacetime and gravity</text><text fill="#0F172A" font-family="sans-serif" font-size="14" lengthAdjust="spacing" textLength="121.9955" x="59.6159" y="609.9118">motion, curvature,</text><text fill="#0F172A" font-family="sans-serif" font-size="14" lengthAdjust="spacing" textLength="151.9274" x="44.65" y="628.9797">black holes, cosmology</text></g><!--entity FormalQM--><g class="entity" data-qualified-name="2. Standard successful formalisms.FormalQM" data-source-line="36" id="ent0008"><rect fill="#DCFCE7" height="77.2038" rx="9" ry="9" style="stroke:#334155;stroke-width:0.5;" width="190.9673" x="500.75" y="285.8779"/><text fill="#0F172A" font-family="sans-serif" font-size="14" lengthAdjust="spacing" textLength="136.4295" x="528.0189" y="310.8439">Quantum mechanics</text><text fill="#0F172A" font-family="sans-serif" font-size="14" lengthAdjust="spacing" textLength="170.9673" x="510.75" y="329.9118">wavefunctions, operators,</text><text fill="#0F172A" font-family="sans-serif" font-size="14" lengthAdjust="spacing" textLength="86.4496" x="553.0089" y="348.9797">energy levels</text></g><!--entity FormalQFT--><g class="entity" data-qualified-name="2. Standard successful formalisms.FormalQFT" data-source-line="37" id="ent0009"><rect fill="#DCFCE7" height="77.2038" rx="9" ry="9" style="stroke:#334155;stroke-width:0.5;" width="282.023" x="455.22" y="397.8779"/><text fill="#0F172A" font-family="sans-serif" font-size="14" lengthAdjust="spacing" textLength="262.023" x="465.22" y="422.8439">Quantum field theory + Standard Model</text><text fill="#0F172A" font-family="sans-serif" font-size="14" lengthAdjust="spacing" textLength="139.2715" x="526.5958" y="441.9118">fields, gauge bosons,</text><text fill="#0F172A" font-family="sans-serif" font-size="14" lengthAdjust="spacing" textLength="144.4794" x="523.9918" y="460.9797">fermions, interactions</text></g><!--entity FormalGR--><g class="entity" data-qualified-name="2. Standard successful formalisms.FormalGR" data-source-line="38" id="ent0010"><rect fill="#DCFCE7" height="77.2038" rx="9" ry="9" style="stroke:#334155;stroke-width:0.5;" width="208.8873" x="491.79" y="509.8779"/><text fill="#0F172A" font-family="sans-serif" font-size="14" lengthAdjust="spacing" textLength="112.2516" x="540.1078" y="534.8439">General relativity</text><text fill="#0F172A" font-family="sans-serif" font-size="14" lengthAdjust="spacing" textLength="119.4335" x="536.5169" y="553.9118">Lorentzian metric,</text><text fill="#0F172A" font-family="sans-serif" font-size="14" lengthAdjust="spacing" textLength="188.8873" x="501.79" y="572.9797">curvature, Einstein dynamics</text></g><!--entity DashiSpine--><g class="entity" data-qualified-name="3. Current DASHI correspondences.DashiSpine" data-source-line="42" id="ent0012"><rect fill="#FEF3C7" height="134.4075" rx="9" ry="9" style="stroke:#334155;stroke-width:0.5;" width="355.9847" x="1068.86" y="631.2779"/><text fill="#0F172A" font-family="sans-serif" font-size="14" lengthAdjust="spacing" textLength="260.749" x="1116.4779" y="656.2439">Canonical proof spine + theorem owner</text><text fill="#0F172A" font-family="sans-serif" font-size="14" lengthAdjust="spacing" textLength="281.3569" x="1106.1739" y="675.3118">quadratic -&gt; signature -&gt; Clifford -&gt; closure</text><text fill="#0F172A" font-family="sans-serif" font-size="14" lengthAdjust="spacing" textLength="206.6672" x="1143.5188" y="694.3797">Owner: UnifiedPhysicsTheorem</text><text fill="#0F172A" font-family="sans-serif" font-size="14" lengthAdjust="spacing" textLength="335.9847" x="1078.86" y="713.4476">Status: repo proved + theorem-owned strong claim</text><text fill="#0F172A" font-family="sans-serif" font-size="14" lengthAdjust="spacing" textLength="151.1434" x="1171.2807" y="732.5155">What it currently gives:</text><text fill="#0F172A" font-family="sans-serif" font-size="14" lengthAdjust="spacing" textLength="210.0972" x="1141.8038" y="751.5834">4D-signature-facing formal core</text></g><!--entity DashiBridges--><g class="entity" data-qualified-name="3. Current DASHI correspondences.DashiBridges" data-source-line="43" id="ent0013"><rect fill="#FEF3C7" height="96.2717" rx="9" ry="9" style="stroke:#334155;stroke-width:0.5;" width="319.0529" x="1087.32" y="500.3379"/><text fill="#0F172A" font-family="sans-serif" font-size="14" lengthAdjust="spacing" textLength="192.8353" x="1150.4288" y="525.3039">Known-limits GR/QFT bridges</text><text fill="#0F172A" font-family="sans-serif" font-size="14" lengthAdjust="spacing" textLength="299.0529" x="1097.32" y="544.3718">Status: repo bridge, theorem-backed regimes</text><text fill="#0F172A" font-family="sans-serif" font-size="14" lengthAdjust="spacing" textLength="174.7753" x="1159.4588" y="563.4397">What they currently mean:</text><text fill="#0F172A" font-family="sans-serif" font-size="14" lengthAdjust="spacing" textLength="280.4329" x="1106.63" y="582.5076">regime recovery surfaces, not full recovery</text></g><!--entity DashiDynamics--><g class="entity" data-qualified-name="3. Current DASHI correspondences.DashiDynamics" data-source-line="44" id="ent0014"><rect fill="#FEF3C7" height="153.4754" rx="9" ry="9" style="stroke:#334155;stroke-width:0.5;" width="461.2083" x="1016.25" y="180.7379"/><text fill="#0F172A" font-family="sans-serif" font-size="14" lengthAdjust="spacing" textLength="441.2083" x="1026.25" y="205.7039">Atom/chemistry recovery carrier + bounded atom/wave consumers</text><text fill="#0F172A" font-family="sans-serif" font-size="14" lengthAdjust="spacing" textLength="283.6249" x="1105.0417" y="224.7718">Owner: AtomicChemistryRecoveryTheorem</text><text fill="#0F172A" font-family="sans-serif" font-size="14" lengthAdjust="spacing" textLength="321.0048" x="1086.3517" y="243.8397">Status: repo packaging/bridge with explicit gates</text><text fill="#0F172A" font-family="sans-serif" font-size="14" lengthAdjust="spacing" textLength="174.7753" x="1159.4665" y="262.9076">What they currently mean:</text><text fill="#0F172A" font-family="sans-serif" font-size="14" lengthAdjust="spacing" textLength="229.9491" x="1131.8796" y="281.9755">shared shell/wave recovery carrier,</text><text fill="#0F172A" font-family="sans-serif" font-size="14" lengthAdjust="spacing" textLength="188.4532" x="1152.6275" y="301.0434">finite wave/phase interfaces,</text><text fill="#0F172A" font-family="sans-serif" font-size="14" lengthAdjust="spacing" textLength="160.2574" x="1166.7255" y="320.1114">not a final chemistry law</text></g><!--entity DashiEmpirical--><g class="entity" data-qualified-name="3. Current DASHI correspondences.DashiEmpirical" data-source-line="45" id="ent0015"><rect fill="#FEE2E2" height="96.2717" rx="9" ry="9" style="stroke:#334155;stroke-width:0.5;" width="321.3209" x="1086.19" y="369.3379"/><text fill="#0F172A" font-family="sans-serif" font-size="14" lengthAdjust="spacing" textLength="184.3653" x="1154.6678" y="394.3039">Photonuclear empirical lane</text><text fill="#0F172A" font-family="sans-serif" font-size="14" lengthAdjust="spacing" textLength="161.4054" x="1166.1478" y="413.3718">What it currently means:</text><text fill="#0F172A" font-family="sans-serif" font-size="14" lengthAdjust="spacing" textLength="301.3209" x="1096.19" y="432.4397">collider measurement sidecar and calibration,</text><text fill="#0F172A" font-family="sans-serif" font-size="14" lengthAdjust="spacing" textLength="134.1335" x="1179.7837" y="451.5076">not theorem closure</text></g><!--entity GapDynamics--><g class="entity" data-qualified-name="4. Missing steps to a serious unification claim.GapDynamics" data-source-line="49" id="ent0017"><rect fill="#FCE7F3" height="77.2038" rx="9" ry="9" style="stroke:#334155;stroke-width:0.5;" width="309.8829" x="1611.69" y="612.8779"/><text fill="#0F172A" font-family="sans-serif" font-size="14" lengthAdjust="spacing" textLength="141.5815" x="1695.8407" y="637.8439">Natural dynamics law</text><text fill="#0F172A" font-family="sans-serif" font-size="14" lengthAdjust="spacing" textLength="289.8829" x="1621.69" y="656.9118">Current status: repo bridge + archive design</text><text fill="#0F172A" font-family="sans-serif" font-size="14" lengthAdjust="spacing" textLength="281.0069" x="1626.128" y="675.9797">Still missing: non-engineered universal law</text></g><!--entity GapConserved--><g class="entity" data-qualified-name="4. Missing steps to a serious unification claim.GapConserved" data-source-line="50" id="ent0018"><rect fill="#FCE7F3" height="77.2038" rx="9" ry="9" style="stroke:#334155;stroke-width:0.5;" width="323.7568" x="1604.75" y="724.8779"/><text fill="#0F172A" font-family="sans-serif" font-size="14" lengthAdjust="spacing" textLength="184.7853" x="1674.2358" y="749.8439">Conserved physical quantity</text><text fill="#0F172A" font-family="sans-serif" font-size="14" lengthAdjust="spacing" textLength="289.8829" x="1621.687" y="768.9118">Current status: repo bridge + archive design</text><text fill="#0F172A" font-family="sans-serif" font-size="14" lengthAdjust="spacing" textLength="303.7568" x="1614.75" y="787.9797">Still missing: clear physical conserved quantity</text></g><!--entity GapContinuum--><g class="entity" data-qualified-name="4. Missing steps to a serious unification claim.GapContinuum" data-source-line="51" id="ent0019"><rect fill="#FCE7F3" height="77.2038" rx="9" ry="9" style="stroke:#334155;stroke-width:0.5;" width="359.6526" x="1586.81" y="256.8779"/><text fill="#0F172A" font-family="sans-serif" font-size="14" lengthAdjust="spacing" textLength="339.6526" x="1596.81" y="281.8439">Continuum limit + realization-independent recovery</text><text fill="#0F172A" font-family="sans-serif" font-size="14" lengthAdjust="spacing" textLength="329.9788" x="1601.6469" y="300.9118">Current status: repo bridge + archive claim/design</text><text fill="#0F172A" font-family="sans-serif" font-size="14" lengthAdjust="spacing" textLength="337.3987" x="1597.937" y="319.9797">Still missing: broad noncanonical recovery theorem</text></g><!--entity GapGaugeMatter--><g class="entity" data-qualified-name="4. Missing steps to a serious unification claim.GapGaugeMatter" data-source-line="52" id="ent0020"><rect fill="#FCE7F3" height="96.2717" rx="9" ry="9" style="stroke:#334155;stroke-width:0.5;" width="404.7465" x="1564.26" y="125.3379"/><text fill="#0F172A" font-family="sans-serif" font-size="14" lengthAdjust="spacing" textLength="153.5794" x="1689.8435" y="150.3039">Gauge/matter recovery</text><text fill="#0F172A" font-family="sans-serif" font-size="14" lengthAdjust="spacing" textLength="289.8829" x="1621.6918" y="169.3718">Current status: repo bridge + archive design</text><text fill="#0F172A" font-family="sans-serif" font-size="14" lengthAdjust="spacing" textLength="384.7465" x="1574.26" y="188.4397">Still missing: physically interpretable recovery of electrons,</text><text fill="#0F172A" font-family="sans-serif" font-size="14" lengthAdjust="spacing" textLength="221.2972" x="1655.9847" y="207.5076">photons, quarks, and interactions</text></g><!--entity GapAtomic--><g class="entity" data-qualified-name="4. Missing steps to a serious unification claim.GapAtomic" data-source-line="53" id="ent0021"><rect fill="#FCE7F3" height="96.2717" rx="9" ry="9" style="stroke:#334155;stroke-width:0.5;" width="411.0466" x="1561.11" y="369.3379"/><text fill="#0F172A" font-family="sans-serif" font-size="14" lengthAdjust="spacing" textLength="187.8933" x="1672.6867" y="394.3039">Atomic and nuclear recovery</text><text fill="#0F172A" font-family="sans-serif" font-size="14" lengthAdjust="spacing" textLength="349.6347" x="1591.816" y="413.3718">Current status: archive-backed atom correspondence</text><text fill="#0F172A" font-family="sans-serif" font-size="14" lengthAdjust="spacing" textLength="315.4748" x="1608.8959" y="432.4397">+ repo shell/wave packaging + empirical contact</text><text fill="#0F172A" font-family="sans-serif" font-size="14" lengthAdjust="spacing" textLength="391.0466" x="1571.11" y="451.5076">Still missing: spectra/scattering/chemistry in the right limits</text></g><!--entity GapAdapter--><g class="entity" data-qualified-name="4. Missing steps to a serious unification claim.GapAdapter" data-source-line="54" id="ent0022"><rect fill="#FCE7F3" height="96.2717" rx="9" ry="9" style="stroke:#334155;stroke-width:0.5;" width="402.0025" x="1565.63" y="837.3379"/><text fill="#0F172A" font-family="sans-serif" font-size="14" lengthAdjust="spacing" textLength="161.2654" x="1685.9986" y="862.3039">Abstract/canonical seam</text><text fill="#0F172A" font-family="sans-serif" font-size="14" lengthAdjust="spacing" textLength="254.169" x="1639.5467" y="881.3718">Current status: explicit theorem owner</text><text fill="#0F172A" font-family="sans-serif" font-size="14" lengthAdjust="spacing" textLength="302.5388" x="1615.3618" y="900.4397">PhysicsUnificationToCanonicalClosureAdapter</text><text fill="#0F172A" font-family="sans-serif" font-size="14" lengthAdjust="spacing" textLength="382.0025" x="1575.63" y="919.5076">Still missing: stronger field-by-field adapter equalities only</text></g><!--entity GapRecovery--><g class="entity" data-qualified-name="4. Missing steps to a serious unification claim.GapRecovery" data-source-line="55" id="ent0023"><rect fill="#FCE7F3" height="77.2038" rx="9" ry="9" style="stroke:#334155;stroke-width:0.5;" width="448.3565" x="1542.45" y="500.8779"/><text fill="#0F172A" font-family="sans-serif" font-size="14" lengthAdjust="spacing" textLength="171.1353" x="1681.0606" y="525.8439">GR + QFT regime recovery</text><text fill="#0F172A" font-family="sans-serif" font-size="14" lengthAdjust="spacing" textLength="351.7907" x="1590.7329" y="544.9118">Current status: theorem-backed known-limits bridges</text><text fill="#0F172A" font-family="sans-serif" font-size="14" lengthAdjust="spacing" textLength="428.3565" x="1552.45" y="563.9797">Still missing: strong full recovery a physicist would call unification</text></g><!--entity Solved--><g class="entity" data-qualified-name="5. Solved unification.Solved" data-source-line="59" id="ent0025"><rect fill="#BBF7D0" height="96.2717" rx="9" ry="9" style="stroke:#334155;stroke-width:0.5;" width="269.367" x="2090.2" y="369.3379"/><text fill="#0F172A" font-family="sans-serif" font-size="14" lengthAdjust="spacing" textLength="249.367" x="2100.2" y="394.3039">One core theory whose limits recover:</text><text fill="#0F172A" font-family="sans-serif" font-size="14" lengthAdjust="spacing" textLength="207.7872" x="2120.9899" y="413.3718">quantum matter, atoms, nuclei,</text><text fill="#0F172A" font-family="sans-serif" font-size="14" lengthAdjust="spacing" textLength="212.1552" x="2118.8059" y="432.4397">particle interactions, and gravity</text><text fill="#0F172A" font-family="sans-serif" font-size="14" lengthAdjust="spacing" textLength="191.4913" x="2129.1379" y="451.5076">on the right physical regimes</text></g><g class="entity" data-qualified-name="GMN51" data-source-line="92" id="ent0052"><path d="M1108.11,810.0679 L1108.11,872.892 A9,9 0 0 0 1117.11,881.892 L1376.5872,881.892 A9,9 0 0 0 1385.5872,872.892 L1385.5872,811.0679 L1375.5872,801.0679 L1250.85,801.0679 L1246.85,765.9579 L1242.85,801.0679 L1117.11,801.0679 A9,9 0 0 0 1108.11,810.0679" fill="#FFF7ED" style="stroke:#C2410C;stroke-width:0.5;"/><path d="M1375.5872,801.0679 L1375.5872,806.5679 A4.5,4.5 0 0 0 1380.0872,811.0679 L1385.5872,811.0679 L1375.5872,801.0679" fill="#FFF7ED" style="stroke:#C2410C;stroke-width:0.5;"/><text fill="#7C2D12" font-family="sans-serif" font-size="13" lengthAdjust="spacing" textLength="168.8832" x="1157.907" y="819.9649">Strongest current evidence:</text><text fill="#7C2D12" font-family="sans-serif" font-size="13" lengthAdjust="spacing" textLength="218.3352" x="1133.181" y="837.6709">formal geometric/closure structure.</text><text fill="#7C2D12" font-family="sans-serif" font-size="13" lengthAdjust="spacing" textLength="256.4772" x="1114.11" y="855.377">Closest to spacetime-formalism language,</text><text fill="#7C2D12" font-family="sans-serif" font-size="13" lengthAdjust="spacing" textLength="223.1192" x="1130.789" y="873.083">not yet to full atom-by-atom physics.</text></g><g class="entity" data-qualified-name="GMN54" data-source-line="99" id="ent0055"><path d="M2053.81,509.7679 L2053.81,537.1799 A9,9 0 0 0 2062.81,546.1799 L2386.9623,546.1799 A9,9 0 0 0 2395.9623,537.1799 L2395.9623,510.7679 L2385.9623,500.7679 L2062.81,500.7679 A9,9 0 0 0 2053.81,509.7679" fill="#FFF7ED" style="stroke:#C2410C;stroke-width:0.5;"/><path d="M2385.9623,500.7679 L2385.9623,506.2679 A4.5,4.5 0 0 0 2390.4623,510.7679 L2395.9623,510.7679 L2385.9623,500.7679" fill="#FFF7ED" style="stroke:#C2410C;stroke-width:1;"/><text fill="#7C2D12" font-family="sans-serif" font-size="13" lengthAdjust="spacing" textLength="296.0493" x="2072.3615" y="519.6649">This is where the public story needed correction:</text><text fill="#7C2D12" font-family="sans-serif" font-size="13" lengthAdjust="spacing" textLength="321.1523" x="2059.81" y="537.3709">not solved, but no longer "missing from zero" either.</text></g><g class="entity" data-qualified-name="GMN57" data-source-line="104" id="ent0058"><path d="M1076.63,55.0679 L1076.63,117.892 A9,9 0 0 0 1085.63,126.892 L1408.0793,126.892 A9,9 0 0 0 1417.0793,117.892 L1417.0793,56.0679 L1407.0793,46.0679 L1085.63,46.0679 A9,9 0 0 0 1076.63,55.0679" fill="#FFF7ED" style="stroke:#C2410C;stroke-width:0.5;"/><path d="M1407.0793,46.0679 L1407.0793,51.5679 A4.5,4.5 0 0 0 1411.5793,56.0679 L1417.0793,56.0679 L1407.0793,46.0679" fill="#FFF7ED" style="stroke:#C2410C;stroke-width:1;"/><text fill="#7C2D12" font-family="sans-serif" font-size="13" lengthAdjust="spacing" textLength="299.8713" x="1092.419" y="64.9649">Closest current contact with experimental reality:</text><text fill="#7C2D12" font-family="sans-serif" font-size="13" lengthAdjust="spacing" textLength="312.0262" x="1086.3415" y="82.6709">photonuclear / collider measurement organization.</text><text fill="#7C2D12" font-family="sans-serif" font-size="13" lengthAdjust="spacing" textLength="319.4493" x="1082.63" y="100.377">This is useful, but it is not the same as deriving QCD,</text><text fill="#7C2D12" font-family="sans-serif" font-size="13" lengthAdjust="spacing" textLength="303.6673" x="1090.521" y="118.083">and it is not the only atom/nuclear-facing surface.</text></g><g class="entity" data-qualified-name="GMN60" data-source-line="111" id="ent0061"><path d="M2090.94,278.7679 L2090.94,306.1799 A9,9 0 0 0 2099.94,315.1799 L2220.89,315.1799 L2224.89,369.1379 L2228.89,315.1799 L2349.8362,315.1799 A9,9 0 0 0 2358.8362,306.1799 L2358.8362,279.7679 L2348.8362,269.7679 L2099.94,269.7679 A9,9 0 0 0 2090.94,278.7679" fill="#FFF7ED" style="stroke:#C2410C;stroke-width:0.5;"/><path d="M2348.8362,269.7679 L2348.8362,275.2679 A4.5,4.5 0 0 0 2353.3362,279.7679 L2358.8362,279.7679 L2348.8362,269.7679" fill="#FFF7ED" style="stroke:#C2410C;stroke-width:0.5;"/><text fill="#7C2D12" font-family="sans-serif" font-size="13" lengthAdjust="spacing" textLength="149.2791" x="2145.7485" y="288.6649">This is the bar for saying</text><text fill="#7C2D12" font-family="sans-serif" font-size="13" lengthAdjust="spacing" textLength="246.8962" x="2096.94" y="306.3709">"we solved unification" without hedging.</text></g><!--link RealityLight to FormalQM--><g class="link" data-entity-1="ent0003" data-entity-2="ent0008" data-link-type="dependency" data-source-line="62" id="lnk26"><path d="M204.2,367.0079 C219.48,364.6879 235.32,362.4079 250.22,360.4779 C334.58,349.5279 424.907,340.2669 494.297,333.6569" fill="none" id="RealityLight-to-FormalQM" style="stroke:#181818;stroke-width:2;"/><polygon fill="#181818" points="500.27,333.0879,490.9312,329.9594,495.2925,333.5621,491.6899,337.9234,500.27,333.0879" style="stroke:#181818;stroke-width:2;"/><text fill="#000000" font-family="sans-serif" font-size="13" lengthAdjust="spacing" textLength="153.6342" x="260.22" y="336.9549">textbook quantum optics</text></g><!--link RealityLight to FormalQFT--><g class="link" data-entity-1="ent0003" data-entity-2="ent0009" data-link-type="dependency" data-source-line="63" id="lnk27"><path d="M204.23,416.0279 C217.18,422.3979 230.24,429.3079 242.22,436.4779 C246.04,438.7579 246.01,441.0679 250.22,442.4779 C315.15,464.1179 384.8711,465.7512 448.7811,460.3712" fill="none" id="RealityLight-to-FormalQFT" style="stroke:#181818;stroke-width:2;"/><polygon fill="#181818" points="454.76,459.8679,445.4562,456.637,449.7776,460.2873,446.1273,464.6088,454.76,459.8679" style="stroke:#181818;stroke-width:2;"/><text fill="#000000" font-family="sans-serif" font-size="13" lengthAdjust="spacing" textLength="120.7701" x="276.72" y="438.3749">photon field picture</text></g><!--link RealityAtoms to FormalQM--><g class="link" data-entity-1="ent0004" data-entity-2="ent0008" data-link-type="dependency" data-source-line="64" id="lnk28"><path d="M215.47,279.5779 C297.99,289.3279 411.5615,302.7637 494.3915,312.5537" fill="none" id="RealityAtoms-to-FormalQM" style="stroke:#181818;stroke-width:2;"/><polygon fill="#181818" points="500.35,313.2579,491.8817,308.2292,495.3846,312.671,490.9427,316.1739,500.35,313.2579" style="stroke:#181818;stroke-width:2;"/><text fill="#000000" font-family="sans-serif" font-size="13" lengthAdjust="spacing" textLength="100.9711" x="286.72" y="280.9249">atomic structure</text></g><!--link RealityAtoms to FormalQFT--><g class="link" data-entity-1="ent0004" data-entity-2="ent0009" data-link-type="dependency" data-source-line="65" id="lnk29"><path d="M215.53,299.8279 C225.78,306.5679 235.07,314.6979 242.22,324.4779 C258.88,347.2679 230.41,367.3779 250.22,387.4779 C257.75,395.1179 356.7635,408.5969 448.9535,419.7569" fill="none" id="RealityAtoms-to-FormalQFT" style="stroke:#181818;stroke-width:2;"/><polygon fill="#181818" points="454.91,420.4779,446.4559,415.4253,449.9462,419.877,445.4945,423.3673,454.91,420.4779" style="stroke:#181818;stroke-width:2;"/><text fill="#000000" font-family="sans-serif" font-size="13" lengthAdjust="spacing" textLength="171.9381" x="251.22" y="383.3749">relativistic / field corrections</text></g><!--link RealityNuclear to FormalQFT--><g class="link" data-entity-1="ent0005" data-entity-2="ent0009" data-link-type="dependency" data-source-line="66" id="lnk30"><path d="M218.63,498.5779 C278.05,500.5679 355.44,500.0279 423.22,489.4779 C443.6,486.3079 459.136,482.879 479.526,477.119" fill="none" id="RealityNuclear-to-FormalQFT" style="stroke:#181818;stroke-width:2;"/><polygon fill="#181818" points="485.3,475.4879,475.5515,474.0852,480.4883,476.8472,477.7264,481.7839,485.3,475.4879" style="stroke:#181818;stroke-width:2;"/><text fill="#000000" font-family="sans-serif" font-size="13" lengthAdjust="spacing" textLength="162.4741" x="255.72" y="485.3749">particle and nuclear sector</text></g><!--link RealityGravity to FormalGR--><g class="link" data-entity-1="ent0006" data-entity-2="ent0010" data-link-type="dependency" data-source-line="67" id="lnk31"><path d="M206.83,594.3979 C286.73,584.9579 400.3915,571.5123 485.7415,561.4223" fill="none" id="RealityGravity-to-FormalGR" style="stroke:#181818;stroke-width:2;"/><polygon fill="#181818" points="491.7,560.7179,482.2926,557.8022,486.7346,561.3049,483.2318,565.7469,491.7,560.7179" style="stroke:#181818;stroke-width:2;"/><text fill="#000000" font-family="sans-serif" font-size="13" lengthAdjust="spacing" textLength="103.7271" x="285.22" y="565.7149">spacetime sector</text></g><!--link FormalQM to DashiDynamics--><g class="link" data-entity-1="ent0008" data-entity-2="ent0014" data-link-type="dependency" data-source-line="69" id="lnk32"><path d="M691.9,314.6979 C776.63,305.9479 898.3717,293.3743 1009.8117,281.8643" fill="none" id="FormalQM-to-DashiDynamics" style="stroke:#181818;stroke-width:2;"/><polygon fill="#181818" points="1015.78,281.2479,1006.4167,278.1937,1010.8065,281.7616,1007.2386,286.1514,1015.78,281.2479" style="stroke:#181818;stroke-width:2;"/><text fill="#000000" font-family="sans-serif" font-size="13" lengthAdjust="spacing" textLength="213.2262" x="770.25" y="280.8749">nearest current vocabulary contact</text></g><!--link FormalQFT to DashiBridges--><g class="link" data-entity-1="ent0009" data-entity-2="ent0013" data-link-type="dependency" data-source-line="70" id="lnk33"><path d="M737.58,460.7079 C840.39,478.4679 974.1375,501.557 1081.0475,520.017" fill="none" id="FormalQFT-to-DashiBridges" style="stroke:#181818;stroke-width:2;"/><polygon fill="#181818" points="1086.96,521.0379,1078.7718,515.5649,1082.0329,520.1872,1077.4106,523.4482,1086.96,521.0379" style="stroke:#181818;stroke-width:2;"/><text fill="#000000" font-family="sans-serif" font-size="13" lengthAdjust="spacing" textLength="123.5261" x="815.25" y="462.4149">partial bridge target</text></g><!--link FormalGR to DashiBridges--><g class="link" data-entity-1="ent0010" data-entity-2="ent0013" data-link-type="dependency" data-source-line="71" id="lnk34"><path d="M701.09,548.4779 C805.14,548.4779 960.69,548.4779 1080.88,548.4779" fill="none" id="FormalGR-to-DashiBridges" style="stroke:#181818;stroke-width:2;"/><polygon fill="#181818" points="1086.88,548.4779,1077.88,544.4779,1081.88,548.4779,1077.88,552.4779,1086.88,548.4779" style="stroke:#181818;stroke-width:2;"/><text fill="#000000" font-family="sans-serif" font-size="13" lengthAdjust="spacing" textLength="123.5261" x="815.25" y="544.3749">partial bridge target</text></g><!--link FormalQFT to DashiEmpirical--><g class="link" data-entity-1="ent0009" data-entity-2="ent0015" data-link-type="dependency" data-source-line="72" id="lnk35"><path d="M737.58,432.3679 C840.01,429.3679 973.0426,425.4737 1079.8026,422.3437" fill="none" id="FormalQFT-to-DashiEmpirical" style="stroke:#181818;stroke-width:2;"/><polygon fill="#181818" points="1085.8,422.1679,1076.6866,418.4334,1080.8021,422.3144,1076.9211,426.4299,1085.8,422.1679" style="stroke:#181818;stroke-width:2;"/><text fill="#000000" font-family="sans-serif" font-size="13" lengthAdjust="spacing" textLength="182.0002" x="785.75" y="421.1749">collider-facing measurements</text></g><!--link FormalGR to DashiSpine--><g class="link" data-entity-1="ent0010" data-entity-2="ent0012" data-link-type="dependency" data-source-line="73" id="lnk36"><path d="M701.09,572.4979 C799.95,595.3579 944.8743,628.8761 1062.7543,656.1361" fill="none" id="FormalGR-to-DashiSpine" style="stroke:#181818;stroke-width:2;"/><polygon fill="#181818" points="1068.6,657.4879,1060.7326,651.563,1063.7286,656.3614,1058.9302,659.3573,1068.6,657.4879" style="stroke:#181818;stroke-width:2;"/><text fill="#000000" font-family="sans-serif" font-size="13" lengthAdjust="spacing" textLength="199.9402" x="777.25" y="584.6049">Lorentz/signature side relevance</text></g><!--link DashiSpine to GapDynamics--><g class="link" data-entity-1="ent0012" data-entity-2="ent0017" data-link-type="dependency" data-source-line="75" id="lnk37"><path d="M1425.32,682.3679 C1485.77,676.8779 1546.8446,671.3404 1605.3346,666.0304" fill="none" id="DashiSpine-to-GapDynamics" style="stroke:#181818;stroke-width:2;"/><polygon fill="#181818" points="1611.31,665.4879,1601.9852,662.318,1606.3305,665.94,1602.7085,670.2853,1611.31,665.4879" style="stroke:#181818;stroke-width:2;"/></g><!--link DashiSpine to GapConserved--><g class="link" data-entity-1="ent0012" data-entity-2="ent0018" data-link-type="dependency" data-source-line="76" id="lnk38"><path d="M1425.32,720.7579 C1483.43,728.0479 1541.6768,735.3601 1598.5168,742.5001" fill="none" id="DashiSpine-to-GapConserved" style="stroke:#181818;stroke-width:2;"/><polygon fill="#181818" points="1604.47,743.2479,1596.0387,738.1574,1599.509,742.6247,1595.0416,746.095,1604.47,743.2479" style="stroke:#181818;stroke-width:2;"/></g><!--link DashiBridges to GapRecovery--><g class="link" data-entity-1="ent0013" data-entity-2="ent0023" data-link-type="dependency" data-source-line="77" id="lnk39"><path d="M1406.72,545.7179 C1449.53,544.9679 1490.6509,544.2631 1536.2709,543.4631" fill="none" id="DashiBridges-to-GapRecovery" style="stroke:#181818;stroke-width:2;"/><polygon fill="#181818" points="1542.27,543.3579,1533.2012,539.5163,1537.2708,543.4456,1533.3415,547.5151,1542.27,543.3579" style="stroke:#181818;stroke-width:2;"/></g><!--link DashiDynamics to GapContinuum--><g class="link" data-entity-1="ent0014" data-entity-2="ent0019" data-link-type="dependency" data-source-line="78" id="lnk40"><path d="M1477.6,274.3379 C1514.09,277.0179 1545.3761,279.3081 1580.4761,281.8881" fill="none" id="DashiDynamics-to-GapContinuum" style="stroke:#181818;stroke-width:2;"/><polygon fill="#181818" points="1586.46,282.3279,1577.7774,277.6789,1581.4735,281.9614,1577.191,285.6574,1586.46,282.3279" style="stroke:#181818;stroke-width:2;"/></g><!--link DashiDynamics to GapGaugeMatter--><g class="link" data-entity-1="ent0014" data-entity-2="ent0020" data-link-type="dependency" data-source-line="79" id="lnk41"><path d="M1477.6,220.2079 C1506.38,215.5379 1529.7373,211.7482 1558.0473,207.1582" fill="none" id="DashiDynamics-to-GapGaugeMatter" style="stroke:#181818;stroke-width:2;"/><polygon fill="#181818" points="1563.97,206.1979,1554.4458,203.6899,1559.0345,206.9981,1555.7262,211.5867,1563.97,206.1979" style="stroke:#181818;stroke-width:2;"/></g><!--link DashiEmpirical to GapAtomic--><g class="link" data-entity-1="ent0015" data-entity-2="ent0021" data-link-type="dependency" data-source-line="80" id="lnk42"><path d="M1407.78,417.4779 C1456.2,417.4779 1504.06,417.4779 1554.99,417.4779" fill="none" id="DashiEmpirical-to-GapAtomic" style="stroke:#181818;stroke-width:2;"/><polygon fill="#181818" points="1560.99,417.4779,1551.99,413.4779,1555.99,417.4779,1551.99,421.4779,1560.99,417.4779" style="stroke:#181818;stroke-width:2;"/></g><!--link DashiSpine to GapAdapter--><g class="link" data-entity-1="ent0012" data-entity-2="ent0022" data-link-type="dependency" data-source-line="81" id="lnk43"><path d="M1425.32,737.2979 C1452.91,748.9079 1479.5,763.9679 1501.45,783.4779 C1514.68,795.2279 1504.87,808.1479 1518.45,819.4779 C1532.52,831.2179 1543.0555,838.3137 1559.9155,846.2837" fill="none" id="DashiSpine-to-GapAdapter" style="stroke:#181818;stroke-width:2;"/><polygon fill="#181818" points="1565.34,848.8479,1558.9128,841.3853,1560.8196,846.7111,1555.4938,848.6179,1565.34,848.8479" style="stroke:#181818;stroke-width:2;"/></g><!--link GapDynamics to Solved--><g class="link" data-entity-1="ent0017" data-entity-2="ent0025" data-link-type="dependency" data-source-line="83" id="lnk44"><path d="M1921.87,641.3179 C1955.64,632.7479 1988.97,618.5679 2014.81,595.4779 C2054.11,560.3579 2017.2,521.3979 2053.81,483.4779 C2064.26,472.6579 2071.4813,466.556 2084.7913,458.946" fill="none" id="GapDynamics-to-Solved" style="stroke:#181818;stroke-width:2;"/><polygon fill="#181818" points="2090,455.9679,2080.2015,456.9626,2085.6594,458.4497,2084.1723,463.9076,2090,455.9679" style="stroke:#181818;stroke-width:2;"/></g><!--link GapConserved to Solved--><g class="link" data-entity-1="ent0018" data-entity-2="ent0025" data-link-type="dependency" data-source-line="84" id="lnk45"><path d="M1928.86,755.1179 C1961.03,746.2979 1991.92,731.5479 2014.81,707.4779 C2084.44,634.2479 1989.76,561.6379 2053.81,483.4779 C2063.75,471.3479 2071.0404,464.5104 2084.6704,456.4204" fill="none" id="GapConserved-to-Solved" style="stroke:#181818;stroke-width:2;"/><polygon fill="#181818" points="2089.83,453.3579,2080.049,454.5119,2085.5303,455.91,2084.1322,461.3913,2089.83,453.3579" style="stroke:#181818;stroke-width:2;"/></g><!--link GapContinuum to Solved--><g class="link" data-entity-1="ent0019" data-entity-2="ent0025" data-link-type="dependency" data-source-line="85" id="lnk46"><path d="M1946.95,334.2579 C1969.86,339.7579 1992.94,345.5579 2014.81,351.4779 C2039.24,358.0879 2059.3569,363.9482 2084.2369,371.6282" fill="none" id="GapContinuum-to-Solved" style="stroke:#181818;stroke-width:2;"/><polygon fill="#181818" points="2089.97,373.3979,2082.5502,366.9213,2085.1924,371.9232,2080.1906,374.5654,2089.97,373.3979" style="stroke:#181818;stroke-width:2;"/></g><!--link GapGaugeMatter to Solved--><g class="link" data-entity-1="ent0020" data-entity-2="ent0025" data-link-type="dependency" data-source-line="86" id="lnk47"><path d="M1969.39,209.9079 C1985.8,217.9179 2001.26,227.6479 2014.81,239.4779 C2048.59,268.9379 2023.19,299.7479 2053.81,332.4779 C2067.01,346.5779 2077.9225,355.552 2094.8225,365.822" fill="none" id="GapGaugeMatter-to-Solved" style="stroke:#181818;stroke-width:2;"/><polygon fill="#181818" points="2099.95,368.9379,2094.3361,360.8457,2095.6771,366.3413,2090.1815,367.6823,2099.95,368.9379" style="stroke:#181818;stroke-width:2;"/></g><!--link GapAtomic to Solved--><g class="link" data-entity-1="ent0021" data-entity-2="ent0025" data-link-type="dependency" data-source-line="87" id="lnk48"><path d="M1972.4,417.4779 C2012.2,417.4779 2046.96,417.4779 2083.76,417.4779" fill="none" id="GapAtomic-to-Solved" style="stroke:#181818;stroke-width:2;"/><polygon fill="#181818" points="2089.76,417.4779,2080.76,413.4779,2084.76,417.4779,2080.76,421.4779,2089.76,417.4779" style="stroke:#181818;stroke-width:2;"/></g><!--link GapAdapter to Solved--><g class="link" data-entity-1="ent0022" data-entity-2="ent0025" data-link-type="dependency" data-source-line="88" id="lnk49"><path d="M1967.95,855.6979 C1985.63,846.4479 2001.74,834.5979 2014.81,819.4779 C2063.96,762.6079 2007.84,542.9479 2053.81,483.4779 C2063.59,470.8279 2070.9795,463.6756 2084.8195,455.4056" fill="none" id="GapAdapter-to-Solved" style="stroke:#181818;stroke-width:2;"/><polygon fill="#181818" points="2089.97,452.3279,2080.1924,453.5107,2085.6779,454.8926,2084.296,460.3781,2089.97,452.3279" style="stroke:#181818;stroke-width:2;"/></g><!--link GapRecovery to Solved--><g class="link" data-entity-1="ent0023" data-entity-2="ent0025" data-link-type="dependency" data-source-line="89" id="lnk50"><path d="M1948.29,500.3779 C1970.76,494.9779 1993.36,489.2779 2014.81,483.4779 C2039.24,476.8679 2059.3569,471.0076 2084.2369,463.3276" fill="none" id="GapRecovery-to-Solved" style="stroke:#181818;stroke-width:2;"/><polygon fill="#181818" points="2089.97,461.5579,2080.1906,460.3904,2085.1924,463.0327,2082.5502,468.0345,2089.97,461.5579" style="stroke:#181818;stroke-width:2;"/></g><!--link GapContinuum to GMN54--><g class="link" data-entity-1="ent0019" data-entity-2="ent0055" data-link-type="association" data-source-line="99" id="lnk56"><path d="M1946.82,312.1179 C1971.88,320.9179 1995.59,333.5379 2014.81,351.4779 C2036.86,372.0579 2031.96,460.6879 2053.81,481.4779 C2061.74,489.0279 2070.81,495.2879 2080.53,500.4579" fill="none" id="GapContinuum-GMN54" style="stroke:#181818;stroke-width:2;stroke-dasharray:7,7;"/></g><!--link DashiEmpirical to GMN57--><g class="link" data-entity-1="ent0015" data-entity-2="ent0058" data-link-type="association" data-source-line="104" id="lnk59"><path d="M1085.79,424.0479 C1010.16,417.8279 926,395.5879 876.75,333.9779 C834.56,281.2179 835.37,235.3779 876.75,181.9779 C923.48,121.6479 1002.92,96.2479 1076.24,86.5779" fill="none" id="DashiEmpirical-GMN57" style="stroke:#181818;stroke-width:2;stroke-dasharray:7,7;"/></g><g class="legend" data-source-line="115"><rect fill="#DDDDDD" height="147.4754" rx="9" ry="9" style="stroke:#000000;stroke-width:1;" width="306.0569" x="2070.9054" y="966.4779"/><text fill="#000000" font-family="sans-serif" font-size="14" font-weight="bold" lengthAdjust="spacing" textLength="36.9179" x="2079.5454" y="988.4439">Color</text><text fill="#000000" font-family="sans-serif" font-size="14" font-weight="bold" lengthAdjust="spacing" textLength="61.1798" x="2123.7432" y="988.4439">Meaning</text><rect fill="#DBEAFE" height="19.0679" style="stroke:none;stroke-width:1;" width="44.1978" x="2075.9054" y="992.5458"/><text fill="#000000" font-family="sans-serif" font-size="14" lengthAdjust="spacing" textLength="3.64" x="2075.9054" y="1007.5118">&#160;</text><text fill="#000000" font-family="sans-serif" font-size="14" lengthAdjust="spacing" textLength="147.8954" x="2123.7432" y="1007.5118">familiar physical world</text><rect fill="#DCFCE7" height="19.0679" style="stroke:none;stroke-width:1;" width="44.1978" x="2075.9054" y="1011.6138"/><text fill="#000000" font-family="sans-serif" font-size="14" lengthAdjust="spacing" textLength="3.64" x="2075.9054" y="1026.5797">&#160;</text><text fill="#000000" font-family="sans-serif" font-size="14" lengthAdjust="spacing" textLength="244.5791" x="2123.7432" y="1026.5797">standard accepted physics formalism</text><rect fill="#FEF3C7" height="19.0679" style="stroke:none;stroke-width:1;" width="44.1978" x="2075.9054" y="1030.6817"/><text fill="#000000" font-family="sans-serif" font-size="14" lengthAdjust="spacing" textLength="3.64" x="2075.9054" y="1045.6476">&#160;</text><text fill="#000000" font-family="sans-serif" font-size="14" lengthAdjust="spacing" textLength="204.6512" x="2123.7432" y="1045.6476">current DASHI correspondence</text><rect fill="#FEE2E2" height="19.0679" style="stroke:none;stroke-width:1;" width="44.1978" x="2075.9054" y="1049.7496"/><text fill="#000000" font-family="sans-serif" font-size="14" lengthAdjust="spacing" textLength="3.64" x="2075.9054" y="1064.7155">&#160;</text><text fill="#000000" font-family="sans-serif" font-size="14" lengthAdjust="spacing" textLength="165.0174" x="2123.7432" y="1064.7155">empirical contact surface</text><rect fill="#FCE7F3" height="19.0679" style="stroke:none;stroke-width:1;" width="44.1978" x="2075.9054" y="1068.8175"/><text fill="#000000" font-family="sans-serif" font-size="14" lengthAdjust="spacing" textLength="3.64" x="2075.9054" y="1083.7834">&#160;</text><text fill="#000000" font-family="sans-serif" font-size="14" lengthAdjust="spacing" textLength="157.7234" x="2123.7432" y="1083.7834">missing step / open gap</text><rect fill="#BBF7D0" height="19.0679" style="stroke:none;stroke-width:1;" width="44.1978" x="2075.9054" y="1087.8854"/><text fill="#000000" font-family="sans-serif" font-size="14" lengthAdjust="spacing" textLength="3.64" x="2075.9054" y="1102.8514">&#160;</text><text fill="#000000" font-family="sans-serif" font-size="14" lengthAdjust="spacing" textLength="159.6414" x="2123.7432" y="1102.8514">solved unification target</text><line style="stroke:#000000;stroke-width:1;" x1="2075.9054" x2="2371.9623" y1="973.4779" y2="973.4779"/><line style="stroke:#000000;stroke-width:1;" x1="2075.9054" x2="2371.9623" y1="992.5458" y2="992.5458"/><line style="stroke:#000000;stroke-width:1;" x1="2075.9054" x2="2371.9623" y1="1011.6138" y2="1011.6138"/><line style="stroke:#000000;stroke-width:1;" x1="2075.9054" x2="2371.9623" y1="1030.6817" y2="1030.6817"/><line style="stroke:#000000;stroke-width:1;" x1="2075.9054" x2="2371.9623" y1="1049.7496" y2="1049.7496"/><line style="stroke:#000000;stroke-width:1;" x1="2075.9054" x2="2371.9623" y1="1068.8175" y2="1068.8175"/><line style="stroke:#000000;stroke-width:1;" x1="2075.9054" x2="2371.9623" y1="1087.8854" y2="1087.8854"/><line style="stroke:#000000;stroke-width:1;" x1="2075.9054" x2="2371.9623" y1="1106.9533" y2="1106.9533"/><line style="stroke:#000000;stroke-width:1;" x1="2075.9054" x2="2075.9054" y1="973.4779" y2="1106.9533"/><line style="stroke:#000000;stroke-width:1;" x1="2120.1032" x2="2120.1032" y1="973.4779" y2="1106.9533"/><line style="stroke:#000000;stroke-width:1;" x1="2371.9623" x2="2371.9623" y1="973.4779" y2="1106.9533"/></g><?plantuml-src fLZRRXmt4dtlho3aHsiqbkp0WR0RG95ZxMBZnBQqs9TvuNHNzn1YansIhSautd_VKoJxCXSPczt023IyrQdRgQeEAcWI7nrvCa7S1nb8B7uGzrO_KIN-QLIjIXcKDOMcEeXWXLFD9eXAEIhZUk4VbUcaawtm6rdPhJADgANsDDjnjZTLQPqX9ow_dsrqidoK3Ts77M3maz8qUdxpnZcxVTYeyj6Gz-9gjbLHBNiT7kZtSADLOrfMeSJ_o1N78iGVXH0_ukycWhcrsZhnelw-bdN9EzPLvFBgwzTlBh_x3gllhGbvxLLz-VPA5l-UFpq2VkRn-D__-hYnuVbttr9r-6vvzURoLRd_xjloghgyudS7AvnTNeYFcvs7MpNmIwt2ZjrAltTQAdCM9KvwdVqStIrD9PoiL0o5bUasDbZZpuLYOzVao9HqlZ8UiO85ZW0FXo08peJqudCIavvwKQr9rhGlvIROraSfvOPQvOFRhGnf771HZiI-AeNlU4L2qjgQ2cBEHIjPu86azDn9IR_qfIOLHS7CGU6NwA8zFFHoMIz3VPRyMo_TeuV4HlTneRHQArXTq1D2RKziV5kwquBluG4AggKekt7o2JTMfhLiKZpRkoSPUiTcN6iuIsoifYZFjt1civjBkalNHqbp1rzTS1wRIhfA-BuiaJPrhqLjNOkxllL7FlxKInFwLhHKRgI9bjZA9wfx4rCS86n73ZvmR0X24ZSxeQ5_jlhx-FId3u1JrYMzFVrwhKXN8cp8kfruEM7yO2lIAnEt8QgHFRHOMy-2iKokLLEioOHeBlRzmscvTmmq1hb6s2Ph_smHgk6BaWRA1gTAI9WiBtvInWTIHbGx8n5mSpbtdqSnSsk_lX2tlUDNnRkR-x_z7Vx2BzyXFZafZerzAuqrCViGRRP6J2j3i4Sq3BN2RW5xPH1t5KoEe0STnsHYYFpZLgiQpgpuxr9RZ-ML-PLlNIV2fYebk7z8JwuCythlhm6ZiooMkNsKk62921KE-0OlIeKR_zh885JWi6JTz4uqwedyzSgyURSOuIngMKQwZnPYrIbQx9tq6tKV5NjHK_swF73DFmnaBhHgLV3YxlEIVRXsgch87u1Dg-SZrZNi3h2E6cIIppYnkPiXRKaQ04rdM2pqHSZ1K83BAGLc5KW9FUvDe7zCA4x3PbfPZWGrlLnAvnGOuIN25YmDVCnNIyuXsCJulYNdHn_TH2wx7Pxvd5zvnbanpc3ZPRA4sAgmYMIjIhYd0VjzsmgeoOwzko6j4w93s9naoYWK6zvUTXlfAHDxDDVAiBqayjUmZqVrjTnETdkN4-QquJx6Uf7PaTfEkPW0MXew5MeCdKDjf5eiS9Z70k-n0kIfM83GrYuMfGnpoAAS61F0dqQfG4XNj5yKtro83yhxMBW2TPuheXGUbSNsNlHJ6vJouoYfV-5qmDi3Rx1nLcOW1dySqOWLwSeDSWfj3ESJ-rqX9Di4unf1QXPau7eYTY0mm6a-MYtP_KvsCwk3b-hN1qo3q2F7kTuD1VytvkB8XFyNjkJ8yTLo53IyFm2S83o7C2ZJepX4Be3Ws95yYQPUAAHIHyoZOGpQ_nPuTDFo6VXhPsN51Yv7BXwJ8WVGJ86CyAG2TroibctiUluqncVG3MP58iGix1m5kTQpn4NLc7gZMJUMUvMO6aVL4if4j1yIs9Fg96gAzuTiVLwfhCP0oKnv1yLlPLucrMViCn8Q334n0I8e0EoHBNB3jvmQond_eax3MtaWISLaq3GhSbh9DMv3s7BolYVP7Yiuikn1QSxLTJOSFTYngjycuhcfP1VuyA52iSh2_h7TMQntYzGMoNHU47o81a-X15cZnppAppqJX9zXIowX1nNlMAE3AleuByEp-di2yNwz13UcA8KZnDRsEbAndXFbW7meRoFqEUr-Tp5Ccdit3yZrLqEnjHXwn-t6ea9bs1dITUoOKXSRGoND35piOyFFQJAq-_FKED_lnkqyfBffJ8hTHbGfutsnNjTlgrUipTvqiq1JDhR3C3XcqxMrZs80PpjWyC_UWHEP03YVSx_SgP8xhM9liZcGCan7mVNVFXoV7_fXpytbCek9YPjCKXnCCqVm1ZlEQSBZidN5mNWoNKMCSZOF8r0-NenAyCdzHW8L40-J7ni3yMHBkUwrvDObyKKnuHeV63gu31JkoyGRf6jek08yV_B6df2fcxWU1yAX6PurA_w4jDGMNuiyYYodtfux6_OEFKcGPr7CZlFjMRq_iJLMsc9FfxmxP66nR-FfRYfofxTdPQCuq3wVI7Hx0bNchQAODokByGDJiTSY7Atdohk_FYzY-pkPz0yMCtFkhuwiD5ikuWUNO3kkhvCgnNsYx5aWqfEAzUswo8DFGpQDaylSTqwvU55mHU3RQ2d715YCqpWtmKqFDZnd-M97yM1aMqvhhX2nikPl51S5STO1QSQRg0g8z_pui55UuDzsGuatHTUlTUG8Pb3qb3obJ4b_7ONxQ8XpiUu3H0YTAjLPBWMYTi3nXPmz4uGfXDmHcBKDZ7MmtnWdemq62-Ry7QSPb7REb-cJr7NHpMU6fJWv2rZNI9FRnOjHwTuJx9VKGFN6IfuCX9Vy-SMZyt8WGAZqwVRTUH7RfRrpN7hJ39S13BcTPyXlA9w3QS32hwsX0FmDwJkyKPnjALjwl-gnBImWRwZY_cWkGrF3FwAlYwz_5Udh7lxuW4c9SNqjllubVmlwuQkeaMTQpJlqhNKW-NGgViF0AJzyW95bISYHOKpmqwUYT2DDTBXHVkD3nt2KHoiSFMhj1jFbSx4NmBbsDdN1onRzFeRQBfrADPQX7fahSpFEmJ39FCL_0000?></g></svg>