<?plantuml 1.2026.2?><svg xmlns="http://www.w3.org/2000/svg" xmlns:xlink="http://www.w3.org/1999/xlink" contentStyleType="text/css" data-diagram-type="DESCRIPTION" height="2120px" preserveAspectRatio="none" style="width:1959px;height:2120px;background:#FFFFFF;" version="1.1" viewBox="0 0 1959 2120" width="1959px" zoomAndPan="magnify"><title>Repo Reader Metasystem</title><defs/><g><g class="title" data-source-line="1"><text fill="#000000" font-family="sans-serif" font-size="14" font-weight="bold" lengthAdjust="spacing" textLength="177.9673" x="882.495" y="24.9659">Repo Reader Metasystem</text></g><!--cluster Entry surfaces--><g class="cluster" data-qualified-name="Entry surfaces" data-source-line="28" id="ent0002"><rect fill="#FFFFFF" height="112" rx="9" ry="9" style="stroke:#334155;stroke-width:1;" width="649.88" x="81.67" y="604.8479"/><text fill="#0F172A" font-family="sans-serif" font-size="14" font-weight="bold" lengthAdjust="spacing" textLength="99.7076" x="356.7562" y="621.8139">Entry surfaces</text></g><!--cluster Reader tracks--><g class="cluster" data-qualified-name="Reader tracks" data-source-line="33" id="ent0005"><rect fill="#FFFFFF" height="391" rx="9" ry="9" style="stroke:#334155;stroke-width:1;" width="783.33" x="472.93" y="1059.8479"/><text fill="#0F172A" font-family="sans-serif" font-size="14" font-weight="bold" lengthAdjust="spacing" textLength="96.6836" x="816.2532" y="1076.8139">Reader tracks</text></g><!--cluster Canonical code surfaces--><g class="cluster" data-qualified-name="Canonical code surfaces" data-source-line="41" id="ent0011"><rect fill="#FFFFFF" height="540" rx="9" ry="9" style="stroke:#334155;stroke-width:1;" width="354.54" x="1579.94" y="919.8479"/><text fill="#0F172A" font-family="sans-serif" font-size="14" font-weight="bold" lengthAdjust="spacing" textLength="167.5513" x="1673.4343" y="936.8139">Canonical code surfaces</text></g><!--cluster Diagram surfaces--><g class="cluster" data-qualified-name="Diagram surfaces" data-source-line="50" id="ent0018"><rect fill="#FFFFFF" height="391" rx="9" ry="9" style="stroke:#334155;stroke-width:1;" width="376.86" x="950.59" y="242.8479"/><text fill="#0F172A" font-family="sans-serif" font-size="14" font-weight="bold" lengthAdjust="spacing" textLength="122.4015" x="1077.8192" y="259.8139">Diagram surfaces</text></g><!--entity Readme--><g class="entity" data-qualified-name="Entry surfaces.Readme" data-source-line="29" id="ent0003"><rect fill="#DBEAFE" height="58.1358" rx="9" ry="9" style="stroke:#334155;stroke-width:0.5;" width="101.5917" x="97.67" y="642.7779"/><text fill="#0F172A" font-family="sans-serif" font-size="14" lengthAdjust="spacing" textLength="81.5917" x="107.67" y="667.7439">README.md</text><text fill="#0F172A" font-family="sans-serif" font-size="14" lengthAdjust="spacing" textLength="67.0178" x="114.957" y="686.8118">Start Here</text></g><!--entity Arch--><g class="entity" data-qualified-name="Entry surfaces.Arch" data-source-line="30" id="ent0004"><rect fill="#DBEAFE" height="58.1358" rx="9" ry="9" style="stroke:#334155;stroke-width:0.5;" width="213.5913" x="501.96" y="642.7779"/><text fill="#0F172A" font-family="sans-serif" font-size="14" lengthAdjust="spacing" textLength="105.1256" x="556.1928" y="667.7439">architecture.md</text><text fill="#0F172A" font-family="sans-serif" font-size="14" lengthAdjust="spacing" textLength="193.5913" x="511.96" y="686.8118">module + diagram entrypoint</text></g><!--entity RepoGuide--><g class="entity" data-qualified-name="Reader tracks.RepoGuide" data-source-line="34" id="ent0006"><rect fill="#DCFCE7" height="58.1358" rx="9" ry="9" style="stroke:#334155;stroke-width:0.5;" width="193.1513" x="512.18" y="1376.7779"/><text fill="#0F172A" font-family="sans-serif" font-size="14" lengthAdjust="spacing" textLength="98.0976" x="559.7069" y="1401.7439">RepoGuide.md</text><text fill="#0F172A" font-family="sans-serif" font-size="14" lengthAdjust="spacing" textLength="173.1513" x="522.18" y="1420.8118">How the repo is organized</text></g><!--entity PhysicsGuide--><g class="entity" data-qualified-name="Reader tracks.PhysicsGuide" data-source-line="35" id="ent0007"><rect fill="#DCFCE7" height="58.1358" rx="9" ry="9" style="stroke:#334155;stroke-width:0.5;" width="239.6592" x="488.93" y="1283.7779"/><text fill="#0F172A" font-family="sans-serif" font-size="14" lengthAdjust="spacing" textLength="112.4196" x="552.5498" y="1308.7439">PhysicsGuide.md</text><text fill="#0F172A" font-family="sans-serif" font-size="14" lengthAdjust="spacing" textLength="219.6592" x="498.93" y="1327.8118">How to read the physics program</text></g><!--entity UniClaim--><g class="entity" data-qualified-name="Reader tracks.UniClaim" data-source-line="36" id="ent0008"><rect fill="#DCFCE7" height="58.1358" rx="9" ry="9" style="stroke:#334155;stroke-width:0.5;" width="196.3293" x="510.59" y="1097.7779"/><text fill="#0F172A" font-family="sans-serif" font-size="14" lengthAdjust="spacing" textLength="133.7555" x="541.8769" y="1122.7439">UnificationClaim.md</text><text fill="#0F172A" font-family="sans-serif" font-size="14" lengthAdjust="spacing" textLength="176.3293" x="520.59" y="1141.8118">Strongest disciplined claim</text></g><!--entity RecoveryLedger--><g class="entity" data-qualified-name="Reader tracks.RecoveryLedger" data-source-line="37" id="ent0009"><rect fill="#DCFCE7" height="58.1358" rx="9" ry="9" style="stroke:#334155;stroke-width:0.5;" width="202.4753" x="1037.78" y="1097.7779"/><text fill="#0F172A" font-family="sans-serif" font-size="14" lengthAdjust="spacing" textLength="179.3113" x="1049.362" y="1122.7439">PhysicsRecoveryLedger.md</text><text fill="#0F172A" font-family="sans-serif" font-size="14" lengthAdjust="spacing" textLength="182.4753" x="1047.78" y="1141.8118">Repo-native recovery status</text></g><!--entity RecoveryCrosswalk--><g class="entity" data-qualified-name="Reader tracks.RecoveryCrosswalk" data-source-line="38" id="ent0010"><rect fill="#DCFCE7" height="58.1358" rx="9" ry="9" style="stroke:#334155;stroke-width:0.5;" width="220.3532" x="498.58" y="1190.7779"/><text fill="#0F172A" font-family="sans-serif" font-size="14" lengthAdjust="spacing" textLength="200.3532" x="508.58" y="1215.7439">ArchiveRecoveryCrosswalk.md</text><text fill="#0F172A" font-family="sans-serif" font-size="14" lengthAdjust="spacing" textLength="174.2433" x="521.6349" y="1234.8118">Archive truth vs repo truth</text></g><!--entity Spine--><g class="entity" data-qualified-name="Canonical code surfaces.Spine" data-source-line="42" id="ent0012"><rect fill="#FEF3C7" height="39.0679" rx="9" ry="9" style="stroke:#334155;stroke-width:0.5;" width="227.3532" x="1643.53" y="1144.3179"/><text fill="#0F172A" font-family="sans-serif" font-size="14" lengthAdjust="spacing" textLength="207.3532" x="1653.53" y="1169.2839">DASHI canonical theorem spine</text></g><!--entity UnifiedOwner--><g class="entity" data-qualified-name="Canonical code surfaces.UnifiedOwner" data-source-line="43" id="ent0013"><rect fill="#FEF3C7" height="58.1358" rx="9" ry="9" style="stroke:#334155;stroke-width:0.5;" width="175.0074" x="1669.7" y="1292.7779"/><text fill="#0F172A" font-family="sans-serif" font-size="14" lengthAdjust="spacing" textLength="155.0074" x="1679.7" y="1317.7439">UnifiedPhysicsTheorem</text><text fill="#0F172A" font-family="sans-serif" font-size="14" lengthAdjust="spacing" textLength="127.2455" x="1693.5809" y="1336.8118">strong claim owner</text></g><!--entity AtomOwner--><g class="entity" data-qualified-name="Canonical code surfaces.AtomOwner" data-source-line="44" id="ent0014"><rect fill="#FEF3C7" height="58.1358" rx="9" ry="9" style="stroke:#334155;stroke-width:0.5;" width="251.9651" x="1631.23" y="1050.7779"/><text fill="#0F172A" font-family="sans-serif" font-size="14" lengthAdjust="spacing" textLength="231.9651" x="1641.23" y="1075.7439">AtomicChemistryRecoveryTheorem</text><text fill="#0F172A" font-family="sans-serif" font-size="14" lengthAdjust="spacing" textLength="211.8332" x="1651.2959" y="1094.8118">atom/chemistry recovery carrier</text></g><!--entity AdapterOwner--><g class="entity" data-qualified-name="Canonical code surfaces.AdapterOwner" data-source-line="45" id="ent0015"><rect fill="#FEF3C7" height="58.1358" rx="9" ry="9" style="stroke:#334155;stroke-width:0.5;" width="322.5388" x="1595.94" y="957.7779"/><text fill="#0F172A" font-family="sans-serif" font-size="14" lengthAdjust="spacing" textLength="302.5388" x="1605.94" y="982.7439">PhysicsUnificationToCanonicalClosureAdapter</text><text fill="#0F172A" font-family="sans-serif" font-size="14" lengthAdjust="spacing" textLength="205.6172" x="1654.4008" y="1001.8118">abstract/canonical seam owner</text></g><!--entity Consumers--><g class="entity" data-qualified-name="Canonical code surfaces.Consumers" data-source-line="46" id="ent0016"><rect fill="#FEF3C7" height="39.0679" rx="9" ry="9" style="stroke:#334155;stroke-width:0.5;" width="220.4092" x="1647" y="1218.3179"/><text fill="#0F172A" font-family="sans-serif" font-size="14" lengthAdjust="spacing" textLength="200.4092" x="1657" y="1243.2839">Bridge / packaging consumers</text></g><!--entity Empirical--><g class="entity" data-qualified-name="Canonical code surfaces.Empirical" data-source-line="47" id="ent0017"><rect fill="#FEE2E2" height="58.1358" rx="9" ry="9" style="stroke:#334155;stroke-width:0.5;" width="181.3214" x="1666.55" y="1385.7779"/><text fill="#0F172A" font-family="sans-serif" font-size="14" lengthAdjust="spacing" textLength="92.3296" x="1711.0459" y="1410.7439">Empirical lane</text><text fill="#0F172A" font-family="sans-serif" font-size="14" lengthAdjust="spacing" textLength="161.3214" x="1676.55" y="1429.8118">photonuclear + HEPData</text></g><!--entity SpineDiagram--><g class="entity" data-qualified-name="Diagram surfaces.SpineDiagram" data-source-line="51" id="ent0019"><rect fill="#EDE9FE" height="58.1358" rx="9" ry="9" style="stroke:#334155;stroke-width:0.5;" width="222.0892" x="1027.98" y="559.7779"/><text fill="#0F172A" font-family="sans-serif" font-size="14" lengthAdjust="spacing" textLength="202.0892" x="1037.98" y="584.7439">CanonicalProofSpine.puml/svg</text><text fill="#0F172A" font-family="sans-serif" font-size="14" lengthAdjust="spacing" textLength="116.3116" x="1080.8688" y="603.8118">formal route map</text></g><!--entity PhysDiagram--><g class="entity" data-qualified-name="Diagram surfaces.PhysDiagram" data-source-line="52" id="ent0020"><rect fill="#EDE9FE" height="58.1358" rx="9" ry="9" style="stroke:#334155;stroke-width:0.5;" width="233.8072" x="1022.12" y="280.7779"/><text fill="#0F172A" font-family="sans-serif" font-size="14" lengthAdjust="spacing" textLength="213.8072" x="1032.12" y="305.7439">PhysicsUnificationMap.puml/svg</text><text fill="#0F172A" font-family="sans-serif" font-size="14" lengthAdjust="spacing" textLength="136.3595" x="1070.8438" y="324.8118">claim-boundary map</text></g><!--entity ObsDiagram--><g class="entity" data-qualified-name="Diagram surfaces.ObsDiagram" data-source-line="53" id="ent0021"><rect fill="#EDE9FE" height="58.1358" rx="9" ry="9" style="stroke:#334155;stroke-width:0.5;" width="344.8688" x="966.59" y="373.7779"/><text fill="#0F172A" font-family="sans-serif" font-size="14" lengthAdjust="spacing" textLength="324.8688" x="976.59" y="398.7439">ObservableSignatureGaugeEntryRound.puml/svg</text><text fill="#0F172A" font-family="sans-serif" font-size="14" lengthAdjust="spacing" textLength="173.4453" x="1052.3017" y="417.8118">specific bridge child graph</text></g><!--entity TrainDiagram--><g class="entity" data-qualified-name="Diagram surfaces.TrainDiagram" data-source-line="54" id="ent0022"><rect fill="#EDE9FE" height="58.1358" rx="9" ry="9" style="stroke:#334155;stroke-width:0.5;" width="229.6772" x="1024.18" y="466.7779"/><text fill="#0F172A" font-family="sans-serif" font-size="14" lengthAdjust="spacing" textLength="209.6772" x="1034.18" y="491.7439">TRAINING_DYNAMICS.puml/svg</text><text fill="#0F172A" font-family="sans-serif" font-size="14" lengthAdjust="spacing" textLength="192.7652" x="1042.636" y="510.8118">runtime evidence child graph</text></g><g class="entity" data-qualified-name="GMN64" data-source-line="103" id="ent0065"><path d="M6,552.1379 L6,579.5499 A9,9 0 0 0 15,588.5499 L144.46,588.5499 L148.46,642.4479 L152.46,588.5499 L281.9262,588.5499 A9,9 0 0 0 290.9262,579.5499 L290.9262,553.1379 L280.9262,543.1379 L15,543.1379 A9,9 0 0 0 6,552.1379" fill="#ECFEFF" style="stroke:#0F766E;stroke-width:0.5;"/><path d="M280.9262,543.1379 L280.9262,548.6379 A4.5,4.5 0 0 0 285.4262,553.1379 L290.9262,553.1379 L280.9262,543.1379" fill="#ECFEFF" style="stroke:#0F766E;stroke-width:0.5;"/><text fill="#134E4A" font-family="sans-serif" font-size="13" lengthAdjust="spacing" textLength="163.1502" x="62.388" y="562.0349">The README should route.</text><text fill="#134E4A" font-family="sans-serif" font-size="13" lengthAdjust="spacing" textLength="263.9262" x="12" y="579.7409">It should not try to explain every lane itself.</text></g><g class="entity" data-qualified-name="GMN67" data-source-line="108" id="ent0068"><path d="M1623.44,867.1379 L1623.44,894.5499 A9,9 0 0 0 1632.44,903.5499 L1881.9723,903.5499 A9,9 0 0 0 1890.9723,894.5499 L1890.9723,868.1379 L1880.9723,858.1379 L1632.44,858.1379 A9,9 0 0 0 1623.44,867.1379" fill="#ECFEFF" style="stroke:#0F766E;stroke-width:0.5;"/><path d="M1880.9723,858.1379 L1880.9723,863.6379 A4.5,4.5 0 0 0 1885.4723,868.1379 L1890.9723,868.1379 L1880.9723,858.1379" fill="#ECFEFF" style="stroke:#0F766E;stroke-width:1;"/><text fill="#134E4A" font-family="sans-serif" font-size="13" lengthAdjust="spacing" textLength="212.5762" x="1646.418" y="877.0349">Empirical data is visible and useful,</text><text fill="#134E4A" font-family="sans-serif" font-size="13" lengthAdjust="spacing" textLength="246.5323" x="1629.44" y="894.7409">but it is not the theorem source of truth.</text></g><g class="entity" data-qualified-name="GMN70" data-source-line="113" id="ent0071"><path d="M1564.45,787.1379 L1564.45,814.5499 A9,9 0 0 0 1573.45,823.5499 L1940.9573,823.5499 A9,9 0 0 0 1949.9573,814.5499 L1949.9573,788.1379 L1939.9573,778.1379 L1573.45,778.1379 A9,9 0 0 0 1564.45,787.1379" fill="#ECFEFF" style="stroke:#0F766E;stroke-width:0.5;"/><path d="M1939.9573,778.1379 L1939.9573,783.6379 A4.5,4.5 0 0 0 1944.4573,788.1379 L1949.9573,788.1379 L1939.9573,778.1379" fill="#ECFEFF" style="stroke:#0F766E;stroke-width:1;"/><text fill="#134E4A" font-family="sans-serif" font-size="13" lengthAdjust="spacing" textLength="244.3222" x="1630.5425" y="797.0349">The theorem-owner milestone is closed.</text><text fill="#134E4A" font-family="sans-serif" font-size="13" lengthAdjust="spacing" textLength="364.5073" x="1570.45" y="814.7409">The scientific roadmap is still open beyond this owner layer.</text></g><!--link Readme to RepoGuide--><g class="link" data-entity-1="ent0003" data-entity-2="ent0006" data-link-type="dependency" data-source-line="57" id="lnk23"><path d="M153.19,701.3679 C168.39,817.0679 229.19,1237.7279 320.93,1329.8479 C370.73,1379.8579 443.3991,1397.5181 505.7591,1403.6781" fill="none" id="Readme-to-RepoGuide" style="stroke:#181818;stroke-width:2;"/><polygon fill="#181818" points="511.73,1404.2679,503.1668,1399.4026,506.7542,1403.7764,502.3804,1407.3638,511.73,1404.2679" style="stroke:#181818;stroke-width:2;"/><text fill="#000000" font-family="sans-serif" font-size="13" lengthAdjust="spacing" textLength="62.478" x="357.93" y="1325.7449">repo track</text></g><!--link Readme to PhysicsGuide--><g class="link" data-entity-1="ent0003" data-entity-2="ent0007" data-link-type="dependency" data-source-line="58" id="lnk24"><path d="M148.97,701.2979 C149.1,794.6879 162.69,1086.9979 320.93,1238.8479 C365.45,1281.5779 425.3182,1299.6739 482.6682,1307.7239" fill="none" id="Readme-to-PhysicsGuide" style="stroke:#181818;stroke-width:2;"/><polygon fill="#181818" points="488.61,1308.5579,480.2534,1303.3457,483.6585,1307.8629,479.1414,1311.2681,488.61,1308.5579" style="stroke:#181818;stroke-width:2;"/><text fill="#000000" font-family="sans-serif" font-size="13" lengthAdjust="spacing" textLength="78.6241" x="349.93" y="1234.7449">physics track</text></g><!--link Readme to UniClaim--><g class="link" data-entity-1="ent0003" data-entity-2="ent0008" data-link-type="dependency" data-source-line="59" id="lnk25"><path d="M152.72,701.4079 C162.66,776.5079 199.74,975.5679 320.93,1072.8479 C373.78,1115.2679 443.7055,1127.8521 504.1655,1130.4321" fill="none" id="Readme-to-UniClaim" style="stroke:#181818;stroke-width:2;"/><polygon fill="#181818" points="510.16,1130.6879,501.3387,1126.3078,505.1645,1130.4747,500.9976,1134.3006,510.16,1130.6879" style="stroke:#181818;stroke-width:2;"/><text fill="#000000" font-family="sans-serif" font-size="13" lengthAdjust="spacing" textLength="134.0041" x="321.93" y="1068.7449">shortest serious claim</text></g><!--link Readme to RecoveryLedger--><g class="link" data-entity-1="ent0003" data-entity-2="ent0009" data-link-type="dependency" data-source-line="60" id="lnk26"><path d="M194.28,701.3079 C311.87,777.2479 640.99,981.1579 942.59,1087.8479 C972.68,1098.4879 1000.5675,1105.3971 1031.4675,1111.3271" fill="none" id="Readme-to-RecoveryLedger" style="stroke:#181818;stroke-width:2;"/><polygon fill="#181818" points="1037.36,1112.4579,1029.2752,1106.8334,1032.4496,1111.5156,1027.7674,1114.69,1037.36,1112.4579" style="stroke:#181818;stroke-width:2;"/><text fill="#000000" font-family="sans-serif" font-size="13" lengthAdjust="spacing" textLength="118.8851" x="549.76" y="861.6849">repo recovery truth</text></g><!--link Readme to RecoveryCrosswalk--><g class="link" data-entity-1="ent0003" data-entity-2="ent0010" data-link-type="dependency" data-source-line="61" id="lnk27"><path d="M150.71,701.3679 C155.92,785.4579 182.81,1028.1879 320.93,1151.8479 C368.97,1194.8579 433.2342,1211.3683 492.1842,1217.6883" fill="none" id="Readme-to-RecoveryCrosswalk" style="stroke:#181818;stroke-width:2;"/><polygon fill="#181818" points="498.15,1218.3279,489.6277,1213.3913,493.1785,1217.7949,488.7749,1221.3457,498.15,1218.3279" style="stroke:#181818;stroke-width:2;"/><text fill="#000000" font-family="sans-serif" font-size="13" lengthAdjust="spacing" textLength="129.9871" x="324.43" y="1147.7449">archive reconciliation</text></g><!--link Readme to Arch--><g class="link" data-entity-1="ent0003" data-entity-2="ent0004" data-link-type="dependency" data-source-line="62" id="lnk28"><path d="M199.38,671.8479 C271.53,671.8479 400.7,671.8479 495.72,671.8479" fill="none" id="Readme-to-Arch" style="stroke:#181818;stroke-width:2;"/><polygon fill="#181818" points="501.72,671.8479,492.72,667.8479,496.72,671.8479,492.72,675.8479,501.72,671.8479" style="stroke:#181818;stroke-width:2;"/><text fill="#000000" font-family="sans-serif" font-size="13" lengthAdjust="spacing" textLength="109.4211" x="334.43" y="667.7449">architecture entry</text></g><!--link Arch to Spine--><g class="link" data-entity-1="ent0004" data-entity-2="ent0012" data-link-type="dependency" data-source-line="64" id="lnk29"><path d="M716,670.0879 C907.2,668.0279 1293.39,669.3779 1335.45,712.8479 C1348.52,726.3479 1332.23,1035.7879 1343.45,1050.8479 C1396.77,1122.4179 1451.42,1080.1379 1534.45,1112.8479 C1548.14,1118.2379 1550.46,1122.3079 1564.45,1126.8479 C1589.53,1134.9779 1611.1771,1140.4082 1637.3571,1145.6582" fill="none" id="Arch-to-Spine" style="stroke:#181818;stroke-width:2;"/><polygon fill="#181818" points="1643.24,1146.8379,1635.2022,1141.1464,1638.3376,1145.8548,1633.6292,1148.9903,1643.24,1146.8379" style="stroke:#181818;stroke-width:2;"/><text fill="#000000" font-family="sans-serif" font-size="13" lengthAdjust="spacing" textLength="144.4951" x="1067.02" y="666.4849">canonical module route</text></g><!--link Arch to UnifiedOwner--><g class="link" data-entity-1="ent0004" data-entity-2="ent0013" data-link-type="dependency" data-source-line="65" id="lnk30"><path d="M635.7,701.1079 C687.68,757.5979 810.93,881.2179 942.59,938.8479 C1104.34,1009.6479 1218.94,865.1779 1335.45,997.8479 C1350.41,1014.8779 1327.27,1389.9779 1343.45,1405.8479 C1404.07,1465.2779 1458.06,1442.8679 1534.45,1405.8479 C1553.82,1396.4679 1546.33,1379.4379 1564.45,1367.8479 C1595.6,1347.9279 1628.6999,1337.7184 1663.3799,1331.3084" fill="none" id="Arch-to-UnifiedOwner" style="stroke:#181818;stroke-width:2;"/><polygon fill="#181818" points="1669.28,1330.2179,1659.7029,1327.9203,1664.3633,1331.1267,1661.1569,1335.7871,1669.28,1330.2179" style="stroke:#181818;stroke-width:2;"/><text fill="#000000" font-family="sans-serif" font-size="13" lengthAdjust="spacing" textLength="132.4571" x="1073.02" y="934.7449">theorem-owner route</text></g><!--link Arch to AtomOwner--><g class="link" data-entity-1="ent0004" data-entity-2="ent0014" data-link-type="dependency" data-source-line="66" id="lnk31"><path d="M612.7,642.4379 C621.31,572.7179 652.96,396.5479 758.59,306.8479 C875.38,207.6679 1321.24,255.8479 1335.45,264.8479 C1510.29,375.5879 1480.49,486.0479 1534.45,685.8479 C1554.69,760.7779 1513.82,975.0179 1564.45,1033.8479 C1581.54,1053.6979 1599.77,1064.1426 1625.02,1071.3426" fill="none" id="Arch-to-AtomOwner" style="stroke:#181818;stroke-width:2;"/><polygon fill="#181818" points="1630.79,1072.9879,1623.2319,1066.6733,1625.9817,1071.6168,1621.0381,1074.3666,1630.79,1072.9879" style="stroke:#181818;stroke-width:2;"/><text fill="#000000" font-family="sans-serif" font-size="13" lengthAdjust="spacing" textLength="165.7891" x="1056.52" y="241.1449">interpretation carrier route</text></g><!--link Arch to AdapterOwner--><g class="link" data-entity-1="ent0004" data-entity-2="ent0015" data-link-type="dependency" data-source-line="67" id="lnk32"><path d="M613.83,642.3179 C628.18,543.1779 679.75,225.1679 758.59,165.8479 C896.35,62.1779 1410.44,46.0679 1534.45,165.8479 C1594.84,224.1779 1514.35,853.4779 1564.45,920.8479 C1576.01,936.3879 1586.1538,945.4682 1603.2838,954.5882" fill="none" id="Arch-to-AdapterOwner" style="stroke:#181818;stroke-width:2;"/><polygon fill="#181818" points="1608.58,957.4079,1602.5155,949.6476,1604.1665,955.0582,1598.756,956.7092,1608.58,957.4079" style="stroke:#181818;stroke-width:2;"/><text fill="#000000" font-family="sans-serif" font-size="13" lengthAdjust="spacing" textLength="185.4061" x="1046.52" y="77.8449">abstract/canonical seam route</text></g><!--link Arch to SpineDiagram--><g class="link" data-entity-1="ent0004" data-entity-2="ent0019" data-link-type="dependency" data-source-line="68" id="lnk33"><path d="M715.8,652.9979 C730.17,650.5379 744.73,648.0979 758.59,645.8479 C848.99,631.1579 945.8131,616.6755 1021.5631,605.6055" fill="none" id="Arch-to-SpineDiagram" style="stroke:#181818;stroke-width:2;"/><polygon fill="#181818" points="1027.5,604.7379,1018.0162,602.0814,1022.5526,605.4609,1019.173,609.9973,1027.5,604.7379" style="stroke:#181818;stroke-width:2;"/><text fill="#000000" font-family="sans-serif" font-size="13" lengthAdjust="spacing" textLength="120.5881" x="786.59" y="615.8349">primary child graph</text></g><!--link Arch to PhysDiagram--><g class="link" data-entity-1="ent0004" data-entity-2="ent0020" data-link-type="dependency" data-source-line="69" id="lnk34"><path d="M618.57,642.6279 C636.23,589.0379 681.04,474.8979 758.59,412.8479 C833.47,352.9279 934.4996,328.5281 1015.7796,318.0081" fill="none" id="Arch-to-PhysDiagram" style="stroke:#181818;stroke-width:2;"/><polygon fill="#181818" points="1021.73,317.2379,1012.291,314.4262,1016.7714,317.8797,1013.3179,322.3601,1021.73,317.2379" style="stroke:#181818;stroke-width:2;"/><text fill="#000000" font-family="sans-serif" font-size="13" lengthAdjust="spacing" textLength="168.2202" x="762.59" y="330.0149">claim-boundary child graph</text></g><!--link Arch to ObsDiagram--><g class="link" data-entity-1="ent0004" data-entity-2="ent0021" data-link-type="dependency" data-source-line="70" id="lnk35"><path d="M629.79,642.4079 C655.62,606.5379 703.8,546.3379 758.59,510.8479 C820.67,470.6279 892.058,446.4957 960.608,430.4457" fill="none" id="Arch-to-ObsDiagram" style="stroke:#181818;stroke-width:2;"/><polygon fill="#181818" points="966.45,429.0779,956.7751,427.235,961.5817,430.2178,958.5989,435.0243,966.45,429.0779" style="stroke:#181818;stroke-width:2;"/><text fill="#000000" font-family="sans-serif" font-size="13" lengthAdjust="spacing" textLength="165.1912" x="764.09" y="435.4249">detailed bridge child graph</text></g><!--link Arch to TrainDiagram--><g class="link" data-entity-1="ent0004" data-entity-2="ent0022" data-link-type="dependency" data-source-line="71" id="lnk36"><path d="M658.75,642.3579 C687.18,626.1479 724.07,606.5979 758.59,592.8479 C844.96,558.4279 941.4587,534.3439 1018.0787,518.2139" fill="none" id="Arch-to-TrainDiagram" style="stroke:#181818;stroke-width:2;"/><polygon fill="#181818" points="1023.95,516.9779,1014.319,514.9177,1019.0572,518.0079,1015.9671,522.7462,1023.95,516.9779" style="stroke:#181818;stroke-width:2;"/><text fill="#000000" font-family="sans-serif" font-size="13" lengthAdjust="spacing" textLength="174.1222" x="759.59" y="534.1049">detailed runtime child graph</text></g><!--link RepoGuide to Spine--><g class="link" data-entity-1="ent0006" data-entity-2="ent0012" data-link-type="dependency" data-source-line="73" id="lnk37"><path d="M705.61,1432.3879 C881.82,1478.4879 1247.27,1560.8079 1335.45,1476.8479 C1348.59,1464.3479 1333.61,1329.0779 1343.45,1313.8479 C1403.32,1221.1879 1460.15,1236.7679 1564.45,1200.8479 C1589.46,1192.2379 1611.1482,1186.6232 1637.3982,1181.3332" fill="none" id="RepoGuide-to-Spine" style="stroke:#181818;stroke-width:2;"/><polygon fill="#181818" points="1643.28,1180.1479,1633.6672,1178.0047,1638.3785,1181.1357,1635.2476,1185.8471,1643.28,1180.1479" style="stroke:#181818;stroke-width:2;"/><text fill="#000000" font-family="sans-serif" font-size="13" lengthAdjust="spacing" textLength="106.1321" x="1086.02" y="1472.7449">canonical owners</text></g><!--link RepoGuide to UnifiedOwner--><g class="link" data-entity-1="ent0006" data-entity-2="ent0013" data-link-type="dependency" data-source-line="74" id="lnk38"><path d="M614.77,1435.0179 C627.15,1497.7479 665.19,1645.9079 758.59,1721.8479 C880.71,1821.1479 1334.86,1765.8979 1335.45,1765.8479 C1424.92,1758.0379 1473.93,1797.1879 1534.45,1730.8479 C1589.01,1671.0479 1511.76,1429.2879 1564.45,1367.8479 C1590.2,1337.8279 1625.7812,1326.2401 1663.6312,1321.7801" fill="none" id="RepoGuide-to-UnifiedOwner" style="stroke:#181818;stroke-width:2;"/><polygon fill="#181818" points="1669.59,1321.0779,1660.1837,1318.1586,1664.6244,1321.663,1661.1199,1326.1036,1669.59,1321.0779" style="stroke:#181818;stroke-width:2;"/><text fill="#000000" font-family="sans-serif" font-size="13" lengthAdjust="spacing" textLength="118.1571" x="1080.02" y="1761.7449">strong claim owner</text></g><!--link PhysicsGuide to UnifiedOwner--><g class="link" data-entity-1="ent0007" data-entity-2="ent0013" data-link-type="dependency" data-source-line="75" id="lnk39"><path d="M722.4,1342.3079 C728.84,1347.0279 734.67,1352.4979 739.55,1358.8479 C771.23,1400.0179 732.42,1546.9679 758.59,1591.8479 C808.38,1677.2579 848.09,1687.7879 942.59,1716.8479 C1069.23,1755.7979 1452.62,1749.0479 1534.45,1644.8479 C1610.94,1547.4579 1482.65,1460.8079 1564.45,1367.8479 C1590.46,1338.2879 1625.8437,1326.7311 1663.4837,1322.1611" fill="none" id="PhysicsGuide-to-UnifiedOwner" style="stroke:#181818;stroke-width:2;"/><polygon fill="#181818" points="1669.44,1321.4379,1660.0235,1318.5518,1664.4765,1322.0406,1660.9877,1326.4935,1669.44,1321.4379" style="stroke:#181818;stroke-width:2;"/><text fill="#000000" font-family="sans-serif" font-size="13" lengthAdjust="spacing" textLength="146.5361" x="1066.02" y="1712.7449">theorem-owner reading</text></g><!--link PhysicsGuide to AtomOwner--><g class="link" data-entity-1="ent0007" data-entity-2="ent0014" data-link-type="dependency" data-source-line="76" id="lnk40"><path d="M729.07,1316.1179 C913.42,1318.3779 1254.72,1310.6079 1335.45,1225.8479 C1352.82,1207.6179 1325.73,1130.7279 1343.45,1112.8479 C1416.57,1039.0579 1532.7095,1037.2151 1625.1895,1050.3351" fill="none" id="PhysicsGuide-to-AtomOwner" style="stroke:#181818;stroke-width:2;"/><polygon fill="#181818" points="1631.13,1051.1779,1622.7811,1045.9534,1626.1796,1050.4756,1621.6574,1053.8741,1631.13,1051.1779" style="stroke:#181818;stroke-width:2;"/><text fill="#000000" font-family="sans-serif" font-size="13" lengthAdjust="spacing" textLength="177.6711" x="1050.52" y="1221.7449">bounded atom/wave reading</text></g><!--link PhysicsGuide to Consumers--><g class="link" data-entity-1="ent0007" data-entity-2="ent0016" data-link-type="dependency" data-source-line="77" id="lnk41"><path d="M706.29,1342.3279 C717.81,1347.2079 729.15,1352.7079 739.55,1358.8479 C843.42,1420.1179 829.84,1496.0679 942.59,1538.8479 C1105.84,1600.7879 1171.64,1599.2879 1335.45,1538.8479 C1444.59,1498.5779 1470.09,1465.7379 1534.45,1368.8479 C1558.72,1332.3179 1531.67,1303.9679 1564.45,1274.8479 C1587.02,1254.8079 1611.1629,1245.2796 1640.7629,1240.0096" fill="none" id="PhysicsGuide-to-Consumers" style="stroke:#181818;stroke-width:2;"/><polygon fill="#181818" points="1646.67,1238.9579,1637.1082,1236.5974,1641.7474,1239.8343,1638.5105,1244.4735,1646.67,1238.9579" style="stroke:#181818;stroke-width:2;"/><text fill="#000000" font-family="sans-serif" font-size="13" lengthAdjust="spacing" textLength="168.1292" x="1055.02" y="1534.7449">bridge + packaging reading</text></g><!--link PhysicsGuide to Empirical--><g class="link" data-entity-1="ent0007" data-entity-2="ent0017" data-link-type="dependency" data-source-line="78" id="lnk42"><path d="M723.04,1342.2479 C729.28,1346.9879 734.9,1352.4779 739.55,1358.8479 C778.19,1411.7079 716.16,1897.9779 758.59,1947.8479 C812.58,2011.3179 859.65,1975.8079 942.59,1983.8479 C1204.9,2009.2679 1329.16,2113.0979 1534.45,1947.8479 C1700.36,1814.2979 1742.9797,1541.1726 1752.8997,1450.1826" fill="none" id="PhysicsGuide-to-Empirical" style="stroke:#181818;stroke-width:2;"/><polygon fill="#181818" points="1753.55,1444.2179,1748.5981,1452.7314,1753.0081,1449.1885,1756.551,1453.5984,1753.55,1444.2179" style="stroke:#181818;stroke-width:2;"/><text fill="#000000" font-family="sans-serif" font-size="13" lengthAdjust="spacing" textLength="136.4871" x="1071.02" y="1979.7449">explicit non-claim lane</text></g><!--link UniClaim to Spine--><g class="link" data-entity-1="ent0008" data-entity-2="ent0012" data-link-type="dependency" data-source-line="79" id="lnk43"><path d="M704.58,1156.3479 C716.62,1161.2779 728.56,1166.7879 739.55,1172.8479 C748.98,1178.0479 748.46,1184.1779 758.59,1187.8479 C799.19,1202.5479 1131.58,1199.8679 1335.45,1192.8479 C1439.92,1189.2479 1552.7299,1181.1361 1637.3799,1174.2261" fill="none" id="UniClaim-to-Spine" style="stroke:#181818;stroke-width:2;"/><polygon fill="#181818" points="1643.36,1173.7379,1634.0644,1170.4834,1638.3766,1174.1447,1634.7153,1178.4569,1643.36,1173.7379" style="stroke:#181818;stroke-width:2;"/><text fill="#000000" font-family="sans-serif" font-size="13" lengthAdjust="spacing" textLength="164.4892" x="1057.02" y="1188.7449">strongest current evidence</text></g><!--link UniClaim to UnifiedOwner--><g class="link" data-entity-1="ent0008" data-entity-2="ent0013" data-link-type="dependency" data-source-line="80" id="lnk44"><path d="M707.13,1152.6179 C718.76,1158.1479 729.9,1164.8179 739.55,1172.8479 C752.57,1183.6779 747.72,1192.8679 758.59,1205.8479 C827.22,1287.8379 846.84,1313.2379 942.59,1360.8479 C1102.9,1440.5579 1219.88,1313.1179 1335.45,1449.8479 C1345.8,1462.0879 1331.81,1582.8379 1343.45,1593.8479 C1405.12,1652.1879 1470.6,1649.7879 1534.45,1593.8479 C1610.67,1527.0779 1496.61,1443.1079 1564.45,1367.8479 C1590.7,1338.7279 1625.8761,1327.2004 1663.3261,1322.5304" fill="none" id="UniClaim-to-UnifiedOwner" style="stroke:#181818;stroke-width:2;"/><polygon fill="#181818" points="1669.28,1321.7879,1659.8542,1318.9323,1664.3184,1322.4066,1660.8441,1326.8708,1669.28,1321.7879" style="stroke:#181818;stroke-width:2;"/><text fill="#000000" font-family="sans-serif" font-size="13" lengthAdjust="spacing" textLength="132.4571" x="1073.02" y="1356.7449">theorem-owner route</text></g><!--link UniClaim to AdapterOwner--><g class="link" data-entity-1="ent0008" data-entity-2="ent0015" data-link-type="dependency" data-source-line="81" id="lnk45"><path d="M707.13,1098.5079 C719.57,1091.2579 730.94,1082.1779 739.55,1070.8479 C777.28,1021.1979 724.51,984.0679 758.59,931.8479 C811.02,851.4679 850.23,844.9379 942.59,818.8479 C1195.86,747.2879 1326.47,676.5679 1534.45,837.8479 C1565.45,861.8879 1536.51,893.3279 1564.45,920.8479 C1580.26,936.4079 1594.4103,945.8864 1615.0403,954.9864" fill="none" id="UniClaim-to-AdapterOwner" style="stroke:#181818;stroke-width:2;"/><polygon fill="#181818" points="1620.53,957.4079,1613.9099,950.1159,1615.9553,955.39,1610.6812,957.4354,1620.53,957.4079" style="stroke:#181818;stroke-width:2;"/><text fill="#000000" font-family="sans-serif" font-size="13" lengthAdjust="spacing" textLength="148.7331" x="1065.02" y="735.8949">abstract/canonical seam</text></g><!--link UniClaim to AtomOwner--><g class="link" data-entity-1="ent0008" data-entity-2="ent0014" data-link-type="dependency" data-source-line="82" id="lnk46"><path d="M705.81,1097.4379 C718.43,1090.3279 730.21,1081.5779 739.55,1070.8479 C760.44,1046.8579 738.27,1026.3279 758.59,1001.8479 C816.71,931.7779 854.69,935.5679 942.59,911.8479 C1069.72,877.5379 1432.67,799.2979 1534.45,882.8479 C1587.34,926.2579 1517.03,984.5179 1564.45,1033.8479 C1582.25,1052.3579 1600.3162,1062.3009 1625.1062,1069.4709" fill="none" id="UniClaim-to-AtomOwner" style="stroke:#181818;stroke-width:2;"/><polygon fill="#181818" points="1630.87,1071.1379,1623.3357,1064.7948,1626.0669,1069.7487,1621.113,1072.4798,1630.87,1071.1379" style="stroke:#181818;stroke-width:2;"/><text fill="#000000" font-family="sans-serif" font-size="13" lengthAdjust="spacing" textLength="177.3982" x="1050.52" y="842.2349">bounded interpretation layer</text></g><!--link UniClaim to Consumers--><g class="link" data-entity-1="ent0008" data-entity-2="ent0016" data-link-type="dependency" data-source-line="83" id="lnk47"><path d="M707.31,1109.3979 C773.45,1098.4679 862.98,1085.4379 942.59,1079.8479 C1116.76,1067.6079 1205.84,962.8479 1335.45,1079.8479 C1348.39,1091.5179 1331.7,1144.9879 1343.45,1157.8479 C1410.96,1231.7179 1466.22,1181.8079 1564.45,1200.8479 C1593.08,1206.3979 1618.2187,1211.2509 1646.8187,1216.7709" fill="none" id="UniClaim-to-Consumers" style="stroke:#181818;stroke-width:2;"/><polygon fill="#181818" points="1652.71,1217.9079,1644.6311,1212.2748,1647.8006,1216.9604,1643.1151,1220.1298,1652.71,1217.9079" style="stroke:#181818;stroke-width:2;"/><text fill="#000000" font-family="sans-serif" font-size="13" lengthAdjust="spacing" textLength="187.0832" x="1045.52" y="1020.9249">bounded unification interfaces</text></g><!--link UniClaim to Empirical--><g class="link" data-entity-1="ent0008" data-entity-2="ent0017" data-link-type="dependency" data-source-line="84" id="lnk48"><path d="M707.23,1147.2479 C719.66,1153.6079 731,1161.9379 739.55,1172.8479 C765.86,1206.4179 743.21,1324.0579 758.59,1363.8479 C808.07,1491.8679 822.62,1545.1679 942.59,1611.8479 C1057.73,1675.8479 1413.22,1696.3679 1534.45,1644.8479 C1631.7,1603.5179 1703.8595,1501.4442 1736.0295,1449.3042" fill="none" id="UniClaim-to-Empirical" style="stroke:#181818;stroke-width:2;"/><polygon fill="#181818" points="1739.18,1444.1979,1731.05,1449.757,1736.5546,1448.4532,1737.8584,1453.9577,1739.18,1444.1979" style="stroke:#181818;stroke-width:2;"/><text fill="#000000" font-family="sans-serif" font-size="13" lengthAdjust="spacing" textLength="179.1012" x="1049.52" y="1607.7449">what does not count as proof</text></g><!--link RecoveryLedger to Spine--><g class="link" data-entity-1="ent0009" data-entity-2="ent0012" data-link-type="dependency" data-source-line="85" id="lnk49"><path d="M1240.74,1132.8979 C1351.21,1139.5279 1522.0908,1149.7884 1637.2108,1156.6984" fill="none" id="RecoveryLedger-to-Spine" style="stroke:#181818;stroke-width:2;"/><polygon fill="#181818" points="1643.2,1157.0579,1634.4558,1152.5259,1638.209,1156.7583,1633.9765,1160.5115,1643.2,1157.0579" style="stroke:#181818;stroke-width:2;"/><text fill="#000000" font-family="sans-serif" font-size="13" lengthAdjust="spacing" textLength="175.9682" x="1351.45" y="1135.7649">owner modules and statuses</text></g><!--link RecoveryLedger to UnifiedOwner--><g class="link" data-entity-1="ent0009" data-entity-2="ent0013" data-link-type="dependency" data-source-line="86" id="lnk50"><path d="M1240.7,1131.7679 C1276.25,1138.9279 1312.95,1153.6279 1335.45,1182.8479 C1348.37,1199.6179 1328.33,1549.0379 1343.45,1563.8479 C1373.78,1593.5479 1502.25,1591.4979 1534.45,1563.8479 C1601.32,1506.4379 1504.8,1432.7079 1564.45,1367.8479 C1590.99,1338.9979 1626.1972,1327.4994 1663.5872,1322.7794" fill="none" id="RecoveryLedger-to-UnifiedOwner" style="stroke:#181818;stroke-width:2;"/><polygon fill="#181818" points="1669.54,1322.0279,1660.1099,1319.1866,1664.5794,1322.6541,1661.1118,1327.1236,1669.54,1322.0279" style="stroke:#181818;stroke-width:2;"/><text fill="#000000" font-family="sans-serif" font-size="13" lengthAdjust="spacing" textLength="136.3311" x="1370.95" y="1559.7449">theorem-owner status</text></g><!--link RecoveryLedger to AtomOwner--><g class="link" data-entity-1="ent0009" data-entity-2="ent0014" data-link-type="dependency" data-source-line="87" id="lnk51"><path d="M1240.66,1121.3879 C1275.98,1114.1379 1312.53,1099.5179 1335.45,1070.8479 C1345.18,1058.6779 1332.13,941.5479 1343.45,930.8479 C1374.31,901.6979 1500.5,905.3779 1534.45,930.8479 C1572.59,959.4579 1529.94,1000.9479 1564.45,1033.8479 C1582.79,1051.3279 1600.7876,1060.8763 1625.2976,1067.9863" fill="none" id="RecoveryLedger-to-AtomOwner" style="stroke:#181818;stroke-width:2;"/><polygon fill="#181818" points="1631.06,1069.6579,1623.5307,1063.3089,1626.258,1068.2649,1621.3019,1070.9921,1631.06,1069.6579" style="stroke:#181818;stroke-width:2;"/><text fill="#000000" font-family="sans-serif" font-size="13" lengthAdjust="spacing" textLength="189.9171" x="1344.45" y="906.2449">atom/chemistry recovery gates</text></g><!--link RecoveryLedger to Consumers--><g class="link" data-entity-1="ent0009" data-entity-2="ent0016" data-link-type="dependency" data-source-line="88" id="lnk52"><path d="M1240.75,1132.2279 C1276.09,1139.4679 1312.63,1154.0979 1335.45,1182.8479 C1346.39,1196.6079 1330.71,1328.7379 1343.45,1340.8479 C1374.22,1370.0879 1498.77,1363.8279 1534.45,1340.8479 C1561.55,1323.3979 1539.15,1294.7879 1564.45,1274.8479 C1587.76,1256.4879 1611.63,1247.4387 1640.73,1242.0587" fill="none" id="RecoveryLedger-to-Consumers" style="stroke:#181818;stroke-width:2;"/><polygon fill="#181818" points="1646.63,1240.9679,1637.0528,1238.6708,1641.7133,1241.8769,1638.5072,1246.5374,1646.63,1240.9679" style="stroke:#181818;stroke-width:2;"/><text fill="#000000" font-family="sans-serif" font-size="13" lengthAdjust="spacing" textLength="150.7091" x="1363.95" y="1336.7449">nearest promotion steps</text></g><!--link RecoveryCrosswalk to RecoveryLedger--><g class="link" data-entity-1="ent0010" data-entity-2="ent0009" data-link-type="dependency" data-source-line="89" id="lnk53"><path d="M719.21,1200.5779 C812.9,1184.0879 940.7609,1161.5785 1031.7309,1145.5585" fill="none" id="RecoveryCrosswalk-to-RecoveryLedger" style="stroke:#181818;stroke-width:2;"/><polygon fill="#181818" points="1037.64,1144.5179,1028.0827,1142.1394,1032.7158,1145.3851,1029.4701,1150.0182,1037.64,1144.5179" style="stroke:#181818;stroke-width:2;"/><text fill="#000000" font-family="sans-serif" font-size="13" lengthAdjust="spacing" textLength="135.8241" x="779.09" y="1160.9149">corrects stale wording</text></g><!--link RecoveryCrosswalk to Empirical--><g class="link" data-entity-1="ent0010" data-entity-2="ent0017" data-link-type="dependency" data-source-line="90" id="lnk54"><path d="M719.17,1246.6279 C726.95,1251.9179 733.93,1258.2579 739.55,1265.8479 C767.04,1302.9279 736.2,1640.4779 758.59,1680.8479 C806.77,1767.7479 849.48,1773.1479 942.59,1807.8479 C1189.76,1899.9579 1309.66,1989.8579 1534.45,1851.8479 C1685.99,1758.8179 1736.8961,1532.3333 1750.8461,1450.1333" fill="none" id="RecoveryCrosswalk-to-Empirical" style="stroke:#181818;stroke-width:2;"/><polygon fill="#181818" points="1751.85,1444.2179,1746.4005,1452.4218,1751.0134,1449.1474,1754.2878,1453.7603,1751.85,1444.2179" style="stroke:#181818;stroke-width:2;"/><text fill="#000000" font-family="sans-serif" font-size="13" lengthAdjust="spacing" textLength="180.9991" x="1049.02" y="1803.7449">archive-backed interpretation</text></g><!--link SpineDiagram to Spine--><g class="link" data-entity-1="ent0019" data-entity-2="ent0012" data-link-type="dependency" data-source-line="92" id="lnk55"><path d="M1250.31,595.9879 C1282.7,603.8079 1314.91,618.3479 1335.45,644.8479 C1355.48,670.6779 1326.99,910.6179 1343.45,938.8479 C1393.38,1024.4379 1469.91,978.6579 1534.45,1053.8479 C1557.3,1080.4579 1537.31,1104.6379 1564.45,1126.8479 C1586.63,1144.9879 1609.1622,1154.033 1637.3022,1159.553" fill="none" id="SpineDiagram-to-Spine" style="stroke:#181818;stroke-width:2;"/><polygon fill="#181818" points="1643.19,1160.7079,1635.1283,1155.0503,1638.2835,1159.7454,1633.5883,1162.9007,1643.19,1160.7079" style="stroke:#181818;stroke-width:2;"/></g><!--link SpineDiagram to UnifiedOwner--><g class="link" data-entity-1="ent0019" data-entity-2="ent0013" data-link-type="dependency" data-source-line="93" id="lnk56"><path d="M1250.31,595.7379 C1282.8,603.5179 1315.07,618.1079 1335.45,644.8479 C1347.65,660.8379 1329.15,1354.7079 1343.45,1368.8479 C1403.81,1428.5379 1450.03,1377.6979 1534.45,1368.8479 C1579.46,1364.1279 1622.9489,1355.5395 1663.6189,1345.9895" fill="none" id="SpineDiagram-to-UnifiedOwner" style="stroke:#181818;stroke-width:2;"/><polygon fill="#181818" points="1669.46,1344.6179,1659.7839,1342.7812,1664.5924,1345.7609,1661.6127,1350.5694,1669.46,1344.6179" style="stroke:#181818;stroke-width:2;"/></g><!--link SpineDiagram to AdapterOwner--><g class="link" data-entity-1="ent0019" data-entity-2="ent0015" data-link-type="dependency" data-source-line="94" id="lnk57"><path d="M1250.44,589.0379 C1340.66,595.5379 1464.35,620.0779 1534.45,700.8479 C1599.14,775.3679 1501.84,844.5779 1564.45,920.8479 C1577.19,936.3579 1588.4018,945.528 1606.4618,954.628" fill="none" id="SpineDiagram-to-AdapterOwner" style="stroke:#181818;stroke-width:2;"/><polygon fill="#181818" points="1611.82,957.3279,1605.5826,949.7059,1607.3548,955.078,1601.9827,956.8502,1611.82,957.3279" style="stroke:#181818;stroke-width:2;"/></g><!--link PhysDiagram to Spine--><g class="link" data-entity-1="ent0020" data-entity-2="ent0012" data-link-type="dependency" data-source-line="95" id="lnk58"><path d="M1256.39,312.2679 C1286.58,318.8679 1316.02,331.7779 1335.45,355.8479 C1350.5,374.4779 1330.7,766.5779 1343.45,786.8479 C1394.07,867.2479 1479.74,805.1779 1534.45,882.8479 C1597.38,972.1679 1489.88,1046.9979 1564.45,1126.8479 C1584.82,1148.6479 1607.9353,1158.7726 1637.2553,1164.0626" fill="none" id="PhysDiagram-to-Spine" style="stroke:#181818;stroke-width:2;"/><polygon fill="#181818" points="1643.16,1165.1279,1635.0132,1159.5935,1638.2394,1164.2401,1633.5928,1167.4664,1643.16,1165.1279" style="stroke:#181818;stroke-width:2;"/></g><!--link PhysDiagram to UnifiedOwner--><g class="link" data-entity-1="ent0020" data-entity-2="ent0013" data-link-type="dependency" data-source-line="96" id="lnk59"><path d="M1256.27,312.1079 C1286.55,318.6879 1316.07,331.6279 1335.45,355.8479 C1349.37,373.2479 1331.87,1138.8179 1343.45,1157.8479 C1411.33,1269.3179 1563.9092,1304.3936 1663.5592,1315.8336" fill="none" id="PhysDiagram-to-UnifiedOwner" style="stroke:#181818;stroke-width:2;"/><polygon fill="#181818" points="1669.52,1316.5179,1661.0349,1311.5175,1664.5526,1315.9477,1660.1225,1319.4653,1669.52,1316.5179" style="stroke:#181818;stroke-width:2;"/></g><!--link PhysDiagram to AtomOwner--><g class="link" data-entity-1="ent0020" data-entity-2="ent0014" data-link-type="dependency" data-source-line="97" id="lnk60"><path d="M1256.24,312.3979 C1286.42,318.9979 1315.9,331.8779 1335.45,355.8479 C1354.99,379.7979 1329.81,606.1179 1343.45,633.8479 C1391.85,732.1879 1481.51,693.8779 1534.45,789.8479 C1587.23,885.5179 1491.69,952.3479 1564.45,1033.8479 C1581.78,1053.2579 1599.952,1063.5456 1625.052,1070.7356" fill="none" id="PhysDiagram-to-AtomOwner" style="stroke:#181818;stroke-width:2;"/><polygon fill="#181818" points="1630.82,1072.3879,1623.2695,1066.0642,1626.0133,1071.011,1621.0665,1073.7549,1630.82,1072.3879" style="stroke:#181818;stroke-width:2;"/></g><!--link PhysDiagram to AdapterOwner--><g class="link" data-entity-1="ent0020" data-entity-2="ent0015" data-link-type="dependency" data-source-line="98" id="lnk61"><path d="M1256.36,323.2079 C1283.85,330.0379 1311.96,340.3379 1335.45,355.8479 C1459.87,437.9679 1480.79,486.7679 1534.45,625.8479 C1558.17,687.3279 1523.52,869.2079 1564.45,920.8479 C1576.81,936.4379 1587.7183,945.6256 1605.5283,954.7356" fill="none" id="PhysDiagram-to-AdapterOwner" style="stroke:#181818;stroke-width:2;"/><polygon fill="#181818" points="1610.87,957.4679,1604.679,949.8082,1606.4185,955.191,1601.0358,956.9305,1610.87,957.4679" style="stroke:#181818;stroke-width:2;"/></g><!--link PhysDiagram to Consumers--><g class="link" data-entity-1="ent0020" data-entity-2="ent0016" data-link-type="dependency" data-source-line="99" id="lnk62"><path d="M1256.21,312.1579 C1286.49,318.7279 1316.03,331.6579 1335.45,355.8479 C1345.6,368.4779 1336.81,924.0779 1343.45,938.8479 C1390.58,1043.5679 1471.5,1016.8079 1534.45,1112.8479 C1557.11,1147.4079 1533.29,1173.7079 1564.45,1200.8479 C1587.21,1220.6579 1611.4132,1230.1143 1641.0132,1235.3943" fill="none" id="PhysDiagram-to-Consumers" style="stroke:#181818;stroke-width:2;"/><polygon fill="#181818" points="1646.92,1236.4479,1638.7623,1230.9296,1641.9977,1235.5699,1637.3574,1238.8053,1646.92,1236.4479" style="stroke:#181818;stroke-width:2;"/></g><!--link PhysDiagram to Empirical--><g class="link" data-entity-1="ent0020" data-entity-2="ent0017" data-link-type="dependency" data-source-line="100" id="lnk63"><path d="M1256.3,312.0779 C1286.58,318.6579 1316.1,331.6079 1335.45,355.8479 C1353.01,377.8379 1324.61,1347.9479 1343.45,1368.8479 C1422.89,1456.9279 1564.7488,1451.7771 1660.2388,1436.1471" fill="none" id="PhysDiagram-to-Empirical" style="stroke:#181818;stroke-width:2;"/><polygon fill="#181818" points="1666.16,1435.1779,1656.6321,1432.6842,1661.2257,1435.9856,1657.9243,1440.5792,1666.16,1435.1779" style="stroke:#181818;stroke-width:2;"/></g><!--link Empirical to GMN67--><g class="link" data-entity-1="ent0017" data-entity-2="ent0068" data-link-type="association" data-source-line="108" id="lnk69"><path d="M1666.12,1423.8579 C1595.28,1425.2679 1500.78,1413.7479 1449.95,1351.3479 C1339.93,1216.2579 1343.09,1096.9479 1449.95,959.3479 C1490.39,907.2779 1560.23,886.7479 1623.11,879.6379" fill="none" id="Empirical-GMN67" style="stroke:#181818;stroke-width:2;stroke-dasharray:7,7;"/></g><!--link UnifiedOwner to GMN70--><g class="link" data-entity-1="ent0013" data-entity-2="ent0071" data-link-type="association" data-source-line="113" id="lnk72"><path d="M1669.3,1330.4779 C1598.12,1332.0579 1501.49,1320.8179 1449.95,1257.3479 C1338.18,1119.6779 1336.68,994.7879 1449.95,858.3479 C1478.47,824.0079 1520.37,805.7979 1564.13,796.8979" fill="none" id="UnifiedOwner-GMN70" style="stroke:#181818;stroke-width:2;stroke-dasharray:7,7;"/></g><?plantuml-src ZLTDRnit4Btlho2SOoexjfCurQ608hknWTe9BFLGm411SMTNX7V91ScLeXJzxvtXVd4_fCO7mrxEl25dtZmEdNGPi6SeDFxYCHZs28xRWtMGHnaaZZdDZ4otZiNIW71IgoYohr8LtF2SsIsFzLwgb2Kyin2i65sgM6YZ4FFoKx1GSF7AKrYv0qOcIAxIBFHS6AFtwwqKhmgiPLV1KWm9BpEtXkzkaSbKvQ0S4_WBJ3GEmVw96FkCVwT-CqkTQSFU99yIdWXQqGOFN7-zldv_-U43VlrTArT_UvTStbpnwDyGkjrm1VwJ45FRy3zzSANTaKs3I02j1n7V9JSVFq8_ukNrUtZlDzrauUnEENDWjZG95s3FV8Jk76VFTulRnxlpF7vHAyUDO_TWu8nnwocH0tiJRu0dqFVYHcobm_zB0zutrt692s-HA3obqm25BRHKpeCjqA652hTN4yyP_32nE-JcbrB6LP1xlMTkIxn1nahBj4cvaZyWhlTRss8SaGYuwKDzsnwi57Q0Xlp63NZKeZ9WXT5q0eyPEat3_gba8WMdrbXcNEPr9erMALZg6ojaaKa5CHEqxc7HoHkVtEap2Bq3S_W3uXICnwKZpXG6s_dcySlCEkvAMwSWT9b6fqgWVsEwDDhQFSzUVO1w4SjHkYtRsIhL_hzUWDQhZH7MTCcLLfYKZ0cDUJlAlTl5wlw1YTOQgw0DeAuKc2yVRqL_ORj0SYsc4WzndQnrvVgYh4zzbMkczoX0JSR9-YjzcCPRE9rBiTn2BX7Zq9oq1UQuVY6QvIxzWXiZwoY4SI94lTU0CclTvcgPQKmKB69UeA1Xl8sbfd0NNNuiyF1CjUc9W9-DH2AmYreJIQc5LhRCmLI4MJR_JVlVvOKqFdJ65RoeOgkTLgN8W1lizVkxRxVSSO_KcI8INC5LZn6tjIeSfKARXcz6wyIN_Rmey-p2xj8NbMYJ8p9g8afapekE6mtm6uZXrw5AZVFzo8i0rfDajY6bvLZ91fZSJk9-tLWmExx9O8NN42SH_CBB5BpKFXDS4CGM82W-srJ5m0RBOeRWHTLI27OosFfvyV3qyFJbxzk_dXQF3yjLW6rAvIHgDEnGdvGOWwyDbse8ZuMfjNqs-osGpNdJxLYrqA8dWlDM9qTshQhDSJBGnf7-OQAaBctLZ_smFQcgOxTTvILdohvJdZdZjLgHbn8oaxx6ePU_Tch3-hggRgOeyajaKsdCFD2X-ZBpTEliUX8oRyHgvljnQDi9mPn96b0AWvCLxQxHYv57sCouuoFTF_3gzG2MniYSc1pGeBCDQJrd0-vFUWJKdEFqvRZCy1eRyxZpwF4jy6c86Zf57VEco-0pQmTcWogCvJxgqVN_2uTaGLqSUuKbz6d2O_WxOCyzvOwuTOewRpBrDf3VetwTViuPVCU9GKY78w6QLKSZ_OtQ1WlpPTjPGvJ6q4ZSg47V_YVesxF_EK8EV2PoDg1_nWzOevvNBsMrLzbfTeNWhus-NvYo_PRZiAN1qXYDbnpoZVIleDia6cXDcBtg-5N3MyPLN8zJOAUyJkQmSfno2zDoR8n8kPkE6MP7uRrBbSPZvThd1fzgHUVMYUEanEA3Z2uMIrj5VTlZQuAuEEqTPhSMsja6UJmgQHJrLAZDxlXpcBxnQaYuA1Ih3d7ujGSuN6opFbuv5QdDzsYbpKWK-RVQHZiCmNHIFvKYd1LPzPwY2x14fVDzTHuzkEO3iPFgZWyFwd9KIsnNgZyrE9FEGfQSHw2y9Om2TLleoXFZ24QlePsq4aSIJs8aS59clqIRqY4ehVh0kBzsnjQbmO41CVrLUo9cBydh3gAcVOu2Rt4g18eYS8Y5-DoRuSC7rSYFFaPZVdX15jR93AMz0CKsSD2AtbxqbFDONXo2hVm7?></g></svg>