<?plantuml 1.2026.2?><svg xmlns="http://www.w3.org/2000/svg" xmlns:xlink="http://www.w3.org/1999/xlink" contentStyleType="text/css" data-diagram-type="DESCRIPTION" height="1078px" preserveAspectRatio="none" style="width:1470px;height:1078px;background:#0F172A;" version="1.1" viewBox="0 0 1470 1078" width="1470px" zoomAndPan="magnify"><defs/><g><rect fill="#0F172A" height="1078" style="stroke:none;stroke-width:1;" width="1470" x="0" y="0"/><!--cluster LILA execution side--><g class="cluster" data-qualified-name="LILA execution side" data-source-line="24" id="ent0002"><rect fill="#111827" height="131" rx="9" ry="9" style="stroke:#334155;stroke-width:1;" width="1040.23" x="36.44" y="264.71"/><text fill="#E2E8F0" font-family="Arial" font-size="14" font-weight="bold" lengthAdjust="spacing" textLength="135.7295" x="488.6903" y="281.6759">LILA execution side</text></g><!--cluster DASHI admissibility side--><g class="cluster" data-qualified-name="DASHI admissibility side" data-source-line="30" id="ent0006"><rect fill="#111827" height="272" rx="9" ry="9" style="stroke:#334155;stroke-width:1;" width="826.41" x="295.75" y="452.71"/><text fill="#E2E8F0" font-family="Arial" font-size="14" font-weight="bold" lengthAdjust="spacing" textLength="168.2794" x="624.8153" y="469.6759">DASHI admissibility side</text></g><!--cluster Bridge layer--><g class="cluster" data-qualified-name="Bridge layer" data-source-line="37" id="ent0011"><rect fill="#111827" height="245" rx="9" ry="9" style="stroke:#334155;stroke-width:1;" width="658.69" x="805.79" y="748.71"/><text fill="#E2E8F0" font-family="Arial" font-size="14" font-weight="bold" lengthAdjust="spacing" textLength="84.6157" x="1092.8272" y="765.6759">Bridge layer</text></g><!--cluster Runtime evidence--><g class="cluster" data-qualified-name="Runtime evidence" data-source-line="43" id="ent0015"><rect fill="#111827" height="173" rx="9" ry="9" style="stroke:#334155;stroke-width:1;" width="551.67" x="7" y="67.71"/><text fill="#E2E8F0" font-family="Arial" font-size="14" font-weight="bold" lengthAdjust="spacing" textLength="125.7195" x="219.9752" y="84.6759">Runtime evidence</text></g><!--entity StateT--><g class="entity" data-qualified-name="LILA execution side.StateT" data-source-line="25" id="ent0003"><rect fill="#111827" height="39.0679" rx="9" ry="9" style="stroke:#334155;stroke-width:0.5;" width="75.8598" x="52.44" y="340.17"/><text fill="#E2E8F0" font-family="Arial" font-size="14" lengthAdjust="spacing" textLength="55.8598" x="62.44" y="365.1359">State x_t</text></g><!--entity StateNext--><g class="entity" data-qualified-name="LILA execution side.StateNext" data-source-line="26" id="ent0004"><rect fill="#111827" height="39.0679" rx="9" ry="9" style="stroke:#334155;stroke-width:0.5;" width="100.2757" x="382.27" y="303.17"/><text fill="#E2E8F0" font-family="Arial" font-size="14" lengthAdjust="spacing" textLength="80.2757" x="392.27" y="328.1359">State x_(t+1)</text></g><!--entity DeltaT--><g class="entity" data-qualified-name="LILA execution side.DeltaT" data-source-line="27" id="ent0005"><rect fill="#111827" height="39.0679" rx="9" ry="9" style="stroke:#334155;stroke-width:0.5;" width="199.7453" x="860.93" y="303.17"/><text fill="#E2E8F0" font-family="Arial" font-size="14" lengthAdjust="spacing" textLength="179.7453" x="870.93" y="328.1359">Delta_t := pi(x_(t+1)) - pi(x_t)</text></g><!--entity Contract--><g class="entity" data-qualified-name="DASHI admissibility side.Contract" data-source-line="31" id="ent0007"><rect fill="#111827" height="49.0679" rx="9" ry="9" style="stroke:#334155;stroke-width:0.5;" width="173.1675" x="345.82" y="491.17"/><rect fill="#111827" height="10" style="stroke:#334155;stroke-width:0.5;" width="15" x="498.9875" y="496.17"/><rect fill="#111827" height="2" style="stroke:#334155;stroke-width:0.5;" width="4" x="496.9875" y="498.17"/><rect fill="#111827" height="2" style="stroke:#334155;stroke-width:0.5;" width="4" x="496.9875" y="502.17"/><text fill="#E2E8F0" font-family="Arial" font-size="14" lengthAdjust="spacing" textLength="133.1675" x="360.82" y="526.1359">ExecutionContract C</text></g><!--entity PhaseSplit--><g class="entity" data-qualified-name="DASHI admissibility side.PhaseSplit" data-source-line="32" id="ent0008"><rect fill="#111827" height="49.0679" rx="9" ry="9" style="stroke:#334155;stroke-width:0.5;" width="241.3192" x="311.75" y="575.17"/><rect fill="#111827" height="10" style="stroke:#334155;stroke-width:0.5;" width="15" x="533.0692" y="580.17"/><rect fill="#111827" height="2" style="stroke:#334155;stroke-width:0.5;" width="4" x="531.0692" y="582.17"/><rect fill="#111827" height="2" style="stroke:#334155;stroke-width:0.5;" width="4" x="531.0692" y="586.17"/><text fill="#E2E8F0" font-family="Arial" font-size="14" lengthAdjust="spacing" textLength="201.3192" x="326.75" y="610.1359">ExecutionContractPhaseSplit C</text></g><!--entity Receipt--><g class="entity" data-qualified-name="DASHI admissibility side.Receipt" data-source-line="33" id="ent0009"><rect fill="#111827" height="49.0679" rx="9" ry="9" style="stroke:#334155;stroke-width:0.5;" width="290.711" x="815.44" y="491.17"/><rect fill="#111827" height="10" style="stroke:#334155;stroke-width:0.5;" width="15" x="1086.151" y="496.17"/><rect fill="#111827" height="2" style="stroke:#334155;stroke-width:0.5;" width="4" x="1084.151" y="498.17"/><rect fill="#111827" height="2" style="stroke:#334155;stroke-width:0.5;" width="4" x="1084.151" y="502.17"/><text fill="#E2E8F0" font-family="Arial" font-size="14" lengthAdjust="spacing" textLength="250.711" x="830.44" y="526.1359">ExecutionContractReceipt C x_t x_(t+1)</text></g><!--entity Admissible--><g class="entity" data-qualified-name="DASHI admissibility side.Admissible" data-source-line="34" id="ent0010"><rect fill="#111827" height="49.0679" rx="9" ry="9" style="stroke:#334155;stroke-width:0.5;" width="222.1813" x="321.31" y="659.17"/><rect fill="#111827" height="10" style="stroke:#334155;stroke-width:0.5;" width="15" x="523.4913" y="664.17"/><rect fill="#111827" height="2" style="stroke:#334155;stroke-width:0.5;" width="4" x="521.4913" y="666.17"/><rect fill="#111827" height="2" style="stroke:#334155;stroke-width:0.5;" width="4" x="521.4913" y="670.17"/><text fill="#E2E8F0" font-family="Arial" font-size="14" lengthAdjust="spacing" textLength="182.1813" x="336.31" y="694.1359">AdmissibleStep C x_t x_(t+1)</text></g><!--entity Bridge--><g class="entity" data-qualified-name="Bridge layer.Bridge" data-source-line="38" id="ent0012"><rect fill="#111827" height="87.2038" rx="9" ry="9" style="stroke:#334155;stroke-width:0.5;" width="266.3651" x="827.62" y="787.1"/><rect fill="#111827" height="10" style="stroke:#334155;stroke-width:0.5;" width="15" x="1073.9851" y="792.1"/><rect fill="#111827" height="2" style="stroke:#334155;stroke-width:0.5;" width="4" x="1071.9851" y="794.1"/><rect fill="#111827" height="2" style="stroke:#334155;stroke-width:0.5;" width="4" x="1071.9851" y="798.1"/><text fill="#E2E8F0" font-family="Arial" font-size="14" lengthAdjust="spacing" textLength="103.0676" x="842.62" y="822.0659">LilaDashiBridge</text><text fill="#E2E8F0" font-family="Arial" font-size="14" lengthAdjust="spacing" textLength="88.4936" x="842.62" y="841.1339">execution = C</text><text fill="#E2E8F0" font-family="Arial" font-size="14" lengthAdjust="spacing" textLength="226.3651" x="842.62" y="860.2018">phaseSplit = canonicalPhaseSplit C</text></g><!--entity TraceRow--><g class="entity" data-qualified-name="Bridge layer.TraceRow" data-source-line="39" id="ent0013"><rect fill="#111827" height="68.1358" rx="9" ry="9" style="stroke:#334155;stroke-width:0.5;" width="221.9573" x="1226.52" y="842.64"/><rect fill="#111827" height="10" style="stroke:#334155;stroke-width:0.5;" width="15" x="1428.4773" y="847.64"/><rect fill="#111827" height="2" style="stroke:#334155;stroke-width:0.5;" width="4" x="1426.4773" y="849.64"/><rect fill="#111827" height="2" style="stroke:#334155;stroke-width:0.5;" width="4" x="1426.4773" y="853.64"/><text fill="#E2E8F0" font-family="Arial" font-size="14" lengthAdjust="spacing" textLength="64.2177" x="1241.52" y="877.6059">TraceRow</text><text fill="#E2E8F0" font-family="Arial" font-size="14" lengthAdjust="spacing" textLength="181.9573" x="1241.52" y="896.6739">(step, current, next, receipt)</text></g><!--entity TraceFamily--><g class="entity" data-qualified-name="Bridge layer.TraceFamily" data-source-line="40" id="ent0014"><rect fill="#111827" height="68.1358" rx="9" ry="9" style="stroke:#334155;stroke-width:0.5;" width="278.027" x="821.79" y="909.64"/><rect fill="#111827" height="10" style="stroke:#334155;stroke-width:0.5;" width="15" x="1079.817" y="914.64"/><rect fill="#111827" height="2" style="stroke:#334155;stroke-width:0.5;" width="4" x="1077.817" y="916.64"/><rect fill="#111827" height="2" style="stroke:#334155;stroke-width:0.5;" width="4" x="1077.817" y="920.64"/><text fill="#E2E8F0" font-family="Arial" font-size="14" lengthAdjust="spacing" textLength="78.6097" x="836.79" y="944.6059">TraceFamily</text><text fill="#E2E8F0" font-family="Arial" font-size="14" lengthAdjust="spacing" textLength="238.027" x="836.79" y="963.6739">(Row, interpret : Row -&gt; TraceRow C)</text></g><!--entity Logs--><g class="entity" data-qualified-name="Runtime evidence.Logs" data-source-line="44" id="ent0016"><rect fill="#111827" height="42.0679" rx="9" ry="9" style="stroke:#334155;stroke-width:0.5;" width="134.7336" x="23" y="182.67"/><polygon fill="#111827" points="140.7336,187.67,140.7336,201.67,152.7336,201.67,152.7336,193.67,146.7336,187.67,140.7336,187.67" style="stroke:#334155;stroke-width:0.5;"/><line style="stroke:#334155;stroke-width:0.5;" x1="146.7336" x2="146.7336" y1="187.67" y2="193.67"/><line style="stroke:#334155;stroke-width:0.5;" x1="152.7336" x2="146.7336" y1="193.67" y2="193.67"/><text fill="#E2E8F0" font-family="Arial" font-size="14" lengthAdjust="spacing" textLength="104.7336" x="33" y="210.6359">training log CSV</text></g><!--entity DeltaScript--><g class="entity" data-qualified-name="Runtime evidence.DeltaScript" data-source-line="45" id="ent0017"><rect fill="#111827" height="42.0679" rx="9" ry="9" style="stroke:#334155;stroke-width:0.5;" width="145.3875" x="359.71" y="182.67"/><polygon fill="#111827" points="488.0975,187.67,488.0975,201.67,500.0975,201.67,500.0975,193.67,494.0975,187.67,488.0975,187.67" style="stroke:#334155;stroke-width:0.5;"/><line style="stroke:#334155;stroke-width:0.5;" x1="494.0975" x2="494.0975" y1="187.67" y2="193.67"/><line style="stroke:#334155;stroke-width:0.5;" x1="500.0975" x2="494.0975" y1="193.67" y2="193.67"/><text fill="#E2E8F0" font-family="Arial" font-size="14" lengthAdjust="spacing" textLength="115.3875" x="369.71" y="210.6359">delta_cone_lila.py</text></g><!--entity PrimeScript--><g class="entity" data-qualified-name="Runtime evidence.PrimeScript" data-source-line="46" id="ent0018"><rect fill="#111827" height="42.0679" rx="9" ry="9" style="stroke:#334155;stroke-width:0.5;" width="220.5253" x="322.14" y="105.67"/><polygon fill="#111827" points="525.6653,110.67,525.6653,124.67,537.6653,124.67,537.6653,116.67,531.6653,110.67,525.6653,110.67" style="stroke:#334155;stroke-width:0.5;"/><line style="stroke:#334155;stroke-width:0.5;" x1="531.6653" x2="531.6653" y1="110.67" y2="116.67"/><line style="stroke:#334155;stroke-width:0.5;" x1="537.6653" x2="531.6653" y1="116.67" y2="116.67"/><text fill="#E2E8F0" font-family="Arial" font-size="14" lengthAdjust="spacing" textLength="190.5253" x="332.14" y="133.6359">checkpoint_prime_vectors.py</text></g><g class="entity" data-qualified-name="GMN35" data-source-line="67" id="ent0036"><path d="M857.03,212 L857.03,239.412 A9,9 0 0 0 866.03,248.412 L1055.5802,248.412 A9,9 0 0 0 1064.5802,239.412 L1064.5802,213 L1054.5802,203 L866.03,203 A9,9 0 0 0 857.03,212" fill="#F8FAFC" style="stroke:#334155;stroke-width:0.5;"/><path d="M1054.5802,203 L1054.5802,208.5 A4.5,4.5 0 0 0 1059.0802,213 L1064.5802,213 L1054.5802,203" fill="#F8FAFC" style="stroke:#334155;stroke-width:1;"/><text fill="#000000" font-family="Arial" font-size="13" lengthAdjust="spacing" textLength="176.0072" x="863.03" y="221.897">LILA is the execution system.</text><text fill="#000000" font-family="Arial" font-size="13" lengthAdjust="spacing" textLength="186.5502" x="863.03" y="239.603">DASHI is the admissibility lens.</text></g><g class="entity" data-qualified-name="GMN38" data-source-line="72" id="ent0039"><path d="M811.08,132 L811.08,159.412 A9,9 0 0 0 820.08,168.412 L1101.5272,168.412 A9,9 0 0 0 1110.5272,159.412 L1110.5272,133 L1100.5272,123 L820.08,123 A9,9 0 0 0 811.08,132" fill="#F8FAFC" style="stroke:#334155;stroke-width:0.5;"/><path d="M1100.5272,123 L1100.5272,128.5 A4.5,4.5 0 0 0 1105.0272,133 L1110.5272,133 L1100.5272,123" fill="#F8FAFC" style="stroke:#334155;stroke-width:1;"/><text fill="#000000" font-family="Arial" font-size="13" lengthAdjust="spacing" textLength="243.3212" x="817.08" y="141.897">Empirical side: test Delta, not absolutes.</text><text fill="#000000" font-family="Arial" font-size="13" lengthAdjust="spacing" textLength="278.4472" x="817.08" y="159.603">Arrow coordinates stay outside the quadratic.</text></g><g class="entity" data-qualified-name="GMN41" data-source-line="77" id="ent0042"><path d="M269.73,15 L269.73,42.412 A9,9 0 0 0 278.73,51.412 L586.0733,51.412 A9,9 0 0 0 595.0733,42.412 L595.0733,16 L585.0733,6 L278.73,6 A9,9 0 0 0 269.73,15" fill="#F8FAFC" style="stroke:#334155;stroke-width:0.5;"/><path d="M585.0733,6 L585.0733,11.5 A4.5,4.5 0 0 0 589.5733,16 L595.0733,16 L585.0733,6" fill="#F8FAFC" style="stroke:#334155;stroke-width:1;"/><text fill="#000000" font-family="Arial" font-size="13" lengthAdjust="spacing" textLength="304.3433" x="275.73" y="24.897">Formal claim: traces are interpreted inside DASHI.</text><text fill="#000000" font-family="Arial" font-size="13" lengthAdjust="spacing" textLength="270.7902" x="275.73" y="42.603">Not an equality claim and not a safety proof.</text></g><!--link StateT to StateNext--><g class="link" data-entity-1="ent0003" data-entity-2="ent0004" data-link-type="dependency" data-source-line="49" id="lnk19"><path d="M128.73,355.64 C190.32,348.94 307.2152,336.2191 375.9552,328.7391" fill="none" id="StateT-to-StateNext" style="stroke:#8B5CF6;stroke-width:2;"/><polygon fill="#8B5CF6" points="381.92,328.09,372.5401,325.0871,376.9493,328.6309,373.4055,333.0401,381.92,328.09" style="stroke:#8B5CF6;stroke-width:2;"/><text fill="#000000" font-family="Arial" font-size="13" lengthAdjust="spacing" textLength="50.271" x="188.73" y="340.417">live step</text></g><!--link StateT to DeltaT--><g class="link" data-entity-1="ent0003" data-entity-2="ent0005" data-link-type="dependency" data-source-line="50" id="lnk20"><path d="M128.68,360.99 C212.26,363.6 420.84,368.52 595.08,359.71 C685.18,355.15 781.3627,345.0043 854.5927,336.2243" fill="none" id="StateT-to-DeltaT" style="stroke:#8B5CF6;stroke-width:2;"/><polygon fill="#8B5CF6" points="860.55,335.51,851.1378,332.6098,855.5856,336.1052,852.0902,340.5529,860.55,335.51" style="stroke:#8B5CF6;stroke-width:2;"/></g><!--link StateNext to DeltaT--><g class="link" data-entity-1="ent0004" data-entity-2="ent0005" data-link-type="dependency" data-source-line="51" id="lnk21"><path d="M482.93,322.71 C569.05,322.71 741.95,322.71 854.48,322.71" fill="none" id="StateNext-to-DeltaT" style="stroke:#8B5CF6;stroke-width:2;"/><polygon fill="#8B5CF6" points="860.48,322.71,851.48,318.71,855.48,322.71,851.48,326.71,860.48,322.71" style="stroke:#8B5CF6;stroke-width:2;"/></g><!--link Contract to Bridge--><g class="link" data-entity-1="ent0007" data-entity-2="ent0012" data-link-type="dependency" data-source-line="52" id="lnk22"><path d="M519.45,532.66 C544.4,539.01 571.31,547.28 595.08,557.71 C685.16,597.24 720.01,600.58 781.08,677.71 C794.84,695.09 784.08,707.28 797.79,724.71 C817.22,749.41 838.9858,767.0239 865.2358,783.4739" fill="none" id="Contract-to-Bridge" style="stroke:#8B5CF6;stroke-width:2;"/><polygon fill="#8B5CF6" points="870.32,786.66,864.8178,778.4914,866.0832,784.0049,860.5697,785.2703,870.32,786.66" style="stroke:#8B5CF6;stroke-width:2;"/></g><!--link PhaseSplit to Bridge--><g class="link" data-entity-1="ent0008" data-entity-2="ent0012" data-link-type="dependency" data-source-line="53" id="lnk23"><path d="M549.97,624.63 C565.45,629.48 580.86,635.14 595.08,641.71 C609.85,648.53 611.1,654.37 625.08,662.71 C702.83,709.1 789.6012,752.175 857.5312,784.145" fill="none" id="PhaseSplit-to-Bridge" style="stroke:#8B5CF6;stroke-width:2;"/><polygon fill="#8B5CF6" points="862.96,786.7,856.5201,779.2483,858.436,784.5709,853.1135,786.4868,862.96,786.7" style="stroke:#8B5CF6;stroke-width:2;"/></g><!--link Bridge to TraceRow--><g class="link" data-entity-1="ent0012" data-entity-2="ent0013" data-link-type="dependency" data-source-line="54" id="lnk24"><path d="M1094.43,846.99 C1137.49,852.27 1178.8146,857.3497 1220.0746,862.4097" fill="none" id="Bridge-to-TraceRow" style="stroke:#8B5CF6;stroke-width:2;"/><polygon fill="#8B5CF6" points="1226.03,863.14,1217.5838,858.0742,1221.0672,862.5314,1216.61,866.0147,1226.03,863.14" style="stroke:#8B5CF6;stroke-width:2;"/></g><!--link Receipt to TraceRow--><g class="link" data-entity-1="ent0009" data-entity-2="ent0013" data-link-type="dependency" data-source-line="55" id="lnk25"><path d="M987.56,540.52 C1052.95,603.52 1221.2093,765.6269 1296.3593,838.0369" fill="none" id="Receipt-to-TraceRow" style="stroke:#8B5CF6;stroke-width:2;"/><polygon fill="#8B5CF6" points="1300.68,842.2,1296.9744,833.0748,1297.0794,838.7307,1291.4236,838.8357,1300.68,842.2" style="stroke:#8B5CF6;stroke-width:2;"/></g><!--link TraceRow to Admissible--><g class="link" data-entity-1="ent0013" data-entity-2="ent0010" data-link-type="dependency" data-source-line="56" id="lnk26"><path d="M1300.13,910.97 C1261.45,944.86 1196.76,994.49 1130.16,1014.71 C988.81,1057.62 934.17,1071.45 797.79,1014.71 C679.78,965.61 690.56,895.68 595.08,810.71 C552.82,773.1 505.7271,736.9571 472.3171,712.1471" fill="none" id="TraceRow-to-Admissible" style="stroke:#8B5CF6;stroke-width:2;"/><polygon fill="#8B5CF6" points="467.5,708.57,472.3409,717.1471,471.5142,711.5509,477.1104,710.7243,467.5,708.57" style="stroke:#8B5CF6;stroke-width:2;"/><text fill="#000000" font-family="Arial" font-size="13" lengthAdjust="spacing" textLength="119.2231" x="901.3" y="1010.607">receipt-&gt;admissible</text></g><!--link TraceFamily to TraceRow--><g class="link" data-entity-1="ent0014" data-entity-2="ent0013" data-link-type="dependency" data-source-line="57" id="lnk27"><path d="M1100.26,918.95 C1141.75,911.53 1180.7637,904.556 1220.1937,897.506" fill="none" id="TraceFamily-to-TraceRow" style="stroke:#8B5CF6;stroke-width:2;"/><polygon fill="#8B5CF6" points="1226.1,896.45,1216.5365,894.0965,1221.1781,897.33,1217.9445,901.9716,1226.1,896.45" style="stroke:#8B5CF6;stroke-width:2;"/><text fill="#000000" font-family="Arial" font-size="13" lengthAdjust="spacing" textLength="54.1711" x="1141.52" y="898.137">interpret</text></g><!--link Logs to DeltaScript--><g class="link" data-entity-1="ent0016" data-entity-2="ent0017" data-link-type="dependency" data-source-line="58" id="lnk28"><path d="M158.14,203.71 C216.17,203.71 294.01,203.71 353.5,203.71" fill="none" id="Logs-to-DeltaScript" style="stroke:#8B5CF6;stroke-width:2;"/><polygon fill="#8B5CF6" points="359.5,203.71,350.5,199.71,354.5,203.71,350.5,207.71,359.5,203.71" style="stroke:#8B5CF6;stroke-width:2;"/></g><!--link Logs to PrimeScript--><g class="link" data-entity-1="ent0016" data-entity-2="ent0018" data-link-type="dependency" data-source-line="59" id="lnk29"><path d="M158.14,188.59 C209.01,177.07 273.8681,162.375 330.6181,149.525" fill="none" id="Logs-to-PrimeScript" style="stroke:#8B5CF6;stroke-width:2;"/><polygon fill="#8B5CF6" points="336.47,148.2,326.8088,146.2863,331.5935,149.3042,328.5756,154.0888,336.47,148.2" style="stroke:#8B5CF6;stroke-width:2;"/></g><!--link DeltaScript to DeltaT--><g class="link" data-entity-1="ent0017" data-entity-2="ent0005" data-link-type="dependency" data-source-line="60" id="lnk30"><path d="M505.49,220 C600.81,241.55 762.8176,278.1772 865.6376,301.4172" fill="none" id="DeltaScript-to-DeltaT" style="stroke:#8B5CF6;stroke-width:2;"/><polygon fill="#8B5CF6" points="871.49,302.74,863.5933,296.8542,866.613,301.6377,861.8296,304.6574,871.49,302.74" style="stroke:#8B5CF6;stroke-width:2;"/><text fill="#000000" font-family="Arial" font-size="13" lengthAdjust="spacing" textLength="154.9081" x="626.08" y="244.947">estimate projected deltas</text></g><!--link Logs to TraceFamily--><g class="link" data-entity-1="ent0016" data-entity-2="ent0014" data-link-type="dependency" data-source-line="61" id="lnk31"><path d="M112.87,225.11 C127.55,240.88 146.33,263.53 157.73,286.71 C203.91,380.52 197.36,668.24 269.73,743.71 C414.46,894.61 659.5299,933.2958 815.6199,942.2658" fill="none" id="Logs-to-TraceFamily" style="stroke:#8B5CF6;stroke-width:2;"/><polygon fill="#8B5CF6" points="821.61,942.61,812.8543,938.1002,816.6182,942.3231,812.3953,946.0871,821.61,942.61" style="stroke:#8B5CF6;stroke-width:2;"/><text fill="#000000" font-family="Arial" font-size="13" lengthAdjust="spacing" textLength="67.899" x="398.91" y="739.607">row source</text></g><!--link Contract to Receipt--><g class="link" data-entity-1="ent0007" data-entity-2="ent0009" data-link-type="dependency" data-source-line="62" id="lnk32"><path d="M519.45,515.71 C599.46,515.71 714.25,515.71 809.1,515.71" fill="none" id="Contract-to-Receipt" style="stroke:#8B5CF6;stroke-width:2;"/><polygon fill="#8B5CF6" points="815.1,515.71,806.1,511.71,810.1,515.71,806.1,519.71,815.1,515.71" style="stroke:#8B5CF6;stroke-width:2;"/><text fill="#000000" font-family="Arial" font-size="13" lengthAdjust="spacing" textLength="68.3281" x="669.08" y="511.607">judges pair</text></g><!--link StateT to Receipt--><g class="link" data-entity-1="ent0003" data-entity-2="ent0009" data-link-type="dependency" data-source-line="63" id="lnk33"><path d="M128.68,366.41 C246.78,387.62 610.6645,452.9891 814.9045,489.6791" fill="none" id="StateT-to-Receipt" style="stroke:#8B5CF6;stroke-width:2;"/><polygon fill="#8B5CF6" points="820.81,490.74,812.659,485.2117,815.8888,489.8559,811.2446,493.0857,820.81,490.74" style="stroke:#8B5CF6;stroke-width:2;"/></g><!--link StateNext to Receipt--><g class="link" data-entity-1="ent0004" data-entity-2="ent0009" data-link-type="dependency" data-source-line="64" id="lnk34"><path d="M482.84,333.38 C551.23,348.9 677.95,380.42 781.08,421.71 C829.9,441.25 877.6808,467.148 913.1708,487.748" fill="none" id="StateNext-to-Receipt" style="stroke:#8B5CF6;stroke-width:2;"/><polygon fill="#8B5CF6" points="918.36,490.76,912.5842,482.7825,914.0357,488.25,908.5682,489.7014,918.36,490.76" style="stroke:#8B5CF6;stroke-width:2;"/></g><!--link Bridge to GMN35--><g class="link" data-entity-1="ent0012" data-entity-2="ent0036" data-link-type="association" data-source-line="67" id="lnk37"><path d="M827.35,800.88 C777.45,782.55 725.81,753.36 696.43,707.21 C600.25,556.11 589.31,447.76 696.43,304.21 C733.23,254.9 799.69,235.31 856.77,228.03" fill="none" id="Bridge-GMN35" style="stroke:#8B5CF6;stroke-width:2;stroke-dasharray:7,7;"/></g><!--link DeltaT to GMN38--><g class="link" data-entity-1="ent0005" data-entity-2="ent0039" data-link-type="association" data-source-line="72" id="lnk40"><path d="M860.65,312.1 C765.81,298 644.99,267.03 696.43,203.21 C724.21,168.74 767.37,151.85 810.82,144.28" fill="none" id="DeltaT-GMN38" style="stroke:#8B5CF6;stroke-width:2;stroke-dasharray:7,7;"/></g><!--link Admissible to GMN41--><g class="link" data-entity-1="ent0010" data-entity-2="ent0042" data-link-type="association" data-source-line="77" id="lnk43"><path d="M320.89,681.02 C280.37,673.86 238.5,657.89 213.73,624.21 C145.68,531.64 147.63,201.17 213.73,107.21 C232.13,81.06 260.09,63.58 289.93,51.91" fill="none" id="Admissible-GMN41" style="stroke:#8B5CF6;stroke-width:2;stroke-dasharray:7,7;"/></g><?plantuml-src ZLPHJzim47xFhpXrBw3HYi8O5H98NHdQ98GGHNj2gbpdqXeSExCTe9hsttTEdCI1gkm5bBllxhlxxdognCo1qs34QkqW5GQv4rebzaceWXcMmvBnfvNHfKfdMce3dmwpyUaHYn1spLBz8jGACYOjHfwxEimeD32UH8uKCrPATwMLks4vmjG89YF_r1Zz4lWconEUVNthl5yB_gJGMZYAN0KLorOuTnk9u7jXQYNZYbhRjxTjZSVZoT7fLgWsAPe0Epx-CZuvsGRppGGG7k4aEun0p3YHCUu-PcsHEqaRr2vEhlD2ArJ_GTf1TxAsi5sqOGGVapR0dPG1j8jGQVUUBPjaBEDlKLkeai00W-kVrrF0L-IbVm5WHOe3-9D0Ds4Op1rp2AyBDm1ceVgwtuxOSv_7-ntg1bzT7tY9qh65WxDpACHU2DY7OVtbwjWAT9_yZSgydCv__0IMvi9QiHHIk4rKQpiY67nlMfcHU8QM1MPLpkRp0_JjcbcS5vG_n7M63oBlaACeACmBrPCYUFhnqz2Af6UBnPQe3j0JufiHAVsNR8FcNVFNGh9BPjUYHZseRh3dC7jGHTVTEN2cj1ASoNSzrz7zrFVK8zxfbmUrPwdW0-2bCUGv02AXlwPkigwz0Mz9SSLo8JUKXTm789H3KnYaXQ2p-GB3YpOMPb6kEgedn5sfdA0ZYi-q1eg7JMXE10neA4Bvyopr2cRpNrMoQxsoFLHQxIEd2XUIn1iLcsu3vzpKO-lWV8tygT1Kzg8mnBvufjNMnZPnjzuOugZO-gd0aDfgtmDrAiKpWbSn1eIbxt2HiTrbRmlJYQOMMSDw32CXasOpUyPMPc_jTesg2vCSNh1k0wCXzD8Gl1rXuiNjgWugjCPOcWWGjKd9qD9C_IafZ7uaQJ65QaAsonENGiLI3LQNXcDVfARdCtWiIH1B9rMOMExcKVRrRgo9FvomrCxf77JMg5iTIs71hJ6-cHkQPJvAwXiLtFrJ9L7PKO8ghIxok_HXpD_pGXZ_8glJTWQEvAXz1puEsD9gMP9rb5I_1kXnqMqNYZgmj4zi0xfqFhIgu7V9KiESu3k8eoDpfKrEp5moaHErLzdIvcCtO1g6K5NwgjDHSkDhKe34L7LPnP8bhQi5op8aCyrIPrqH_m00?></g></svg>